<svg width="35" height="35" viewBox="0 0 35 35" fill="none" xmlns="http://www.w3.org/2000/svg">
<path opacity="0.5" fill-rule="evenodd" clip-rule="evenodd" d="M12.0008 25.9596L15.3838 30.3776C15.6909 30.7786 15.6371 31.3463 15.2641 31.6863L14.1007 32.7473C13.8929 32.9367 13.6429 33.021 13.3634 32.9956C13.0841 32.9702 12.8539 32.8416 12.6824 32.6185L8.9318 27.74L12.0008 25.9596ZM30.5586 14.6211H34.0041C34.5552 14.6211 35.0011 14.1689 35 13.6158C34.9989 13.062 34.5495 12.6145 33.9991 12.6145H30.5536C30.0025 12.6145 29.5566 13.0668 29.5577 13.6198C29.5588 14.1737 30.0082 14.6211 30.5586 14.6211ZM26.469 5.5055L28.1917 2.50723C28.4669 2.02822 28.306 1.41347 27.8293 1.13554C27.3532 0.858047 26.7404 1.01996 26.4649 1.49953L24.7421 4.49781C24.4669 4.97682 24.6278 5.59157 25.1046 5.86949C25.5806 6.14699 26.1934 5.98508 26.469 5.5055ZM30.4553 9.09694L33.2839 7.45591C33.7641 7.17734 33.9286 6.56052 33.6514 6.07794C33.3741 5.59543 32.7603 5.43016 32.28 5.70873L29.4514 7.34983C28.9712 7.6284 28.8068 8.24523 29.084 8.72781C29.3612 9.21024 29.9751 9.37551 30.4553 9.09694ZM26.0064 13.6124L29.3428 19.4192C29.9692 20.5094 29.594 21.9164 28.5091 22.5459C27.4966 23.1332 26.2097 22.8441 25.5332 21.9169C21.8401 21.3524 17.0293 21.9588 12.2458 23.8326L7.64697 15.8287C11.6552 12.6063 14.5922 8.74368 15.9523 5.24767C15.4745 4.19058 15.8671 2.91089 16.8874 2.31894C17.9724 1.68946 19.3726 2.06654 19.999 3.15672L23.3354 8.96356C23.4304 8.88979 23.5313 8.82152 23.6381 8.75955C24.9273 8.01162 26.5759 8.45546 27.3202 9.75094C28.0645 11.0464 27.6228 12.703 26.3336 13.4509C26.2268 13.5129 26.1175 13.5666 26.0064 13.6124ZM11.0894 24.6793L6.27059 16.2925L2.43972 18.515C0.111933 19.8654 -0.692926 22.8841 0.650948 25.223C1.99489 27.562 4.99899 28.3709 7.32678 27.0206L11.1576 24.7981L11.0894 24.6793Z" fill="url(#paint0_linear_28_295)"/>
<defs>
<linearGradient id="paint0_linear_28_295" x1="17.5" y1="1" x2="17.5" y2="33" gradientUnits="userSpaceOnUse">
<stop stop-color="#42D872"/>
<stop offset="1" stop-color="#97E89C"/>
</linearGradient>
</defs>
</svg>
