<svg width="38" height="37" viewBox="0 0 38 37" fill="none" xmlns="http://www.w3.org/2000/svg">
<path opacity="0.5" fill-rule="evenodd" clip-rule="evenodd" d="M12.0008 25.9596L15.3838 30.3776C15.6909 30.7786 15.6371 31.3463 15.2641 31.6863L14.1007 32.7473C13.8929 32.9367 13.6429 33.021 13.3634 32.9956C13.0841 32.9702 12.8539 32.8416 12.6824 32.6185L8.9318 27.74L12.0008 25.9596ZM30.5586 14.6211H34.0041C34.5552 14.6211 35.0011 14.1689 35 13.6158C34.9989 13.062 34.5495 12.6145 33.9991 12.6145H30.5536C30.0025 12.6145 29.5566 13.0668 29.5577 13.6198C29.5588 14.1737 30.0082 14.6211 30.5586 14.6211ZM26.469 5.5055L28.1917 2.50723C28.4669 2.02822 28.306 1.41347 27.8293 1.13554C27.3532 0.858047 26.7404 1.01996 26.4649 1.49953L24.7421 4.49781C24.4669 4.97682 24.6278 5.59157 25.1046 5.86949C25.5806 6.14699 26.1934 5.98508 26.469 5.5055ZM30.4553 9.09694L33.2839 7.45591C33.7641 7.17734 33.9286 6.56052 33.6514 6.07794C33.3741 5.59543 32.7603 5.43016 32.28 5.70873L29.4514 7.34983C28.9712 7.6284 28.8068 8.24523 29.084 8.72781C29.3612 9.21024 29.9751 9.37551 30.4553 9.09694ZM26.0064 13.6124L29.3428 19.4192C29.9692 20.5094 29.594 21.9164 28.5091 22.5459C27.4966 23.1332 26.2097 22.8441 25.5332 21.9169C21.8401 21.3524 17.0293 21.9588 12.2458 23.8326L7.64697 15.8287C11.6552 12.6063 14.5922 8.74368 15.9523 5.24767C15.4745 4.19058 15.8671 2.91089 16.8874 2.31894C17.9724 1.68946 19.3726 2.06654 19.999 3.15672L23.3354 8.96356C23.4304 8.88979 23.5313 8.82152 23.6381 8.75955C24.9273 8.01162 26.5759 8.45546 27.3202 9.75094C28.0645 11.0464 27.6228 12.703 26.3336 13.4509C26.2268 13.5129 26.1175 13.5666 26.0064 13.6124ZM11.0894 24.6793L6.27059 16.2925L2.43972 18.515C0.111933 19.8654 -0.692926 22.8841 0.650948 25.223C1.99489 27.562 4.99899 28.3709 7.32678 27.0206L11.1576 24.7981L11.0894 24.6793Z" fill="url(#paint0_linear_1_27)"/>
<path d="M28.8389 33.4961C28.8389 33.6683 28.7705 33.8335 28.6487 33.9553C28.5269 34.0771 28.3617 34.1455 28.1895 34.1455H25.5918C25.4196 34.1455 25.2544 34.0771 25.1326 33.9553C25.0108 33.8335 24.9424 33.6683 24.9424 33.4961C24.9424 33.3239 25.0108 33.1587 25.1326 33.0369C25.2544 32.9151 25.4196 32.8467 25.5918 32.8467H28.1895C28.3617 32.8467 28.5269 32.9151 28.6487 33.0369C28.7705 33.1587 28.8389 33.3239 28.8389 33.4961ZM34.6528 27.9623L33.6494 32.4781C33.6018 32.6926 33.5006 32.8915 33.3552 33.0561C33.2099 33.2208 33.0251 33.346 32.8183 33.4199C32.6114 33.4937 32.3892 33.5139 32.1724 33.4786C31.9556 33.4432 31.7513 33.3534 31.5786 33.2177L29.3673 31.5479H24.4156L22.2027 33.2177C22.03 33.3534 21.8257 33.4432 21.6089 33.4786C21.3921 33.5139 21.1699 33.4937 20.963 33.4199C20.7561 33.346 20.5714 33.2208 20.426 33.0561C20.2807 32.8915 20.1795 32.6926 20.1319 32.4781L19.1285 27.9623C19.086 27.7685 19.0881 27.5675 19.1348 27.3747C19.1815 27.1819 19.2715 27.0022 19.398 26.8493L21.7164 24.0682C21.7942 23.0462 22.0289 22.0422 22.4121 21.0915C23.4593 18.4662 25.3345 16.8191 26.0951 16.233C26.3228 16.0566 26.6026 15.9609 26.8906 15.9609C27.1787 15.9609 27.4585 16.0566 27.6862 16.233C28.4444 16.8191 30.322 18.4662 31.3692 21.0915C31.7524 22.0422 31.987 23.0462 32.0648 24.0682L34.3833 26.8493C34.5098 27.0022 34.5998 27.1819 34.6465 27.3747C34.6932 27.5675 34.6953 27.7685 34.6528 27.9623ZM23.3505 30.7223C22.4787 29.135 21.9494 27.5745 21.7627 26.0408L20.3965 27.6806L21.3998 32.1973L21.4145 32.1867L23.3505 30.7223ZM27.8648 23.4302C27.8648 23.2375 27.8076 23.0492 27.7006 22.889C27.5936 22.7288 27.4414 22.6039 27.2634 22.5302C27.0854 22.4565 26.8896 22.4372 26.7006 22.4748C26.5116 22.5124 26.3381 22.6051 26.2018 22.7414C26.0656 22.8776 25.9728 23.0512 25.9352 23.2401C25.8976 23.4291 25.9169 23.625 25.9907 23.803C26.0644 23.981 26.1893 24.1331 26.3494 24.2401C26.5096 24.3472 26.698 24.4043 26.8906 24.4043C27.149 24.4043 27.3968 24.3017 27.5794 24.119C27.7621 23.9363 27.8648 23.6885 27.8648 23.4302ZM33.3848 27.6806L32.0186 26.0408C31.8335 27.5713 31.3042 29.1323 30.4308 30.7239L32.3668 32.1851L32.3814 32.1956L33.3848 27.6806Z" fill="url(#paint1_linear_1_27)"/>
<defs>
<linearGradient id="paint0_linear_1_27" x1="17.5" y1="1" x2="17.5" y2="33" gradientUnits="userSpaceOnUse">
<stop stop-color="#42D872"/>
<stop offset="1" stop-color="#97E89C"/>
</linearGradient>
<linearGradient id="paint1_linear_1_27" x1="26.8906" y1="15.9609" x2="26.8906" y2="34.1455" gradientUnits="userSpaceOnUse">
<stop stop-color="#42D872"/>
<stop offset="1" stop-color="#97E89C"/>
</linearGradient>
</defs>
</svg>
