<svg width="187" height="188" viewBox="0 0 187 188" fill="none" xmlns="http://www.w3.org/2000/svg">
<path d="M49.0468 175.721C62.5455 183.033 78.009 187.151 94.431 186.996C146.055 186.507 187.484 144.194 186.995 92.569C186.506 40.9445 144.284 -0.48483 92.6594 0.00428669C41.035 0.493404 -0.48536 42.7162 0.00375863 94.3407C0.16107 110.944 4.66248 126.327 12.3207 139.774L0.890021 187.882L49.0468 175.721Z" fill="url(#paint0_linear_23_283)"/>
<path d="M116.807 59.9125L116.809 59.9136C118.517 61.2359 118.831 63.704 117.489 65.4029L66.8665 129.71L66.8655 129.711C65.5049 131.433 63.0653 131.602 61.4822 130.071L61.4819 130.071L35.1863 104.621C35.1861 104.621 35.186 104.621 35.1859 104.621C33.6289 103.115 33.6025 100.628 35.1221 99.0878L35.1228 99.0871L38.5385 95.632L116.807 59.9125ZM116.807 59.9125L112.953 56.94M116.807 59.9125L112.953 56.94M44.0992 95.5685L44.0997 95.5689L61.7832 112.687L44.0992 95.5685ZM44.0992 95.5685C42.5494 94.07 40.0551 94.0954 38.5392 95.6312L44.0992 95.5685ZM112.953 56.94C112.953 56.9399 112.952 56.9398 112.952 56.9397M112.953 56.94L112.952 56.9397M112.952 56.9397C111.247 55.6197 108.769 55.9237 107.435 57.6217C107.434 57.6218 107.434 57.6219 107.434 57.622L64.2069 112.525C64.2067 112.525 64.2065 112.525 64.2063 112.525C63.5781 113.32 62.5141 113.393 61.7837 112.687L112.952 56.9397ZM149.904 59.9136L149.902 59.9125L146.048 56.94C146.048 56.9399 146.047 56.9398 146.047 56.9397C144.342 55.6197 141.864 55.9237 140.53 57.6216C140.529 57.6217 140.529 57.6219 140.529 57.622L97.3018 112.525C96.6734 113.32 95.6088 113.393 94.8781 112.687L94.8652 112.674L94.8518 112.662L91.9756 110.075C90.3959 108.562 87.9596 108.72 86.5998 110.441C86.5996 110.442 86.5995 110.442 86.5994 110.442L83.5487 114.299L83.5483 114.3C82.2355 115.962 82.4028 118.483 83.9289 119.958L83.9288 119.958L83.9355 119.964L94.5839 130.071C94.5851 130.072 94.5862 130.073 94.5874 130.074C96.1705 131.601 98.6076 131.432 99.9672 129.711L99.9682 129.71L150.592 65.4016L150.593 65.4003C151.925 63.7021 151.612 61.2357 149.904 59.9136Z" fill="white" stroke="white" stroke-width="2"/>
<defs>
<linearGradient id="paint0_linear_23_283" x1="93" y1="188.119" x2="93" y2="0.118892" gradientUnits="userSpaceOnUse">
<stop stop-color="#1F94DF"/>
<stop offset="1" stop-color="#9AEFFF"/>
</linearGradient>
</defs>
</svg>
