<svg width="35" height="35" viewBox="0 0 35 35" fill="none" xmlns="http://www.w3.org/2000/svg">
<path opacity="0.5" d="M30.0786 4.93336H6.70716C5.09648 4.93336 3.78574 6.2441 3.78574 7.85478V23.4357C3.78574 25.0464 5.09648 26.3571 6.70716 26.3571H9.62859V31.2262C9.62859 31.6011 9.8438 31.941 10.1798 32.1036C10.3151 32.1679 10.4592 32.2 10.6024 32.2C10.8196 32.2 11.0348 32.1279 11.211 31.9867L18.2478 26.3571H30.0786C31.6893 26.3571 33 25.0464 33 23.4357V7.85478C33 6.2441 31.6893 4.93336 30.0786 4.93336ZM18.3929 18.5667H10.6024C10.0639 18.5667 9.62859 18.1304 9.62859 17.5929C9.62859 17.0553 10.0639 16.6191 10.6024 16.6191H18.3929C18.9314 16.6191 19.3667 17.0553 19.3667 17.5929C19.3667 18.1304 18.9314 18.5667 18.3929 18.5667ZM26.1833 14.6714H10.6024C10.0639 14.6714 9.62859 14.2352 9.62859 13.6976C9.62859 13.1601 10.0639 12.7238 10.6024 12.7238H26.1833C26.7219 12.7238 27.1571 13.1601 27.1571 13.6976C27.1571 14.2352 26.7219 14.6714 26.1833 14.6714Z" fill="url(#paint0_linear_28_299)"/>
<defs>
<linearGradient id="paint0_linear_28_299" x1="3.78574" y1="32.2189" x2="37.2954" y2="12.0514" gradientUnits="userSpaceOnUse">
<stop stop-color="#269BE9"/>
<stop offset="1" stop-color="#6CD1F1"/>
</linearGradient>
</defs>
</svg>
