<svg width="35" height="35" viewBox="0 0 35 35" fill="none" xmlns="http://www.w3.org/2000/svg">
<path d="M28.4375 9.84375V18.5938M24.0625 14.2188H32.8125" stroke="url(#paint0_linear_1_31)" stroke-width="1.5" stroke-linecap="round" stroke-linejoin="round"/>
<path opacity="0.5" fill-rule="evenodd" clip-rule="evenodd" d="M10.9627 8.24169C10.9627 4.81387 13.6633 1.99546 17.0427 1.99546C20.4222 1.99546 23.1228 4.81387 23.1228 8.24169C23.1228 11.6695 20.4222 14.4879 17.0427 14.4879C13.6633 14.4879 10.9627 11.6695 10.9627 8.24169ZM12.9781 18.4842H12.9364C12.423 18.4841 12.1197 18.4841 11.857 18.5047C8.54381 18.7634 5.91191 21.3953 5.65313 24.7085C5.63261 24.9713 5.63262 25.2745 5.63263 25.7879L5.63263 25.8296L5.63263 25.8674C5.63261 26.2 5.6326 26.4114 5.64706 26.5965C5.82916 28.928 7.68124 30.7801 10.0128 30.9622C10.1978 30.9766 10.4093 30.9766 10.7417 30.9766H10.7418L10.7796 30.9766H23.3058L23.3436 30.9766H23.3437C23.6762 30.9766 23.8876 30.9766 24.0727 30.9622C26.4042 30.7801 28.2563 28.928 28.4384 26.5965C28.4528 26.4114 28.4528 26.2 28.4528 25.8674V25.8296V25.7879C28.4528 25.2745 28.4528 24.9713 28.4323 24.7085C28.1735 21.3953 25.5416 18.7634 22.2284 18.5047C21.9657 18.4841 21.6624 18.4841 21.1491 18.4842H21.1073H12.9781Z" fill="url(#paint1_linear_1_31)"/>
<defs>
<linearGradient id="paint0_linear_1_31" x1="28.4375" y1="9.84375" x2="28.4375" y2="18.5938" gradientUnits="userSpaceOnUse">
<stop stop-color="#269BE9"/>
<stop offset="1" stop-color="#6CD1F1"/>
</linearGradient>
<linearGradient id="paint1_linear_1_31" x1="17.0427" y1="1.99546" x2="17.0427" y2="30.9766" gradientUnits="userSpaceOnUse">
<stop stop-color="#269BE9"/>
<stop offset="1" stop-color="#6CD1F1"/>
</linearGradient>
</defs>
</svg>
