<svg width="35" height="35" viewBox="0 0 35 35" fill="none" xmlns="http://www.w3.org/2000/svg">
<g opacity="0.5">
<path d="M30.625 7.65625H24.0625V2.1875C24.0625 1.89742 23.9473 1.61922 23.7421 1.4141C23.537 1.20898 23.2588 1.09375 22.9688 1.09375C22.6787 1.09375 22.4005 1.20898 22.1954 1.4141C21.9902 1.61922 21.875 1.89742 21.875 2.1875V7.65625H13.125V2.1875C13.125 1.89742 13.0098 1.61922 12.8046 1.4141C12.5995 1.20898 12.3213 1.09375 12.0312 1.09375C11.5924 1.09375 10.9375 1.4041 10.9375 2.26133V7.65625H4.4502C3.59297 7.65625 3.28125 8.30977 3.28125 8.75C3.28125 9.04008 3.39648 9.31828 3.6016 9.5234C3.80672 9.72852 4.08492 9.84375 4.375 9.84375H6.5625V21.875C6.5625 23.3254 7.13867 24.7164 8.16426 25.742C9.18985 26.7676 10.5808 27.3438 12.0312 27.3438H16.4062V32.8125C16.4062 33.1026 16.5215 33.3808 16.7266 33.5859C16.9317 33.791 17.2099 33.9062 17.5 33.9062C17.7901 33.9062 18.0683 33.791 18.2734 33.5859C18.4785 33.3808 18.5938 33.1026 18.5938 32.8125V27.3438H22.9688C24.4192 27.3438 25.8102 26.7676 26.8357 25.742C27.8613 24.7164 28.4375 23.3254 28.4375 21.875V9.84375H30.625C30.9151 9.84375 31.1933 9.72852 31.3984 9.5234C31.6035 9.31828 31.7188 9.04008 31.7188 8.75C31.7188 8.45992 31.6035 8.18172 31.3984 7.9766C31.1933 7.77148 30.9151 7.65625 30.625 7.65625ZM20.7115 17.8842L19.0709 22.2592C18.969 22.5311 18.7633 22.7515 18.4989 22.8717C18.2346 22.992 17.9333 23.0023 17.6613 22.9004C17.3894 22.7985 17.169 22.5928 17.0488 22.3284C16.9285 22.0641 16.9182 21.7628 17.0201 21.4908L18.1139 18.5938H15.3125C15.1358 18.5937 14.9617 18.5509 14.8051 18.4689C14.6485 18.3869 14.5142 18.2682 14.4135 18.1229C14.3128 17.9776 14.2489 17.8101 14.2271 17.6347C14.2053 17.4594 14.2264 17.2813 14.2885 17.1158L15.9291 12.7408C16.031 12.4689 16.2367 12.2485 16.5011 12.1283C16.7654 12.008 17.0667 11.9977 17.3387 12.0996C17.6106 12.2015 17.831 12.4072 17.9512 12.6716C18.0715 12.9359 18.0818 13.2372 17.9799 13.5092L16.8861 16.4062H19.6875C19.8642 16.4063 20.0383 16.4491 20.1949 16.5311C20.3515 16.6131 20.4858 16.7318 20.5865 16.8771C20.6872 17.0224 20.7511 17.1899 20.7729 17.3653C20.7947 17.5406 20.7736 17.7187 20.7115 17.8842Z" fill="url(#paint0_linear_19_228)"/>
</g>
<defs>
<linearGradient id="paint0_linear_19_228" x1="17.5" y1="1.09375" x2="17.5" y2="33.9062" gradientUnits="userSpaceOnUse">
<stop stop-color="#269BE9"/>
<stop offset="1" stop-color="#6CD1F1"/>
</linearGradient>
</defs>
</svg>
