<svg width="70" height="24" viewBox="0 0 70 24" fill="none" xmlns="http://www.w3.org/2000/svg">
<rect x="0.5" width="69" height="24" rx="4" fill="#E2435C" fill-opacity="0.15"/>
<path d="M16.4243 18H14.5127L13.5679 15.3267H9.43701L8.52881 18H6.62451L10.5576 7.49707H12.5205L16.4243 18ZM13.1064 13.9058L11.6489 9.71631C11.605 9.57959 11.5586 9.35986 11.5098 9.05713H11.4805C11.4365 9.33545 11.3877 9.55518 11.334 9.71631L9.89111 13.9058H13.1064ZM19.4126 16.916H19.3833V18H17.6841V6.89648H19.3833V11.8184H19.4126C19.9937 10.8223 20.8433 10.3242 21.9614 10.3242C22.9087 10.3242 23.6484 10.6611 24.1807 11.335C24.7178 12.0039 24.9863 12.9023 24.9863 14.0303C24.9863 15.2852 24.686 16.291 24.0854 17.0479C23.4849 17.7998 22.6646 18.1758 21.6245 18.1758C20.6479 18.1758 19.9106 17.7559 19.4126 16.916ZM19.3687 13.9351V14.8652C19.3687 15.4121 19.542 15.876 19.8887 16.2568C20.2402 16.6377 20.6846 16.8281 21.2217 16.8281C21.8516 16.8281 22.3447 16.584 22.7012 16.0957C23.0625 15.6025 23.2432 14.9165 23.2432 14.0376C23.2432 13.3003 23.0747 12.7241 22.7378 12.3091C22.4058 11.8892 21.9541 11.6792 21.3828 11.6792C20.7773 11.6792 20.2891 11.894 19.918 12.3237C19.5518 12.7534 19.3687 13.2905 19.3687 13.9351ZM30.0474 18.1758C28.8901 18.1758 27.9648 17.8267 27.2715 17.1284C26.583 16.4253 26.2388 15.4951 26.2388 14.3379C26.2388 13.0781 26.5977 12.0942 27.3154 11.3862C28.0381 10.6782 29.0098 10.3242 30.2305 10.3242C31.4023 10.3242 32.3154 10.6685 32.9697 11.3569C33.624 12.0454 33.9512 13 33.9512 14.2207C33.9512 15.417 33.5972 16.3765 32.8892 17.0991C32.186 17.8169 31.2388 18.1758 30.0474 18.1758ZM30.1279 11.6792C29.4639 11.6792 28.939 11.9111 28.5532 12.375C28.1675 12.8389 27.9746 13.4785 27.9746 14.2939C27.9746 15.0801 28.1699 15.7002 28.5605 16.1543C28.9512 16.6035 29.4736 16.8281 30.1279 16.8281C30.7969 16.8281 31.3096 16.606 31.666 16.1616C32.0273 15.7173 32.208 15.085 32.208 14.2646C32.208 13.4395 32.0273 12.8022 31.666 12.353C31.3096 11.9038 30.7969 11.6792 30.1279 11.6792ZM40.0376 12.1187C39.8325 11.9575 39.5371 11.877 39.1514 11.877C38.6484 11.877 38.2285 12.104 37.8916 12.5581C37.5547 13.0122 37.3862 13.6299 37.3862 14.4111V18H35.687V10.5H37.3862V12.0454H37.4155C37.5815 11.5181 37.8354 11.1079 38.1772 10.8149C38.5239 10.5171 38.9097 10.3682 39.3345 10.3682C39.6421 10.3682 39.8765 10.4146 40.0376 10.5073V12.1187ZM45.6333 17.9194C45.3013 18.0854 44.8643 18.1685 44.3223 18.1685C42.8672 18.1685 42.1396 17.4702 42.1396 16.0737V11.833H40.8872V10.5H42.1396V8.76416L43.8389 8.28076V10.5H45.6333V11.833H43.8389V15.583C43.8389 16.0273 43.9194 16.3447 44.0806 16.5352C44.2417 16.7256 44.5103 16.8208 44.8862 16.8208C45.1743 16.8208 45.4233 16.7378 45.6333 16.5718V17.9194ZM53.3604 14.7114H48.248C48.2676 15.4048 48.48 15.9395 48.8853 16.3154C49.2954 16.6914 49.8569 16.8794 50.5698 16.8794C51.3706 16.8794 52.1055 16.6401 52.7744 16.1616V17.5312C52.0908 17.9609 51.1875 18.1758 50.0645 18.1758C48.9609 18.1758 48.0942 17.8364 47.4644 17.1577C46.8394 16.4741 46.5269 15.5146 46.5269 14.2793C46.5269 13.1123 46.8711 12.1626 47.5596 11.4302C48.2529 10.6929 49.1123 10.3242 50.1377 10.3242C51.1631 10.3242 51.9565 10.6538 52.5181 11.313C53.0796 11.9722 53.3604 12.8877 53.3604 14.0596V14.7114ZM51.7197 13.5103C51.7148 12.8999 51.5708 12.4263 51.2876 12.0894C51.0044 11.7476 50.6138 11.5767 50.1157 11.5767C49.6274 11.5767 49.2124 11.7549 48.8706 12.1113C48.5337 12.4678 48.3262 12.9341 48.248 13.5103H51.7197ZM61.7979 18H60.0986V16.7256H60.0693C59.5225 17.6924 58.6802 18.1758 57.5425 18.1758C56.6196 18.1758 55.8799 17.8413 55.3232 17.1724C54.7715 16.4985 54.4956 15.583 54.4956 14.4258C54.4956 13.1855 54.8008 12.1919 55.4111 11.4448C56.0264 10.6978 56.8442 10.3242 57.8647 10.3242C58.8755 10.3242 59.6104 10.7295 60.0693 11.54H60.0986V6.89648H61.7979V18ZM60.1206 14.5723V13.5908C60.1206 13.0586 59.9473 12.6069 59.6006 12.2358C59.2539 11.8647 58.812 11.6792 58.2749 11.6792C57.6401 11.6792 57.1396 11.916 56.7734 12.3896C56.4121 12.8633 56.2314 13.52 56.2314 14.3599C56.2314 15.1216 56.4048 15.7246 56.7515 16.1689C57.103 16.6084 57.5742 16.8281 58.165 16.8281C58.7461 16.8281 59.2173 16.6157 59.5786 16.1909C59.9399 15.7612 60.1206 15.2217 60.1206 14.5723Z" fill="#E2435C"/>
</svg>
