<svg width="32" height="32" viewBox="0 0 32 32" fill="none" xmlns="http://www.w3.org/2000/svg">
<g opacity="0.5">
<path fill-rule="evenodd" clip-rule="evenodd" d="M6.70834 7.75C6.70834 4.48232 9.35733 1.83333 12.625 1.83333C15.8927 1.83333 18.5417 4.48232 18.5417 7.75C18.5417 11.0177 15.8927 13.6667 12.625 13.6667C9.35733 13.6667 6.70834 11.0177 6.70834 7.75ZM9.78334 17.3333H9.76932C9.59692 17.3333 9.49508 17.3333 9.40665 17.3356C5.81724 17.4296 2.92965 20.3172 2.83566 23.9066C2.83334 23.9951 2.83334 24.0969 2.83334 24.2693V24.2693L2.83334 24.2833L2.83334 24.296C2.83334 24.4077 2.83334 24.4787 2.83497 24.541C2.90111 27.0669 4.93313 29.0989 7.459 29.165C7.52128 29.1667 7.59224 29.1667 7.70383 29.1667H7.70397H7.71668H17.5333H17.546H17.5462C17.6578 29.1667 17.7287 29.1667 17.791 29.165C20.3169 29.0989 22.3489 27.0669 22.415 24.541C22.4167 24.4787 22.4167 24.4078 22.4167 24.2962V24.296V24.2833V24.2693C22.4167 24.0969 22.4167 23.9951 22.4144 23.9066C22.3204 20.3172 19.4328 17.4296 15.8434 17.3356C15.7549 17.3333 15.6531 17.3333 15.4807 17.3333H15.4667H9.78334Z" fill="url(#paint0_linear_1_31)"/>
</g>
<path d="M26 9V17M22 13H30" stroke="url(#paint1_linear_1_31)" stroke-width="1.5" stroke-linecap="round" stroke-linejoin="round"/>
<defs>
<linearGradient id="paint0_linear_1_31" x1="12.625" y1="1.83333" x2="12.625" y2="29.1667" gradientUnits="userSpaceOnUse">
<stop stop-color="#269BE9"/>
<stop offset="1" stop-color="#6CD1F1"/>
</linearGradient>
<linearGradient id="paint1_linear_1_31" x1="26" y1="9" x2="26" y2="17" gradientUnits="userSpaceOnUse">
<stop stop-color="#269BE9"/>
<stop offset="1" stop-color="#6CD1F1"/>
</linearGradient>
</defs>
</svg>
