<svg width="106" height="106" viewBox="0 0 106 106" fill="none" xmlns="http://www.w3.org/2000/svg">
<g clip-path="url(#clip0_767_309)">
<path d="M104.31 81.8556L63.7943 11.68C61.5414 7.77792 57.5062 5.448 52.9999 5.448C48.4939 5.448 44.4585 7.77792 42.2056 11.68L1.68984 81.8554C-0.563279 85.758 -0.563279 90.4174 1.68984 94.3197C3.94295 98.222 7.97799 100.552 12.4842 100.552H93.5157C98.0217 100.552 102.057 98.2218 104.31 94.3199C106.563 90.4174 106.563 85.758 104.31 81.8556ZM98.932 91.2149C97.8014 93.173 95.7767 94.3419 93.5157 94.3419H12.4842C10.223 94.3419 8.19827 93.173 7.06788 91.2149C5.93749 89.2568 5.93749 86.919 7.06788 84.9609L47.584 14.7853C48.7144 12.8272 50.7392 11.6583 53.0002 11.6583C55.2609 11.6583 57.2859 12.8272 58.4163 14.7853L98.9322 84.9609C100.062 86.919 100.062 89.2568 98.932 91.2149Z" fill="#FAA10B"/>
<path d="M56.1046 36.4395H49.8945V67.4904H56.1046V36.4395Z" fill="#FAA10B"/>
<path d="M52.9996 73.7009C50.7166 73.7009 48.8594 75.5582 48.8594 77.8411C48.8594 80.1241 50.7166 81.9813 52.9996 81.9813C55.2823 81.9813 57.1398 80.1241 57.1398 77.8411C57.1398 75.5582 55.2825 73.7009 52.9996 73.7009Z" fill="#FAA10B"/>
</g>
<defs>
<clipPath id="clip0_767_309">
<rect width="106" height="106" fill="white"/>
</clipPath>
</defs>
</svg>
