<svg width="28" height="28" viewBox="0 0 28 28" fill="none" xmlns="http://www.w3.org/2000/svg">
<rect width="28" height="28" rx="8" fill="white"/>
<g clip-path="url(#clip0_75_291)">
<path d="M20.2614 14.3256L15.4471 19.1399C14.539 20.048 13.346 20.5021 12.1531 20.5021C10.9602 20.5021 9.76731 20.048 8.85917 19.1399C7.04287 17.3236 7.04287 14.3682 8.85917 12.5519L12.9256 8.48548C14.2421 7.16898 16.3841 7.169 17.7006 8.48545C19.0171 9.80198 19.0171 11.944 17.7006 13.2605L13.7218 17.2393C12.9052 18.0559 11.5764 18.0559 10.7598 17.2393C9.94314 16.4226 9.94314 15.0939 10.7598 14.2773L14.7177 10.3193C15.035 10.002 15.5494 10.002 15.8667 10.3193C16.184 10.6366 16.184 11.1511 15.8667 11.4684L11.9088 15.4263C11.7289 15.6062 11.7289 15.9103 11.9088 16.0902C12.0888 16.2701 12.3928 16.2701 12.5728 16.0902L16.5515 12.1114C17.2344 11.4285 17.2344 10.3174 16.5515 9.63448C15.8687 8.9516 14.7575 8.95158 14.0746 9.63451L10.0082 13.7009C8.82553 14.8837 8.82553 16.8081 10.0082 17.9908C11.191 19.1735 13.1154 19.1736 14.2981 17.9908L19.1124 13.1765C19.4297 12.8593 19.9442 12.8592 20.2615 13.1765C20.5788 13.4938 20.5787 14.0083 20.2614 14.3256Z" fill="#003750"/>
</g>
<defs>
<clipPath id="clip0_75_291">
<rect width="13" height="13" fill="white" transform="translate(7.5 7.5)"/>
</clipPath>
</defs>
</svg>
