<svg width="54" height="44" viewBox="0 0 54 44" fill="none" xmlns="http://www.w3.org/2000/svg">
<path d="M32.4092 7.55203C34.8267 9.06779 36.5219 11.6328 36.8306 14.6101C37.8165 15.0708 38.9107 15.3357 40.0709 15.3357C44.3062 15.3357 47.739 11.9029 47.739 7.66818C47.739 3.4328 44.3062 0 40.0709 0C35.876 0.001305 32.4732 3.37277 32.4092 7.55203ZM27.3856 23.2525C31.621 23.2525 35.0538 19.819 35.0538 15.5843C35.0538 11.3496 31.6203 7.91678 27.3856 7.91678C23.1509 7.91678 19.7161 11.3502 19.7161 15.585C19.7161 19.8197 23.1509 23.2525 27.3856 23.2525ZM30.6383 23.7751H24.1316C18.7178 23.7751 14.3134 28.1802 14.3134 33.5939V41.5512L14.3337 41.6758L14.8818 41.8474C20.0483 43.4617 24.5368 44 28.2313 44C35.4473 44 39.6298 41.9427 39.8875 41.8115L40.3997 41.5525H40.4545V33.5939C40.4565 28.1802 36.0521 23.7751 30.6383 23.7751ZM43.3249 15.859H36.8684C36.7986 18.4422 35.6959 20.7684 33.9517 22.4414C38.7639 23.8724 42.2848 28.3348 42.2848 33.6057V36.0578C48.6597 35.8242 52.3333 34.0174 52.5754 33.896L53.0876 33.6364H53.1424V25.6765C53.1424 20.2634 48.738 15.859 43.3249 15.859ZM13.9304 15.337C15.4305 15.337 16.8262 14.8992 18.0086 14.1534C18.3844 11.7019 19.6985 9.55977 21.5758 8.10078C21.5836 7.95723 21.5973 7.81499 21.5973 7.67013C21.5973 3.43476 18.1639 0.00195736 13.9304 0.00195736C9.69441 0.00195736 6.26226 3.43476 6.26226 7.67013C6.26226 11.9036 9.69441 15.337 13.9304 15.337ZM20.8169 22.4414C19.0813 20.7769 17.9825 18.4631 17.9022 15.8955C17.6627 15.8779 17.4259 15.859 17.1818 15.859H10.6758C5.26198 15.859 0.857605 20.2634 0.857605 25.6765V33.635L0.877832 33.7577L1.42593 33.9306C5.57061 35.2245 9.26963 35.8209 12.4825 36.0088V33.6057C12.4838 28.3348 16.0034 23.8737 20.8169 22.4414Z" fill="url(#paint0_linear_15_853)"/>
<defs>
<linearGradient id="paint0_linear_15_853" x1="8.70032" y1="38.5" x2="41.9445" y2="-3.5524" gradientUnits="userSpaceOnUse">
<stop stop-color="#42D872"/>
<stop offset="1" stop-color="#97E89C"/>
</linearGradient>
</defs>
</svg>
