<svg width="35" height="30" viewBox="0 0 35 30" fill="none" xmlns="http://www.w3.org/2000/svg">
<path d="M21.121 5.14911C22.7393 6.18258 23.8741 7.93145 24.0807 9.96143C24.7407 10.2755 25.4731 10.4562 26.2498 10.4562C29.085 10.4562 31.3829 8.11561 31.3829 5.2283C31.3829 2.34055 29.085 0 26.2498 0C23.4417 0.000889773 21.1638 2.29962 21.121 5.14911ZM17.7581 15.854C20.5933 15.854 22.8913 13.513 22.8913 10.6257C22.8913 7.73836 20.5929 5.3978 17.7581 5.3978C14.9234 5.3978 12.6241 7.73877 12.6241 10.6261C12.6241 13.5134 14.9234 15.854 17.7581 15.854ZM19.9355 16.2103H15.5799C11.9558 16.2103 9.00745 19.2138 9.00745 22.9049V28.3304L9.02104 28.4153L9.38795 28.5323C12.8465 29.633 15.8511 30 18.3242 30C23.1547 30 25.9545 28.5973 26.127 28.5078L26.4699 28.3313H26.5066V22.9049C26.5079 19.2138 23.5596 16.2103 19.9355 16.2103ZM28.4281 10.813H24.106C24.0593 12.5742 23.3211 14.1603 22.1535 15.301C25.3749 16.2766 27.7318 19.3192 27.7318 22.913V24.5849C31.9992 24.4256 34.4584 23.1937 34.6204 23.1109L34.9633 22.9339H35V17.5067C35 13.816 32.0516 10.813 28.4281 10.813ZM8.75107 10.457C9.75525 10.457 10.6895 10.1585 11.4811 9.65005C11.7326 7.97857 12.6123 6.51802 13.869 5.52326C13.8742 5.42538 13.8834 5.3284 13.8834 5.22963C13.8834 2.34188 11.585 0.00133456 8.75107 0.00133456C5.91545 0.00133456 3.61793 2.34188 3.61793 5.22963C3.61793 8.11609 5.91545 10.457 8.75107 10.457ZM13.361 15.301C12.1991 14.1661 11.4636 12.5885 11.4098 10.8378C11.2495 10.8258 11.091 10.813 10.9276 10.813H6.57241C2.94834 10.813 0 13.816 0 17.5067V22.933L0.0135402 23.0166L0.380443 23.1345C3.15494 24.0167 5.6311 24.4233 7.78183 24.5515V22.913C7.7827 19.3192 10.1388 16.2775 13.361 15.301Z" fill="white"/>
</svg>
