<?xml version="1.0" encoding="utf-8"?>
<!-- Generator: Adobe Illustrator 26.1.0, SVG Export Plug-In . SVG Version: 6.00 Build 0)  -->
<svg version="1.1" id="Layer_1" xmlns="http://www.w3.org/2000/svg" xmlns:xlink="http://www.w3.org/1999/xlink" x="0px" y="0px"
	 viewBox="0 0 1905.7 512" style="enable-background:new 0 0 1905.7 512;" xml:space="preserve">
<style type="text/css">
	.st0{fill:url(#SVGID_1_);}
	.st1{fill:#FFFFFF;stroke:#FFFFFF;stroke-width:8;stroke-miterlimit:10;}
	.st2{fill:url(#SVGID_00000161607803617215924250000003033031117346693284_);}
</style>
<linearGradient id="SVGID_1_" gradientUnits="userSpaceOnUse" x1="255.7539" y1="512" x2="255.7539" y2="-9.094947e-13">
	<stop  offset="0" style="stop-color:#259AE9"/>
	<stop  offset="1" style="stop-color:#6DD1F1"/>
</linearGradient>
<path class="st0" d="M435.9,74.4C387.8,26.4,323.8,0,255.7,0c-67.9,0-132,26.4-180.4,74.3C26.8,122.3,0.1,186.1,0,253.6v0.1v0
	c0,40.9,10.8,82.2,31.2,119.8L0.7,512l140-31.8c35.5,17.9,75,27.3,114.9,27.3h0.1c67.9,0,132-26.4,180.4-74.3
	c48.5-48,75.3-111.7,75.3-179.3C511.5,186.7,484.7,122.9,435.9,74.4z"/>
<path class="st1" d="M397.8,179.3l-9.5-7.4c-3.1-2.4-7.7-1.9-10.1,1.3L271.9,309.5c-2.1,2.8-6,3.4-8.8,1.3c-0.3-0.2-0.5-0.4-0.8-0.7
	l-7.1-6.5c-2.4-2.5-6.5-2.6-9-0.1c-0.2,0.2-0.5,0.5-0.7,0.7l-7.5,9.6c-2.4,3.3-2.1,7.8,0.7,10.7l26.2,25.1c2.4,2.5,6.4,2.5,8.9,0.1
	c0.2-0.2,0.5-0.5,0.7-0.8l124.5-159.7C401.5,186.2,400.9,181.7,397.8,179.3z M316.4,179.3l-9.5-7.4c-3.1-2.4-7.7-1.9-10.1,1.3
	L190.6,309.5c-2.1,2.8-6,3.4-8.8,1.3c-0.3-0.2-0.5-0.4-0.8-0.7l-43.5-42.5c-2.9-2.8-7.4-2.7-10.2,0.1l-8.4,8.6
	c-2.8,2.9-2.7,7.4,0.1,10.2l64.7,63.2c2.4,2.5,6.4,2.5,8.9,0.1c0.2-0.2,0.5-0.5,0.7-0.8l124.5-159.7
	C320.1,186.2,319.6,181.7,316.4,179.3z"/>
<linearGradient id="SVGID_00000132062052236014401590000007100930088325824179_" gradientUnits="userSpaceOnUse" x1="1277.9047" y1="369.4007" x2="1277.9047" y2="151.4793">
	<stop  offset="0" style="stop-color:#259AE9"/>
	<stop  offset="1" style="stop-color:#6DD1F1"/>
</linearGradient>
<path style="fill:url(#SVGID_00000132062052236014401590000007100930088325824179_);" d="M795.5,287.9c6.4,8.4,9.7,18,9.7,28.8
	c0,15.9-5.5,28.4-16.4,37.4c-11,9-26.3,13.5-46.1,13.5h-92.5V180.6h89.6c19.1,0,34.1,4.2,44.9,12.7c10.9,8.5,16.3,20.4,16.3,35.8
	c0,11-2.9,20.1-8.6,27.4c-5.7,7.3-13.4,12.3-22.9,15C780.4,274.1,789.1,279.5,795.5,287.9z M702.1,254.9h26.2
	c13.1,0,19.6-5.4,19.6-16.2c0-11.1-6.5-16.7-19.6-16.7h-26.2V254.9z M751.9,309.2c0-5.7-1.7-10-5.2-13c-3.4-3-8.4-4.5-14.7-4.5h-30
	v33.9h30.2C745.4,325.7,751.9,320.2,751.9,309.2z M880,171.4v196.2h-52V171.4H880z M1061.8,218.8v148.7h-52.2v-21.2
	c-4.4,6.7-10.5,12.2-18.3,16.3c-7.8,4.2-16.7,6.2-26.8,6.2c-17.3,0-31-5.7-41-17.1c-10-11.4-15-26.9-15-46.5v-86.4h51.7v79.8
	c0,8.5,2.3,15.2,6.8,20c4.5,4.9,10.5,7.3,17.9,7.3c7.6,0,13.6-2.4,18-7.3c4.4-4.9,6.6-11.5,6.6-20v-79.8H1061.8z M1232.8,303.7
	h-98.4c0.5,8.1,2.8,14.2,6.8,18.2s9.1,6,15.2,6c8.7,0,14.8-3.9,18.6-11.7h55.4c-2.3,10.3-6.8,19.4-13.4,27.4c-6.6,8-15,14.4-25.1,19
	c-10.1,4.6-21.2,6.9-33.4,6.9c-14.7,0-27.7-3.1-39.1-9.3c-11.4-6.2-20.3-15-26.8-26.5c-6.5-11.5-9.7-25-9.7-40.6
	c0-15.6,3.2-29,9.5-40.4c6.4-11.4,15.2-20.2,26.6-26.4c11.4-6.2,24.5-9.3,39.4-9.3c14.7,0,27.7,3,39,9c11.3,6,20.1,14.6,26.5,25.8
	c6.4,11.2,9.5,24.4,9.5,39.6C1233.6,295.5,1233.4,299.6,1232.8,303.7z M1180.6,278.5c0-6.4-2.1-11.4-6.4-15
	c-4.2-3.6-9.5-5.4-15.9-5.4s-11.6,1.7-15.6,5.2c-4.1,3.4-6.7,8.5-8,15.2H1180.6z M1342.6,323.3v44.3h-22.5c-38,0-57-18.8-57-56.5
	v-49h-18.3v-43.2h18.3v-36.1h52.2v36.1h27V262h-27v49.8c0,4.1,0.9,7,2.8,8.7c1.9,1.8,5,2.7,9.4,2.7H1342.6z M1370.6,197.5
	c-5.6-5-8.4-11.4-8.4-19c0-7.8,2.8-14.2,8.4-19.4c5.6-5.1,12.9-7.7,22.1-7.7c9,0,16.3,2.6,21.9,7.7c5.6,5.1,8.4,11.6,8.4,19.4
	c0,7.6-2.8,13.9-8.4,19c-5.6,5-12.9,7.6-21.9,7.6C1383.5,205,1376.1,202.5,1370.6,197.5z M1418.4,218.8v148.7h-52V218.8H1418.4z
	 M1449.2,252.8c6.4-11.5,15.2-20.3,26.6-26.5c11.4-6.2,24.4-9.3,39.1-9.3c18.9,0,34.8,5.2,47.7,15.5c12.9,10.3,21.2,24.8,24.9,43.3
	h-55.1c-3.2-9.7-9.4-14.6-18.6-14.6c-6.5,0-11.7,2.7-15.5,8.1c-3.8,5.4-5.7,13.3-5.7,23.7c0,10.4,1.9,18.4,5.7,23.9
	c3.8,5.5,9,8.2,15.5,8.2c9.4,0,15.6-4.9,18.6-14.6h55.1c-3.7,18.4-12,32.8-24.9,43.2c-12.9,10.4-28.8,15.6-47.7,15.6
	c-14.7,0-27.7-3.1-39.1-9.3c-11.4-6.2-20.3-15-26.6-26.5c-6.4-11.5-9.5-25-9.5-40.6C1439.6,277.7,1442.8,264.2,1449.2,252.8z
	 M1702.1,367.5l-41.1-61v61h-52V171.4h52v105.8l41.1-58.3h62.3l-58.6,74.8l59.7,74H1702.1z M1808,362.6
	c-10.5-4.5-18.8-10.7-24.9-18.6c-6.1-7.9-9.5-16.7-10.2-26.6h50.4c0.7,4.8,2.9,8.5,6.6,11.1c3.7,2.7,8.3,4,13.8,4
	c4.2,0,7.6-0.9,10.1-2.7c2.5-1.8,3.7-4.1,3.7-6.9c0-3.7-2-6.4-6.1-8.2c-4.1-1.8-10.8-3.7-20.1-5.8c-10.6-2.1-19.4-4.5-26.5-7.2
	c-7.1-2.7-13.2-7-18.4-13c-5.2-6-7.8-14.1-7.8-24.4c0-8.8,2.4-16.8,7.2-24c4.8-7.2,11.8-12.9,21.1-17.1c9.3-4.2,20.5-6.4,33.5-6.4
	c19.4,0,34.7,4.8,45.9,14.3c11.1,9.5,17.6,22.1,19.4,37.6h-46.9c-0.9-4.8-3-8.4-6.2-11c-3.3-2.6-7.6-3.8-13.1-3.8
	c-4.2,0-7.5,0.8-9.7,2.4c-2.2,1.6-3.3,3.8-3.3,6.6c0,3.5,2,6.2,6.1,8.1c4.1,1.9,10.6,3.8,19.6,5.7c10.8,2.3,19.8,4.9,26.9,7.7
	c7.2,2.8,13.4,7.4,18.8,13.7c5.4,6.3,8.1,14.8,8.1,25.6c0,8.7-2.5,16.4-7.6,23.3c-5,6.9-12.2,12.3-21.5,16.3c-9.3,4-20.2,6-32.7,6
	C1830.5,369.4,1818.5,367.1,1808,362.6z"/>
</svg>
