<svg width="46" height="44" viewBox="0 0 46 44" fill="none" xmlns="http://www.w3.org/2000/svg">
<path fill-rule="evenodd" clip-rule="evenodd" d="M15.8291 34.3195L20.2395 40.3942C20.6399 40.9456 20.5697 41.7262 20.0835 42.1937L18.5667 43.6525C18.2958 43.9129 17.9698 44.0288 17.6055 43.9939C17.2413 43.959 16.9413 43.7822 16.7177 43.4755L11.828 36.7675L15.8291 34.3195ZM40.023 18.7291H44.5148C45.2333 18.7291 45.8147 18.1072 45.8132 17.3467C45.8117 16.5853 45.2259 15.97 44.5083 15.97H40.0165C39.298 15.97 38.7166 16.5919 38.7181 17.3522C38.7195 18.1139 39.3053 18.7291 40.023 18.7291ZM34.6913 6.19507L36.9372 2.07244C37.2961 1.4138 37.0863 0.56852 36.4647 0.186373C35.8441 -0.195185 35.0452 0.0274393 34.686 0.68686L32.44 4.80949C32.0812 5.46812 32.291 6.31341 32.9125 6.69556C33.5332 7.07711 34.332 6.85449 34.6913 6.19507ZM39.8882 11.1333L43.576 8.87688C44.202 8.49385 44.4164 7.64571 44.055 6.98217C43.6936 6.31872 42.8933 6.09147 42.2672 6.4745L38.5795 8.73102C37.9535 9.11405 37.7391 9.96219 38.1005 10.6257C38.4619 11.2891 39.2622 11.5163 39.8882 11.1333ZM34.0882 17.342L38.4379 25.3264C39.2546 26.8254 38.7654 28.76 37.351 29.6256C36.031 30.4332 34.3533 30.0356 33.4713 28.7607C28.6566 27.9845 22.3848 28.8183 16.1485 31.3948L10.153 20.3895C15.3785 15.9587 19.2075 10.6476 20.9807 5.84054C20.3578 4.38704 20.8696 2.62748 22.1998 1.81355C23.6143 0.948013 25.4397 1.46649 26.2564 2.96549L30.606 10.9499C30.7298 10.8485 30.8614 10.7546 31.0007 10.6694C32.6814 9.64098 34.8307 10.2513 35.801 12.0325C36.7714 13.8138 36.1956 16.0916 34.5148 17.12C34.3756 17.2052 34.233 17.2791 34.0882 17.342ZM14.6409 32.559L8.35858 21.0272L3.36427 24.0831C0.329522 25.9399 -0.719776 30.0906 1.03224 33.3067C2.78434 36.5228 6.7008 37.635 9.73554 35.7783L14.7299 32.7224L14.6409 32.559Z" fill="url(#paint0_linear_804_1698)"/>
<defs>
<linearGradient id="paint0_linear_804_1698" x1="0.183594" y1="44.0306" x2="53.4164" y2="13.0212" gradientUnits="userSpaceOnUse">
<stop stop-color="#42D872"/>
<stop offset="1" stop-color="#97E89C"/>
</linearGradient>
</defs>
</svg>
