<svg width="54" height="44" viewBox="0 0 54 44" fill="none" xmlns="http://www.w3.org/2000/svg">
<path d="M32.411 7.55203C34.8285 9.06779 36.5237 11.6328 36.8323 14.6101C37.8183 15.0708 38.9125 15.3357 40.0726 15.3357C44.308 15.3357 47.7408 11.9029 47.7408 7.66818C47.7408 3.4328 44.308 0 40.0726 0C35.8777 0.001305 32.4749 3.37277 32.411 7.55203ZM27.3874 23.2525C31.6228 23.2525 35.0556 19.819 35.0556 15.5843C35.0556 11.3496 31.6221 7.91678 27.3874 7.91678C23.1527 7.91678 19.7179 11.3502 19.7179 15.585C19.7179 19.8197 23.1527 23.2525 27.3874 23.2525ZM30.6401 23.7751H24.1334C18.7196 23.7751 14.3152 28.1802 14.3152 33.5939V41.5512L14.3354 41.6758L14.8835 41.8474C20.05 43.4617 24.5386 44 28.233 44C35.449 44 39.6315 41.9427 39.8893 41.8115L40.4015 41.5525H40.4563V33.5939C40.4583 28.1802 36.0539 23.7751 30.6401 23.7751ZM43.3267 15.859H36.8702C36.8004 18.4422 35.6976 20.7684 33.9535 22.4414C38.7657 23.8724 42.2866 28.3348 42.2866 33.6057V36.0578C48.6615 35.8242 52.3351 34.0174 52.5771 33.896L53.0894 33.6364H53.1442V25.6765C53.1442 20.2634 48.7398 15.859 43.3267 15.859ZM13.9322 15.337C15.4323 15.337 16.828 14.8992 18.0103 14.1534C18.3862 11.7019 19.7003 9.55977 21.5775 8.10078C21.5854 7.95723 21.5991 7.81499 21.5991 7.67013C21.5991 3.43476 18.1656 0.00195736 13.9322 0.00195736C9.69618 0.00195736 6.26403 3.43476 6.26403 7.67013C6.26403 11.9036 9.69618 15.337 13.9322 15.337ZM20.8187 22.4414C19.083 20.7769 17.9842 18.4631 17.904 15.8955C17.6645 15.8779 17.4276 15.859 17.1836 15.859H10.6775C5.26375 15.859 0.859375 20.2634 0.859375 25.6765V33.635L0.879602 33.7577L1.4277 33.9306C5.57238 35.2245 9.2714 35.8209 12.4843 36.0088V33.6057C12.4856 28.3348 16.0052 23.8737 20.8187 22.4414Z" fill="url(#paint0_linear_804_1289)"/>
<defs>
<linearGradient id="paint0_linear_804_1289" x1="8.70209" y1="38.5" x2="41.9463" y2="-3.5524" gradientUnits="userSpaceOnUse">
<stop stop-color="#42D872"/>
<stop offset="1" stop-color="#97E89C"/>
</linearGradient>
</defs>
</svg>
