<svg width="56" height="23" viewBox="0 0 56 23" fill="none" xmlns="http://www.w3.org/2000/svg">
<rect y="0.5" width="56" height="22" rx="6" fill="#E1F4DF"/>
<g clip-path="url(#clip0_842_662)">
<path d="M12.459 13.7951L10.6229 15.6312C10.6229 15.6312 10.6229 15.6313 10.6229 15.6313C10.6229 15.6313 10.6229 15.6313 10.6228 15.6313C9.86357 16.3906 8.62808 16.3907 7.86873 15.6313C7.50087 15.2635 7.29833 14.7744 7.29833 14.2542C7.29833 13.7341 7.50087 13.2451 7.8686 12.8772C7.86864 12.8772 7.86869 12.8772 7.86873 12.8771L9.70479 11.041C9.95827 10.7875 9.95827 10.3764 9.70475 10.123C9.45127 9.86949 9.04022 9.86949 8.7867 10.123L6.95064 11.9591C6.95051 11.9592 6.95038 11.9594 6.95025 11.9595C6.33748 12.5725 6 13.3875 6 14.2542C6 15.1212 6.33761 15.9363 6.95068 16.5494C7.58349 17.1821 8.41464 17.4985 9.24583 17.4985C10.077 17.4985 10.9082 17.1821 11.5409 16.5494C11.541 16.5494 11.541 16.5493 11.541 16.5493L13.377 14.7132C13.6305 14.4597 13.6305 14.0486 13.377 13.7951C13.1236 13.5416 12.7125 13.5416 12.459 13.7951Z" fill="#35BE5F"/>
<path d="M18.0009 8.74586C18.0009 7.87888 17.6632 7.06379 17.0502 6.45072C15.7846 5.18519 13.7254 5.18523 12.4599 6.45072C12.4599 6.4508 12.4598 6.45085 12.4597 6.45093L10.6237 8.2869C10.3702 8.54038 10.3702 8.95148 10.6237 9.20495C10.7505 9.33176 10.9166 9.39511 11.0828 9.39511C11.2489 9.39511 11.4151 9.33171 11.5418 9.20495L13.3778 7.36898C13.3778 7.3689 13.3779 7.36885 13.378 7.36877C14.1373 6.6095 15.3728 6.60946 16.1321 7.36877C16.4999 7.73663 16.7026 8.22571 16.7026 8.74586C16.7026 9.26597 16.5 9.75497 16.1323 10.1228L16.1321 10.123L14.2961 11.9591C14.0426 12.2125 14.0426 12.6236 14.2961 12.8771C14.4229 13.0039 14.589 13.0673 14.7551 13.0673C14.9213 13.0673 15.0874 13.0039 15.2142 12.8771L17.0502 11.041C17.0503 11.0409 17.0505 11.0407 17.0506 11.0406C17.6634 10.4276 18.0009 9.61263 18.0009 8.74586Z" fill="#35BE5F"/>
<path d="M9.70577 13.7951C9.83253 13.9219 9.99867 13.9853 10.1648 13.9853C10.3309 13.9853 10.4971 13.9219 10.6238 13.7951L14.296 10.1229C14.5495 9.86945 14.5495 9.4584 14.296 9.20488C14.0425 8.9514 13.6315 8.9514 13.378 9.20488L9.70577 12.877C9.45224 13.1306 9.45224 13.5417 9.70577 13.7951Z" fill="#35BE5F"/>
</g>
<path d="M29.6895 16.5H25.0371V8.09766H26.4316V15.3223H29.6895V16.5ZM32.3379 16.5H30.9023V8.09766H32.3379V16.5ZM41.5371 16.5H40.0137L36 10.3242C35.8984 10.168 35.8145 10.0059 35.748 9.83789H35.7129C35.7441 10.0176 35.7598 10.4023 35.7598 10.9922V16.5H34.4121V8.09766H36.0352L39.9141 14.127C40.0781 14.377 40.1836 14.5488 40.2305 14.6426H40.2539C40.2148 14.4199 40.1953 14.043 40.1953 13.5117V8.09766H41.5371V16.5ZM49.9805 16.5H48.1641L45.2402 12.6562C45.1309 12.5117 45.0645 12.4141 45.041 12.3633H45.0176V16.5H43.623V8.09766H45.0176V12.0469H45.041C45.0879 11.9609 45.1543 11.8652 45.2402 11.7598L48.0586 8.09766H49.7285L46.4297 12.1289L49.9805 16.5Z" fill="#35BE5F"/>
<defs>
<clipPath id="clip0_842_662">
<rect width="12" height="12" fill="white" transform="translate(6 5.5)"/>
</clipPath>
</defs>
</svg>
