<svg width="59" height="23" viewBox="0 0 59 23" fill="none" xmlns="http://www.w3.org/2000/svg">
<rect y="0.5" width="59" height="22" rx="6" fill="#E1F4DF"/>
<g clip-path="url(#clip0_842_669)">
<path d="M12 17.5C9.93201 17.5 8.25 15.818 8.25 13.75V8.5C8.25 8.22351 8.47403 8.00003 8.74997 8.00003C9.026 8.00003 9.25003 8.22351 9.25003 8.5V13.75C9.25003 15.266 10.4835 16.5 12 16.5C13.5165 16.5 14.75 15.266 14.75 13.75V8.24997C14.75 7.285 13.965 6.50003 13 6.50003C12.035 6.50003 11.25 7.285 11.25 8.24997V13.25C11.25 13.6635 11.5865 14 12 14C12.4135 14 12.75 13.6635 12.75 13.25V8.5C12.75 8.22351 12.974 8.00003 13.25 8.00003C13.526 8.00003 13.75 8.22351 13.75 8.5V13.25C13.75 14.215 12.965 15 12 15C11.035 15 10.25 14.215 10.25 13.25V8.24997C10.25 6.73404 11.4835 5.5 13 5.5C14.5165 5.5 15.75 6.73404 15.75 8.24997V13.75C15.75 15.818 14.068 17.5 12 17.5Z" fill="#35BE5F"/>
</g>
<path d="M29.5723 9.28125H26.4316V11.8066H29.3262V12.9844H26.4316V16.5H25.0371V8.09766H29.5723V9.28125ZM32.502 16.5H31.0664V8.09766H32.502V16.5ZM39.2285 16.5H34.5762V8.09766H35.9707V15.3223H39.2285V16.5ZM45.1641 16.5H40.4473V8.09766H44.9766V9.28125H41.8418V11.6602H44.7305V12.8379H41.8418V15.3223H45.1641V16.5ZM46.2715 16.166V14.7305C46.4004 14.8477 46.5527 14.9531 46.7285 15.0469C46.9082 15.1406 47.0977 15.2207 47.2969 15.2871C47.4961 15.3496 47.6953 15.3984 47.8945 15.4336C48.0938 15.4688 48.2773 15.4863 48.4453 15.4863C49.0312 15.4863 49.4668 15.3887 49.752 15.1934C50.041 14.998 50.1855 14.7148 50.1855 14.3438C50.1855 14.1445 50.1367 13.9727 50.0391 13.8281C49.9453 13.6797 49.8125 13.5449 49.6406 13.4238C49.4688 13.3027 49.2656 13.1875 49.0312 13.0781C48.8008 12.9648 48.5527 12.8477 48.2871 12.7266C48.002 12.5742 47.7363 12.4199 47.4902 12.2637C47.2441 12.1074 47.0293 11.9355 46.8457 11.748C46.666 11.5566 46.5234 11.3418 46.418 11.1035C46.3164 10.8652 46.2656 10.5859 46.2656 10.2656C46.2656 9.87109 46.3535 9.5293 46.5293 9.24023C46.709 8.94727 46.9434 8.70703 47.2324 8.51953C47.5254 8.32812 47.8574 8.1875 48.2285 8.09766C48.5996 8.00391 48.9785 7.95703 49.3652 7.95703C50.2441 7.95703 50.8848 8.05664 51.2871 8.25586V9.63281C50.8105 9.28906 50.1973 9.11719 49.4473 9.11719C49.2402 9.11719 49.0332 9.13672 48.8262 9.17578C48.623 9.21484 48.4395 9.2793 48.2754 9.36914C48.1152 9.45898 47.9844 9.57422 47.8828 9.71484C47.7812 9.85547 47.7305 10.0254 47.7305 10.2246C47.7305 10.4121 47.7695 10.5742 47.8477 10.7109C47.9258 10.8477 48.0391 10.9727 48.1875 11.0859C48.3398 11.1992 48.5234 11.3105 48.7383 11.4199C48.957 11.5254 49.209 11.6406 49.4941 11.7656C49.7871 11.918 50.0625 12.0781 50.3203 12.2461C50.582 12.4141 50.8105 12.5996 51.0059 12.8027C51.2051 13.0059 51.3613 13.2324 51.4746 13.4824C51.5918 13.7285 51.6504 14.0098 51.6504 14.3262C51.6504 14.752 51.5645 15.1113 51.3926 15.4043C51.2207 15.6973 50.9883 15.9355 50.6953 16.1191C50.4062 16.3027 50.0723 16.4355 49.6934 16.5176C49.3145 16.5996 48.9141 16.6406 48.4922 16.6406C48.3516 16.6406 48.1777 16.6289 47.9707 16.6055C47.7676 16.5859 47.5586 16.5547 47.3438 16.5117C47.1289 16.4727 46.9258 16.4238 46.7344 16.3652C46.543 16.3066 46.3887 16.2402 46.2715 16.166Z" fill="#35BE5F"/>
<defs>
<clipPath id="clip0_842_669">
<rect width="12" height="12" fill="white" transform="translate(6 5.5)"/>
</clipPath>
</defs>
</svg>
