<svg width="28" height="28" viewBox="0 0 28 28" fill="none" xmlns="http://www.w3.org/2000/svg">
<rect width="28" height="28" rx="8" fill="white"/>
<path d="M17.8182 7H10.1818C8.42736 7 7 8.42736 7 10.1818V15.2727C7 16.8089 8.09518 18.0944 9.54545 18.3903V20.3636C9.54545 20.5985 9.67464 20.8142 9.88145 20.9249C9.97564 20.9752 10.0787 21 10.1818 21C10.3053 21 10.4281 20.9637 10.535 20.8931L14.1928 18.4545H17.8182C19.5726 18.4545 21 17.0272 21 15.2727V10.1818C21 8.42736 19.5726 7 17.8182 7ZM13.6468 17.2887L10.8182 19.1743V17.8182C10.8182 17.4669 10.5331 17.1818 10.1818 17.1818C9.12927 17.1818 8.27273 16.3253 8.27273 15.2727V10.1818C8.27273 9.12927 9.12927 8.27273 10.1818 8.27273H17.8182C18.8707 8.27273 19.7273 9.12927 19.7273 10.1818V15.2727C19.7273 16.3253 18.8707 17.1818 17.8182 17.1818H14C13.9555 17.1812 13.8918 17.1856 13.8193 17.2073C13.7429 17.2295 13.685 17.2626 13.6468 17.2887Z" fill="#003750"/>
<path d="M17.8182 10.8182H10.1818C9.83055 10.8182 9.54545 11.1033 9.54545 11.4545C9.54545 11.8058 9.83055 12.0909 10.1818 12.0909H17.8182C18.1695 12.0909 18.4545 11.8058 18.4545 11.4545C18.4545 11.1033 18.1695 10.8182 17.8182 10.8182Z" fill="#003750"/>
<path d="M16.5455 13.3636H11.4545C11.1033 13.3636 10.8182 13.6487 10.8182 14C10.8182 14.3513 11.1033 14.6364 11.4545 14.6364H16.5455C16.8967 14.6364 17.1818 14.3513 17.1818 14C17.1818 13.6487 16.8967 13.3636 16.5455 13.3636Z" fill="#003750"/>
</svg>
