<svg width="60" height="60" viewBox="0 0 60 60" fill="none" xmlns="http://www.w3.org/2000/svg"><circle cx="30" cy="30" r="27.5" fill="#F5F7FA"/><path d="M43.75 21.25H16.25C15.285 21.25 14.5 22.035 14.5 23V43C14.5 43.965 15.285 44.75 16.25 44.75H23.625L27.5 48.625C28.125 49.5 29.375 49.5 30 48.625L33.875 44.75H43.75C44.715 44.75 45.5 43.965 45.5 43V23C45.5 22.035 44.715 21.25 43.75 21.25Z" fill="white" stroke="#3F51B5" stroke-width="1.5" stroke-linecap="round" stroke-linejoin="round"/><path d="M20.5 28.25H39.5" stroke="#3F51B5" stroke-width="1.5" stroke-linecap="round" stroke-linejoin="round"/><path d="M20.5 33.75H35" stroke="#3F51B5" stroke-width="1.5" stroke-linecap="round" stroke-linejoin="round"/><path d="M20.5 39.25H30" stroke="#3F51B5" stroke-width="1.5" stroke-linecap="round" stroke-linejoin="round"/><path d="M51.25 31.25C51.25 31.25 43.75 35 43.75 41.25V21.25C43.75 21.25 51.25 26.25 51.25 31.25Z" fill="#C5CAE9" stroke="#3F51B5" stroke-width="1.5" stroke-linecap="round" stroke-linejoin="round"/></svg> 