<svg width="18" height="18" viewBox="0 0 18 18" fill="none" xmlns="http://www.w3.org/2000/svg">
<path fill-rule="evenodd" clip-rule="evenodd" d="M4.0013 4.00002V3.16669C4.0013 1.78598 5.12059 0.666687 6.5013 0.666687H14.8346C16.2154 0.666687 17.3346 1.78598 17.3346 3.16669V11.5C17.3346 12.8808 16.2154 14 14.8346 14H14.0013V14.8334C14.0013 16.2141 12.882 17.3333 11.5013 17.3333H3.16797C1.78726 17.3333 0.667969 16.2141 0.667969 14.8334V6.50002C0.667969 5.11931 1.78726 4.00002 3.16797 4.00002H4.0013ZM5.66797 4.00002V3.16669C5.66797 2.70645 6.04106 2.33335 6.5013 2.33335H14.8346C15.2949 2.33335 15.668 2.70645 15.668 3.16669V11.5C15.668 11.9603 15.2949 12.3334 14.8346 12.3334H14.0013V6.50002C14.0013 5.11931 12.882 4.00002 11.5013 4.00002H5.66797Z" fill="#809BA8"/>
</svg>
