<svg width="22" height="23" viewBox="0 0 22 23" fill="none" xmlns="http://www.w3.org/2000/svg">
<rect y="0.5" width="22" height="22" rx="6" fill="black" fill-opacity="0.15"/>
<g clip-path="url(#clip0_804_2212)">
<path d="M11 17.5C8.93201 17.5 7.25 15.818 7.25 13.75V8.5C7.25 8.22351 7.47403 8.00003 7.74997 8.00003C8.026 8.00003 8.25003 8.22351 8.25003 8.5V13.75C8.25003 15.266 9.48352 16.5 11 16.5C12.5165 16.5 13.75 15.266 13.75 13.75V8.24997C13.75 7.285 12.965 6.50003 12 6.50003C11.035 6.50003 10.25 7.285 10.25 8.24997V13.25C10.25 13.6635 10.5865 14 11 14C11.4135 14 11.75 13.6635 11.75 13.25V8.5C11.75 8.22351 11.974 8.00003 12.25 8.00003C12.526 8.00003 12.75 8.22351 12.75 8.5V13.25C12.75 14.215 11.965 15 11 15C10.035 15 9.24997 14.215 9.24997 13.25V8.24997C9.24997 6.73404 10.4835 5.5 12 5.5C13.5165 5.5 14.75 6.73404 14.75 8.24997V13.75C14.75 15.818 13.068 17.5 11 17.5Z" fill="black" fill-opacity="0.35"/>
</g>
<defs>
<clipPath id="clip0_804_2212">
<rect width="12" height="12" fill="white" transform="translate(5 5.5)"/>
</clipPath>
</defs>
</svg>
