<svg width="44" height="44" viewBox="0 0 44 44" fill="none" xmlns="http://www.w3.org/2000/svg">
<path d="M41.6836 7C40.4041 7 39.3671 8.03717 39.3671 9.31649V10.1646H4.63302V9.31649C4.63302 8.03708 3.59585 7 2.31653 7C1.03721 7 4.57764e-05 8.03708 4.57764e-05 9.31649V36.0351C4.57764e-05 36.2961 0.211637 36.5077 0.472617 36.5077H4.16045C4.42143 36.5077 4.63302 36.2961 4.63302 36.0351V27.2883H39.367V36.0351C39.367 36.2961 39.5786 36.5077 39.8396 36.5077H43.5274C43.7884 36.5077 44 36.2961 44 36.0351V9.31649C44 8.03708 42.963 7 41.6836 7ZM13.2693 18.7265V24.4529H4.63302V18.7265H13.2693V13.0001H22.0001V18.7265H30.7308V13.0001H39.3671V18.7265H30.7308V24.4529H22.0001V18.7265H13.2693Z" fill="url(#paint0_linear_15_865)"/>
<defs>
<linearGradient id="paint0_linear_15_865" x1="6.50003" y1="32.4839" x2="25.6178" y2="3.51702" gradientUnits="userSpaceOnUse">
<stop stop-color="#42D872"/>
<stop offset="1" stop-color="#97E89C"/>
</linearGradient>
</defs>
</svg>
