<svg width="35" height="35" viewBox="0 0 35 35" fill="none" xmlns="http://www.w3.org/2000/svg">
<path d="M30.7877 4.46903C30.776 4.41202 30.7482 4.35956 30.7077 4.31777C30.6671 4.27599 30.6155 4.24663 30.5589 4.23313C26.7839 3.31016 18.0615 6.5992 13.3358 11.323C12.4929 12.159 11.7245 13.067 11.0393 14.0364C9.58201 13.9075 8.12473 14.0152 6.88272 14.5566C3.3784 16.0989 2.3581 20.1234 2.07387 21.8546C2.05774 21.9494 2.06383 22.0466 2.09163 22.1386C2.11944 22.2306 2.16821 22.3149 2.23412 22.3849C2.30002 22.4548 2.38126 22.5085 2.47145 22.5418C2.56163 22.575 2.6583 22.5869 2.75385 22.5765L8.38125 21.9558C8.38527 22.3801 8.41087 22.8039 8.45795 23.2255C8.48627 23.5184 8.61625 23.792 8.82533 23.999L11.0045 26.173C11.2116 26.3818 11.4852 26.5117 11.7779 26.5404C12.1972 26.5873 12.6187 26.6129 13.0406 26.6171L12.4231 32.2374C12.4128 32.3329 12.4248 32.4295 12.4581 32.5196C12.4914 32.6097 12.5451 32.6909 12.615 32.7568C12.685 32.8227 12.7692 32.8714 12.8612 32.8993C12.9531 32.9272 13.0502 32.9333 13.145 32.9173C14.873 32.6402 18.9045 31.6199 20.4379 28.1156C20.9793 26.8736 21.0901 25.4234 20.9651 23.9732C21.9369 23.2879 22.8472 22.5193 23.6856 21.6761C28.4262 16.9594 31.6965 8.4316 30.7877 4.46903ZM18.9561 16.0493C18.5232 15.6167 18.2284 15.0655 18.1088 14.4653C17.9893 13.8651 18.0504 13.243 18.2845 12.6775C18.5186 12.1121 18.9152 11.6288 19.424 11.2888C19.9328 10.9487 20.531 10.7672 21.143 10.7672C21.7549 10.7672 22.3532 10.9487 22.862 11.2888C23.3708 11.6288 23.7673 12.1121 24.0014 12.6775C24.2355 13.243 24.2967 13.8651 24.1771 14.4653C24.0576 15.0655 23.7627 15.6167 23.3299 16.0493C23.0428 16.3368 22.7019 16.5648 22.3267 16.7204C21.9514 16.876 21.5492 16.9561 21.143 16.9561C20.7367 16.9561 20.3345 16.876 19.9593 16.7204C19.584 16.5648 19.2431 16.3368 18.9561 16.0493Z" fill="white"/>
<path d="M10.8565 27.7453C10.5032 28.0992 9.9366 28.2371 9.25459 28.3551C7.72232 28.6162 6.36926 27.2921 6.64451 25.7431C6.74958 25.1558 7.06029 24.3326 7.25368 24.1393C7.29595 24.0978 7.32408 24.0441 7.33409 23.9857C7.34409 23.9274 7.33546 23.8674 7.30941 23.8142C7.28336 23.761 7.24123 23.7174 7.18899 23.6896C7.13674 23.6617 7.07705 23.651 7.01839 23.659C6.16153 23.7639 5.36438 24.1523 4.75383 24.7626C3.23832 26.2794 3.09521 31.9076 3.09521 31.9076C3.09521 31.9076 8.72664 31.7645 10.2422 30.2477C10.8543 29.6377 11.2433 28.8393 11.3464 27.9812C11.3702 27.7118 11.0421 27.5512 10.8565 27.7453Z" fill="white"/>
</svg>
