<svg width="22" height="23" viewBox="0 0 22 23" fill="none" xmlns="http://www.w3.org/2000/svg">
<rect y="0.5" width="22" height="22" rx="6" fill="black" fill-opacity="0.15"/>
<g clip-path="url(#clip0_804_2216)">
<path d="M11.459 13.7951L9.62292 15.6312C9.62292 15.6312 9.62293 15.6312 9.62288 15.6312C9.62288 15.6312 9.62288 15.6313 9.62284 15.6313C8.86357 16.3906 7.62808 16.3906 6.86873 15.6313C6.50087 15.2634 6.29833 14.7743 6.29833 14.2542C6.29833 13.734 6.50087 13.245 6.8686 12.8772C6.86864 12.8771 6.86869 12.8771 6.86873 12.8771L8.70479 11.041C8.95827 10.7874 8.95827 10.3764 8.70475 10.1229C8.45127 9.86943 8.04022 9.86943 7.7867 10.1229L5.95064 11.959C5.95051 11.9591 5.95038 11.9593 5.95025 11.9594C5.33748 12.5724 5 13.3874 5 14.2542C5 15.1211 5.33761 15.9362 5.95068 16.5493C6.58349 17.1821 7.41464 17.4985 8.24583 17.4985C9.07702 17.4985 9.90821 17.1821 10.5409 16.5493C10.541 16.5493 10.541 16.5492 10.541 16.5492L12.377 14.7131C12.6305 14.4596 12.6305 14.0486 12.377 13.7951C12.1236 13.5416 11.7125 13.5416 11.459 13.7951Z" fill="black" fill-opacity="0.35"/>
<path d="M16.997 8.7458C16.997 7.87882 16.6593 7.06373 16.0463 6.45065C14.7807 5.18513 12.7215 5.18517 11.456 6.45065C11.456 6.45074 11.4559 6.45078 11.4558 6.45087L9.61983 8.28684C9.36631 8.54032 9.36631 8.95141 9.61983 9.20489C9.74663 9.3317 9.91273 9.39505 10.0789 9.39505C10.245 9.39505 10.4112 9.33165 10.5379 9.20489L12.3739 7.36892C12.3739 7.36883 12.374 7.36879 12.3741 7.3687C13.1334 6.60944 14.3689 6.6094 15.1282 7.3687C15.496 7.73657 15.6987 8.22565 15.6987 8.7458C15.6987 9.26591 15.4961 9.75491 15.1283 10.1228L15.1282 10.1229L13.2922 11.959C13.0387 12.2125 13.0387 12.6235 13.2922 12.877C13.419 13.0038 13.5851 13.0672 13.7512 13.0672C13.9173 13.0672 14.0835 13.0038 14.2103 12.877L16.0463 11.0409C16.0464 11.0408 16.0466 11.0406 16.0467 11.0405C16.6595 10.4275 16.997 9.61257 16.997 8.7458Z" fill="black" fill-opacity="0.35"/>
<path d="M8.70577 13.7951C8.83253 13.9218 8.99867 13.9852 9.16477 13.9852C9.33091 13.9852 9.49706 13.9218 9.62382 13.7951L13.296 10.1229C13.5495 9.86939 13.5495 9.45834 13.296 9.20482C13.0425 8.95134 12.6315 8.95134 12.378 9.20482L8.70577 12.877C8.45224 13.1305 8.45224 13.5416 8.70577 13.7951Z" fill="black" fill-opacity="0.35"/>
</g>
<defs>
<clipPath id="clip0_804_2216">
<rect width="12" height="12" fill="white" transform="translate(5 5.5)"/>
</clipPath>
</defs>
</svg>
