<svg width="330" height="211" viewBox="0 0 330 211" fill="none" xmlns="http://www.w3.org/2000/svg">
<path d="M21.6037 210.595C21.6037 210.595 -16.2988 170.279 9.48657 123.316C29.382 87.0933 77.5019 93.5484 102.197 108.865C112.718 115.388 135.311 103.422 163.974 67.0757C197.245 24.8814 326.049 50.6231 303.804 131.244C293.036 170.256 336.57 171.673 314.392 210.673L21.6037 210.595Z" fill="white"/>
<path d="M291.395 210.28H195.234C185.612 210.28 177.8 202.475 177.8 192.838V109.54C177.8 100.701 179.531 92.1089 182.948 84.0231C186.253 76.2185 190.974 69.2124 196.987 63.1959C203.001 57.1794 210.004 52.4561 217.804 49.1499C224.773 46.2035 223.099 44.4154 230.652 43.9993C231.866 43.9318 242.083 43.988 243.309 43.988C252.144 43.988 260.731 45.7199 268.813 49.1386C276.614 52.4449 283.617 57.1681 289.63 63.1846C295.644 69.2011 300.365 76.2073 303.669 84.0119C307.086 92.1089 308.818 100.701 308.818 109.54V192.838C308.818 202.464 301.017 210.28 291.395 210.28ZM198.269 113.015H288.349V109.54C288.349 84.6979 268.15 64.4779 243.309 64.4779C218.468 64.4779 198.269 84.6979 198.269 109.54V113.015Z" fill="#3196C1"/>
<path d="M279.795 210.28H183.633C174.012 210.28 166.2 202.475 166.2 192.837V109.54C166.2 100.7 167.931 92.1087 171.348 84.023C174.652 76.2184 179.373 69.2122 185.387 63.1957C191.4 57.1792 198.403 52.456 206.204 49.1497C214.286 45.731 222.873 43.9991 231.708 43.9991C240.543 43.9991 249.131 45.731 257.213 49.1497C265.013 52.456 272.016 57.1792 278.03 63.1957C284.043 69.2122 288.764 76.2184 292.069 84.023C295.486 92.1087 297.217 100.689 297.217 109.54V192.837C297.217 202.464 289.416 210.28 279.795 210.28ZM186.668 113.015H276.748V109.54C276.748 84.6977 256.549 64.4777 231.708 64.4777C206.867 64.4777 186.668 84.6977 186.668 109.54V113.015Z" fill="#53BDEB"/>
<path d="M239.813 145.661C239.813 143.637 239.071 141.793 237.846 140.365C236.722 138.7 234.395 137.553 231.709 137.553C229.022 137.553 226.695 138.7 225.571 140.365C224.346 141.782 223.604 143.637 223.604 145.661C223.604 149.294 225.998 152.375 229.292 153.399V165.679C229.292 166.669 230.371 167.478 231.709 167.478C233.046 167.478 234.125 166.68 234.125 165.679V153.399C237.43 152.375 239.813 149.294 239.813 145.661Z" fill="#EBF3FA"/>
<path d="M123.97 135.282C123.812 136.327 122.632 137.531 121.362 138.43C120.002 139.409 119.451 140.398 118.968 140.904C118.788 141.107 118.675 141.219 118.675 141.219L117.214 139.521C117.214 139.521 117.237 139.51 117.282 139.454C117.608 139.094 118.439 138.217 118.99 137.216C120.193 135 121.89 134.674 121.89 134.674C121.89 134.674 123.497 134.922 123.97 135.282Z" fill="#FDAB3D"/>
<path d="M48.7147 156.547L49.7039 157.346C49.7039 157.346 52.4016 156.379 53.0085 159.584C53.0085 159.584 53.1659 160.945 52.3116 160.956C51.4461 160.956 51.8058 160.81 50.5806 160.843C49.3554 160.877 48.3438 160.236 48.1639 159.235L47.5794 158.392L48.7147 156.547Z" fill="#FDAB3D"/>
<path d="M48.6024 158.268C49.3892 157.447 49.3217 156.84 49.3217 156.84C49.3217 156.84 40.2283 149.395 39.3066 148.788C38.6771 148.372 32.3376 142.299 28.8531 138.813C27.1782 137.137 25.3798 137.711 23.1767 138.34L21.367 138.858C19.1751 139.488 18.6131 142.546 20.4003 144.042C25.4585 148.237 33.8775 152.949 35.4512 153.938C39.3628 156.401 47.0062 159.325 47.0062 159.325C47.0062 159.325 47.9279 158.976 48.6024 158.268Z" fill="#53BDEB"/>
<path d="M58.9887 204.038C58.9887 204.038 61.1918 205.692 64.5752 204.814C64.5752 204.814 67.3066 204.196 67.9023 205.557C67.9023 205.557 63.7209 207.682 62.6643 208.267C61.8662 208.705 61.0345 209.391 60.45 209.931C59.9891 210.359 59.2585 210.302 58.8651 209.808C58.6852 209.583 58.4717 209.313 58.2356 208.998C57.5949 208.121 56.0887 205.298 56.0887 205.298L58.9887 204.038Z" fill="#003E5A"/>
<path d="M60.2816 203.206C60.2816 203.206 58.9327 206.31 55.8304 205.737C55.8304 205.737 49.5021 200.507 45.1521 195.076C43.747 193.31 42.5443 191.522 41.8362 189.891C38.9586 183.222 31.1803 173.27 26.2458 168.232L38.6102 163.756C38.6102 163.756 42.5668 171.729 47.8385 181.513C51.6378 188.553 56.1114 196.56 60.2816 203.206Z" fill="#003E5A"/>
<path d="M47.8385 181.502L45.1521 195.064C43.747 193.299 42.5443 191.511 41.8362 189.88C38.9586 183.211 31.1803 173.259 26.2458 168.221L38.6102 163.745C38.6102 163.745 42.578 171.718 47.8385 181.502Z" fill="#003E5A"/>
<path d="M37.7327 205.838C37.7327 205.838 37.5978 208.312 40.599 208.638C40.599 208.638 42.3075 208.649 42.3188 210.224L33.6075 210.246C33.6075 210.246 33.3602 209.616 33.2928 208.256C33.2478 207.21 34.3044 204.477 34.3044 204.477L37.7327 205.838Z" fill="#003E5A"/>
<path d="M34.5522 163.745C34.5522 163.745 40.06 169.795 43.5557 180.715C45.4553 186.652 40.0712 201.576 39.0146 206.76C39.0146 206.76 35.3952 207.064 32.9223 206.108C32.9223 206.108 32.7313 195.402 34.1813 187.147C34.9906 182.525 26.9312 177.262 23.4018 168.918C21.0076 163.239 23.9188 163.34 27.5045 163.205L34.5522 163.745Z" fill="#003E5A"/>
<path d="M28.2014 136.732C25.1328 138.464 18.8607 136.867 18.8607 136.867C18.8607 136.867 21.4122 133.955 20.2545 129.265L25.2452 131.807C25.2452 131.807 25.4138 132.639 25.5262 134.123C25.5599 134.506 25.5824 134.933 25.6049 135.405C27.1785 135.866 28.2014 136.732 28.2014 136.732Z" fill="#FDAB3D"/>
<path d="M39.4419 163.43C39.4419 163.97 38.8237 164.228 38.6888 164.251C37.4524 164.476 34.0016 165.825 30.888 166.129C28.269 166.399 25.8411 166.14 23.1659 165.611C22.8175 165.544 21.9857 165.319 21.9182 164.982C21.8396 164.611 11.6221 144.121 19.569 135.327C19.7601 135.124 21.3225 135.495 22.7613 135.833C24.0876 136.147 25.3016 135.968 26.3919 135.54L27.7407 136.249C29.3931 137.171 32.5179 140.443 32.8888 143.007C33.0799 144.312 33.8218 145.279 34.0353 146.426C34.114 146.854 34.1927 147.27 34.2826 147.674C34.44 148.473 34.6086 149.226 34.7884 149.946C35.2605 151.892 35.7439 153.556 36.2384 155.007C36.7555 156.536 37.2613 157.818 37.7109 158.887C38.2954 160.27 38.79 161.304 39.1047 162.092C39.3071 162.643 39.4419 163.081 39.4419 163.43Z" fill="#53BDEB"/>
<path d="M39.0934 162.08C24.6608 155.277 19.6588 142.209 19.6588 142.209C19.6588 142.209 31.3825 146.539 34.2825 147.663C34.4399 148.462 34.6085 149.215 34.7883 149.935C35.2604 151.88 35.7437 153.545 36.2383 154.995C36.7554 156.525 37.2612 157.807 37.7108 158.875C38.2841 160.259 38.7786 161.293 39.0934 162.08Z" fill="#53BDEB"/>
<path d="M57.4041 158.729H49.4347C41.7912 158.729 35.5753 152.51 35.5753 144.863V118.874C35.5753 111.227 41.7912 105.008 49.4347 105.008H57.4041C65.0475 105.008 71.2634 111.227 71.2634 118.874V144.852C71.2634 152.499 65.0475 158.729 57.4041 158.729ZM49.4347 113.195C46.3099 113.195 43.7583 115.736 43.7583 118.874V144.852C43.7583 147.978 46.2986 150.531 49.4347 150.531H57.4041C60.5289 150.531 63.0805 147.989 63.0805 144.852V118.874C63.0805 115.748 60.5401 113.195 57.4041 113.195H49.4347Z" fill="#FDAB3D"/>
<path d="M140.976 136.654H67.9029V127.083H140.988C143.629 127.083 145.765 129.22 145.765 131.863C145.765 134.506 143.618 136.654 140.976 136.654Z" fill="#FDAB3D"/>
<path d="M135.648 157.312C133.523 157.312 131.815 155.592 131.815 153.477V134.719H139.492V153.477C139.481 155.603 137.772 157.312 135.648 157.312Z" fill="#FDAB3D"/>
<path d="M47.5348 158.133L48.7825 158.594C48.7825 158.594 51.2779 156.829 52.8403 159.696C52.8403 159.696 53.4023 160.956 52.5143 161.226C51.6263 161.496 51.9523 161.237 50.6934 161.664C49.4457 162.08 48.2093 161.777 47.7372 160.888L46.8941 160.27L47.5348 158.133Z" fill="#FDAB3D"/>
<path d="M48.5689 159.899C49.0297 158.695 49.2433 158.144 49.2433 158.144C49.2433 158.144 39.8126 150.463 38.8572 149.8C38.2052 149.35 31.6858 144.481 28.5161 140.68C26.9424 138.801 24.4583 137.936 22.0529 138.442L20.0746 138.858C17.6804 139.364 16.9048 142.389 18.7594 143.975C23.975 148.45 32.7874 153.646 34.4285 154.726C38.5087 157.402 47.5123 161.158 47.5123 161.158C47.5123 161.158 48.1979 160.843 48.5689 159.899Z" fill="#53BDEB"/>
<path d="M25.5262 134.112C22.5138 134.281 20.558 131.795 20.558 131.795C20.558 131.795 21.9181 131.042 22.6599 130.48L25.2452 131.795C25.2452 131.795 25.4138 132.616 25.5262 134.112Z" fill="#FDAB3D"/>
<path d="M26.8073 131.008C26.8073 131.008 22.2437 134.292 20.2429 131.413C18.2421 128.534 16.3088 127.027 19.1414 124.812C21.9739 122.596 23.3115 123.294 24.2108 124.092C25.11 124.89 27.9426 130.086 26.8073 131.008Z" fill="#FDAB3D"/>
<path d="M24.6944 121.494C24.5258 120.392 24.1661 119.605 24.1661 119.605C24.1661 119.605 23.8851 120.797 21.7157 120.628C19.5463 120.46 16.1067 120.842 14.9602 123.316C14.8928 123.473 14.8253 123.631 14.7691 123.8C14.5668 123.249 14.5106 122.428 14.5106 122.428C14.0947 123.496 14.5106 124.823 14.5106 124.823C14.4994 124.857 14.4994 124.902 14.4881 124.935C14.0048 125.34 13.6114 126.6 13.6114 126.6C13.7575 126.251 14.106 126.015 14.4207 125.88C14.4095 127.803 15.1963 129.681 16.5564 130.243C18.5571 131.064 18.5459 130.435 20.5579 131.773C20.5579 131.773 21.0975 131.098 20.7265 130.648C20.3556 130.198 18.9618 129.546 19.7486 128.883C20.5242 128.23 20.8165 128.961 21.0975 128.512C21.3785 128.062 19.9509 126.746 21.7944 125.52C23.6265 124.317 24.863 122.596 24.6944 121.494Z" fill="#003E5A"/>
<path d="M104.669 207.671L102.983 208.301C102.983 208.301 95.6768 198.157 94.7776 189.239C94.6202 187.642 94.6652 186.101 95.0136 184.673C95.0136 184.673 94.9462 184.268 94.8225 183.549C94.7663 183.211 94.6989 182.806 94.609 182.345C94.3729 180.985 94.0469 179.118 93.676 177.004C92.8217 172.123 91.6977 165.881 90.8322 161.293L91.2818 161.147L96.1826 159.561L97.1942 156.345L100.847 155.378C100.847 155.378 101.668 156.975 102.387 164.521C102.522 165.51 102.646 166.601 102.736 167.782C103.017 171.392 103.039 175.868 102.387 180.996C102.219 182.312 102.005 183.661 101.747 185.056C101.556 186.079 101.522 187.462 101.612 189.059C101.994 196.335 104.669 207.671 104.669 207.671Z" fill="#53BDEB"/>
<path d="M102.758 167.771L94.8225 183.549C94.7663 183.211 94.6989 182.806 94.609 182.345C94.3729 180.985 94.0469 179.118 93.676 177.004C92.8217 172.123 91.6977 165.881 90.8322 161.293L91.2818 161.147L96.1826 159.561L97.1942 156.345L100.847 155.378C100.847 155.378 101.668 156.975 102.387 164.521C102.545 165.499 102.668 166.59 102.758 167.771Z" fill="#53BDEB"/>
<path d="M99.2737 157.391L99.0938 155.816C96.014 156.637 87.7973 153.534 87.7973 153.534C87.7973 153.534 84.8186 156.154 85.212 162.44C85.4031 165.51 85.7515 178.533 86.1112 182.39C86.2461 183.785 86.3585 184.786 86.4035 185.179C86.4147 185.303 86.381 185.415 86.3135 185.517C85.774 186.427 85.3356 187.372 84.9647 188.351C81.3902 197.887 85.5155 209.628 85.5155 209.628L86.5833 209.2C86.5833 209.2 88.9325 196.133 90.8434 190.364C91.1694 189.385 91.4729 188.62 91.7651 188.159C92.5969 186.821 93.3613 184.628 94.0582 182.03C95.3733 177.105 96.4411 170.706 97.1492 165.769C97.2504 165.746 99.2737 157.391 99.2737 157.391Z" fill="#53BDEB"/>
<path d="M118.034 137.846C118.967 138.217 119.877 138.948 120.776 139.859C120.776 139.859 115.527 149.013 112.515 150.34C110.862 151.071 105.669 145.527 104.601 142.423C104.343 141.658 105.31 139.128 104.995 138.588C104.579 137.879 104.377 137.193 104.287 136.597C104.264 136.507 104.242 136.417 104.253 136.316C104.152 135.372 104.343 134.731 104.343 134.731C104.467 134.427 104.804 134.292 105.31 134.292H105.489C108.21 135.889 111.773 143.75 112.369 143.93C113.886 141.995 118.034 137.846 118.034 137.846Z" fill="#003E5A"/>
<path d="M105.141 138.284C104.174 138.734 103.005 139.038 101.6 139.116C96.3171 139.409 95.1144 134.764 94.8896 131.694C95.6539 131.413 96.3171 131.447 96.6993 131.469C97.0702 131.492 97.4636 131.525 97.7896 131.57C98.4415 131.233 99.5993 129.591 100.274 126.847L100.499 126.948L104.309 128.748C104.309 128.748 103.904 129.985 103.601 131.177C103.365 132.11 103.196 133.01 103.342 133.257C103.646 133.381 103.826 133.46 103.826 133.46C103.882 133.538 104.714 135.664 105.141 138.284Z" fill="#FDAB3D"/>
<path d="M106.467 141.759C106.422 141.86 106.389 141.973 106.332 142.074C104.995 144.964 102.511 156.918 102.511 156.918C102.859 159.066 86.3695 156.491 86.3246 154.534C85.7401 152.454 88.3816 149.125 89.8765 147.45C90.0676 147.236 90.2362 147.011 90.3711 146.775C90.742 146.179 90.9781 145.504 91.0455 144.807C91.3378 142.029 90.2474 135.63 90.5397 134.404C90.6521 133.921 92.844 136.687 93.1025 136.406C93.3948 136.103 93.5746 135.799 93.5858 135.45C93.5971 135.192 93.5971 134.91 93.5634 134.641C93.5521 134.517 93.5296 134.382 93.5184 134.258C93.3161 132.92 90.742 133.493 90.742 133.493C91.6862 131.233 96.6882 131.413 96.6882 131.469C96.6882 131.525 96.6882 131.604 96.6882 131.84C96.6769 132.762 96.6882 135.135 96.9804 135.574C97.3513 136.136 104.107 138.577 104.466 137.823C104.815 137.081 103.86 133.595 103.815 133.46C104.556 133.763 105.456 134.314 105.456 134.314C106.332 136.001 107.524 138.959 106.467 141.759Z" fill="#003E5A"/>
<path d="M101.916 116.816C101.904 116.591 101.724 114.117 97.9702 113.982C97.9702 113.982 99.8249 114.207 100.14 115.017C100.14 115.017 98.8807 114.016 97.8578 114.331C96.8349 114.657 96.228 116.456 96.228 117.041C96.2167 117.637 96.79 119.537 97.4419 119.706C97.6892 119.762 97.9702 119.751 98.2287 119.706C98.0601 119.976 97.8803 120.28 97.7229 120.606C96.2167 123.687 97.7679 126.701 99.038 126.375C99.8586 126.161 100.083 127.556 100.083 127.556L108.008 121.146C107.997 121.146 105.085 115.129 101.916 116.816Z" fill="#53BDEB"/>
<path d="M104.32 128.736C104.32 128.736 103.916 129.974 103.612 131.166C101.386 130.547 100.701 128.197 100.499 126.937L104.32 128.736Z" fill="#FDAB3D"/>
<path d="M104.793 130.041C104.793 130.041 99.4534 128.804 100.274 125.498C101.095 122.18 100.96 119.796 104.399 120.448C107.839 121.101 108.187 122.529 108.187 123.698C108.176 124.868 106.198 130.277 104.793 130.041Z" fill="#FDAB3D"/>
<path d="M108.49 121.809C107.917 120.606 107.243 120.673 106.815 120.887C104.309 118.57 101.847 120.46 101.847 120.46C100.903 122.742 98.846 123.687 98.846 123.687C98.846 123.687 99.6666 124.531 102.038 124.508C102.769 124.497 103.488 124.171 104.163 123.71C102.881 125.003 101.375 125.79 101.375 125.79C104.354 125.217 106.343 121.775 106.546 121.415C106.793 121.787 107.276 122.585 107.321 123.249C107.377 124.159 107.063 125.925 107.58 125.993C107.591 125.981 109.344 123.608 108.49 121.809Z" fill="#53BDEB"/>
<path d="M91.7426 210.494H83.2674C83.2674 210.494 83.065 209.2 83.5034 208.222C83.9305 207.277 84.5937 206.85 84.4364 205.714C84.9759 206.265 85.8526 206.895 87.0778 206.726C87.224 206.974 88.0445 208.278 88.5503 208.638C89.1011 209.032 91.574 208.885 91.7426 210.494Z" fill="#003E5A"/>
<path d="M109.941 210.494H101.466C101.466 210.494 101.151 209.144 101.702 208.222C102.196 207.412 102.005 206.94 101.646 206.265C102.028 206.423 102.522 206.569 103.073 206.535C103.5 206.513 103.939 206.321 104.332 206.096C104.692 206.513 106.254 208.278 106.749 208.638C107.299 209.032 109.772 208.885 109.941 210.494Z" fill="#003E5A"/>
<path d="M121.463 136.654H134.367L133.648 131.649L122.126 132.11L121.463 136.654Z" fill="#FDAB3D"/>
<path d="M123.733 127.083C123.137 127.679 123.148 129.602 121.878 130.502C120.518 131.48 119.967 132.47 119.484 132.976C119.304 133.179 119.192 133.291 119.192 133.291L117.731 131.593C117.731 131.593 117.753 131.582 117.798 131.525C118.124 131.166 118.956 130.288 119.507 129.288C120.709 127.072 122.407 126.746 122.407 126.746C122.407 126.746 123.261 126.724 123.733 127.083Z" fill="#FDAB3D"/>
<path d="M118.619 130.266L120.766 132.673C120.766 132.673 115.022 137.677 113.819 138.712C112.965 139.443 112.167 140.027 111.504 140.365C111.436 140.398 111.38 140.421 111.301 140.455C109.615 141.197 105.974 141.107 102.332 140.567C101.826 140.488 101.331 140.41 100.848 140.331C99.0494 140.016 97.3521 139.611 95.9359 139.139C95.0928 138.869 94.351 138.577 93.7777 138.273C93.5754 138.172 93.3843 138.071 93.2157 137.958C90.3719 136.249 90.5068 134.663 90.563 134.101C90.6192 133.527 91.0238 132.785 91.9793 132.47C94.2386 131.739 101.815 134.663 102.927 134.865C103.602 135.012 105.344 135.619 105.929 135.731C107.053 135.934 107.974 136.058 108.615 136.069C109.031 136.069 109.75 135.821 110.627 135.428C112.156 134.764 118.619 130.266 118.619 130.266Z" fill="#003E5A"/>
<path d="M119.473 137.519C119.293 137.227 119.282 136.744 119.282 136.744C119.53 136.103 120.08 135.394 120.283 135.248C120.485 135.102 120.755 134.764 120.822 134.989C120.89 135.214 120.575 136.417 120.226 136.901C119.855 137.385 119.473 137.519 119.473 137.519Z" fill="#FDAB3D"/>
<path d="M247.242 108.651C249.052 111.8 251.322 113.015 251.322 113.015H260.787C260.776 113.015 245.86 106.256 247.242 108.651Z" fill="#FDAB3D"/>
<path d="M253.941 133.179C254.189 133.46 254.402 133.448 254.279 133.786L254.222 133.955C253.998 134.573 253.57 135.012 252.705 135.709C252.592 135.799 252.48 135.878 252.39 135.945C252.368 135.968 252.21 135.99 252.188 136.013C252.165 136.024 252.03 136.305 252.019 136.316C251.21 137.058 251.379 136.845 249.929 138.352C248.276 140.072 248.321 139.892 247.995 139.735C247.725 139.6 247.613 139.285 248.22 138.25C248.254 138.205 248.276 138.149 248.31 138.104C248.389 137.969 248.479 137.834 248.557 137.688C249.277 136.451 249.097 135.878 248.928 134.033C248.793 132.538 246.601 125.689 246.601 125.689L249.771 125.138C249.771 125.138 250.727 130.592 251.772 131.435C252.334 131.885 252.963 131.885 253.503 132.223C253.537 132.245 253.582 132.268 253.615 132.29C253.941 132.515 253.694 132.886 253.941 133.179Z" fill="#FDAB3D"/>
<path d="M254.503 133.01C254.751 133.291 254.784 133.606 254.661 133.943C254.38 134.562 253.66 135.259 252.817 135.956C252.705 136.046 252.615 136.125 252.525 136.204C252.503 136.226 252.48 136.249 252.458 136.26C252.435 136.271 252.424 136.294 252.401 136.305C251.592 137.047 251.896 137.216 250.446 138.734C248.793 140.455 247.658 140.488 247.332 140.331C247.062 140.196 247.613 139.285 248.231 138.262C248.557 138.149 250.052 137.531 251.176 136.091C252.177 134.82 252.84 133.19 253.514 132.234C253.548 132.256 253.593 132.279 253.627 132.301C253.941 132.515 254.256 132.729 254.503 133.01Z" fill="#53BDEB"/>
<path d="M228.359 130.839C228.168 131.818 227.527 131.548 225.964 131.166C224.402 130.783 224.773 131.154 222.547 130.907C220.322 130.66 220.131 130.311 220.063 129.974C220.007 129.681 220.468 129.479 221.637 129.344C221.783 129.333 221.929 129.31 222.087 129.288C223.413 129.119 224.391 128.264 225.594 127.556C226.74 126.892 228.437 124.171 228.437 124.171L231.483 124.407C231.483 124.407 229.887 126.836 229.269 127.882C228.909 128.5 228.921 129.321 228.966 129.951C228.988 130.333 228.426 130.491 228.359 130.839Z" fill="#FDAB3D"/>
<path d="M225.796 131.469C224.233 131.087 224.604 131.537 222.39 131.301C220.176 131.064 219.501 130.232 219.434 129.895C219.378 129.602 220.468 129.501 221.648 129.366L221.659 129.389C221.659 129.389 222.986 130.333 224.84 130.378C226.347 130.412 227.943 129.985 228.977 129.996C228.999 130.345 229.022 130.693 228.954 131.042C228.752 132.009 227.358 131.84 225.796 131.469Z" fill="#53BDEB"/>
<path d="M240.6 111.575L247.153 129.231C247.153 129.231 248.165 129.333 249.12 129.051C250.008 128.793 251.031 128.118 251.031 128.118C251.031 128.118 249.997 117.389 248.075 111.227C247.58 109.641 247.029 108.37 246.422 107.651C243.444 104.119 240.6 111.575 240.6 111.575Z" fill="#FDAB3D"/>
<path d="M243.489 99.4187C245.355 98.8226 250.66 99.5874 255.999 100.633L257.112 98.7889L268.633 97.8892C268.633 97.8892 272.433 106.324 270.353 111.71C269.847 113.015 268.195 113.015 268.195 113.015C268.195 113.015 261.372 113.015 259.147 113.015C253.414 113.015 247.018 109.068 246.187 108.91C244.826 108.64 244.287 111.35 242.938 114.196C241.578 117.041 230.203 126.802 230.203 126.802C230.203 126.802 228.449 126.825 227.73 126.544C226.954 126.251 226.673 125.869 226.673 125.869C226.673 125.869 239.285 100.779 243.489 99.4187Z" fill="#FDAB3D"/>
<path d="M257.19 82.9098C261.293 85.1702 269.622 89.8597 269.667 89.826C269.667 89.826 272.724 90.9843 274.467 89.826C277.355 87.903 278.918 82.7299 273.624 78.2766C270.982 76.0499 269.105 75.5101 268.824 71.9676C268.667 70.0446 266.036 63.6907 261.675 64.2755C261.316 64.3205 260.945 64.3542 260.574 64.343C260.068 64.3317 259.225 64.3992 258.359 64.9165C255.875 66.401 251.031 82.0326 257.19 82.9098Z" fill="#003E5A"/>
<path d="M260.63 80.9868C260.607 80.998 262.653 81.6953 264.013 81.088C265.295 80.5257 266.261 78.4115 266.25 78.4115C265.666 78.389 265.025 77.8717 264.53 74.5317L264.283 74.6217L260.113 76.1286C260.113 76.1286 260.416 77.4669 260.607 78.7489C260.765 79.806 260.855 80.8294 260.63 80.9868Z" fill="#FDAB3D"/>
<path d="M260.101 76.1173C260.101 76.1173 260.405 77.4556 260.596 78.7376C262.99 78.3103 263.934 75.9149 264.271 74.6216L260.101 76.1173Z" fill="#FDAB3D"/>
<path d="M259.484 77.4444C259.484 77.4444 265.194 76.6796 264.665 73.126C264.137 69.5723 264.508 67.087 260.844 67.4243C257.179 67.7617 256.673 69.2237 256.561 70.4495C256.449 71.6752 257.977 77.5568 259.484 77.4444Z" fill="#FDAB3D"/>
<path d="M256.763 68.5152C256.763 68.5152 260.416 71.664 262.911 71.9227C265.396 72.1813 266.34 71.3829 266.34 71.3829C266.34 71.3829 264.878 70.1683 263.99 68.2003C263.732 67.6155 263.181 67.2219 262.552 67.1657C260.765 67.0082 257.404 66.9408 256.763 68.5152Z" fill="#003E5A"/>
<path d="M259.045 68.234C259.045 68.234 257.82 69.4149 257.438 70.292C257.067 71.1355 256.954 73.1597 257.246 73.9694C257.246 73.9694 255.336 70.2583 256.415 68.459C257.572 66.5472 259.045 68.234 259.045 68.234Z" fill="#003E5A"/>
<path d="M255.819 89.3986C255.988 100.971 255.864 98.5527 257.134 99.6436C257.438 99.9022 258.292 100.071 259.427 100.138C262.968 100.375 269.207 99.7898 269.443 99.1375C270.263 96.8659 269.679 96.1686 270.364 92.6937C270.432 92.3226 270.522 91.9289 270.623 91.4904C271.196 89.1063 271.747 88.2966 269.724 84.4617C267.891 80.9868 265.992 78.1753 265.823 78.2765C260.99 81.1442 260.608 78.7376 260.608 78.7376C260.608 78.7376 255.729 83.7645 255.819 89.3986Z" fill="#53BDEB"/>
<path d="M243.443 119.223L247.152 129.22C247.152 129.22 248.164 129.321 249.119 129.04C250.007 128.781 251.03 128.107 251.03 128.107C251.03 128.107 249.996 117.378 248.074 111.216L243.443 119.223Z" fill="#FDAB3D"/>
<path d="M260.596 78.7376C260.596 78.7376 255.628 79.5811 255.043 81.7178C254.458 83.8545 251.03 96.4385 251.03 96.4385C251.03 96.4385 253.559 96.8884 254.728 95.73C255.897 94.5605 258.786 84.9003 258.786 84.9003L260.596 78.7376Z" fill="#53BDEB"/>
<path d="M259.416 100.15C262.956 100.386 269.195 99.801 269.431 99.1488C270.251 96.8771 269.667 96.1799 270.353 92.7049L268.644 87.8917C268.644 87.8917 268.925 93.256 267.34 94.6617C265.755 96.0674 260.866 97.3832 260.101 98.564C259.73 99.1263 259.494 99.6886 259.416 100.15Z" fill="#53BDEB"/>
<path d="M263.485 97.8892C263.485 97.8892 259.99 97.1133 259.428 97.4169C258.866 97.7318 257.483 98.8564 257.314 99.25C257.146 99.6436 258.573 98.9464 259.034 98.8227C259.338 98.7439 260.124 99.0138 260.518 99.1488C262.17 99.6998 263.182 99.4187 263.182 99.4187L263.485 97.8892Z" fill="#FDAB3D"/>
<path d="M265.823 78.2765C265.823 78.2765 270.521 78.5689 272.139 80.8293C274.432 84.0231 278.962 97.6306 276.366 99.4524C273.432 101.499 263.035 99.9922 263.035 99.9922C263.035 99.9922 262.686 98.3728 263.17 97.5856C263.653 96.7984 271.476 95.5388 271.847 95.179C272.207 94.8191 267.329 88.1279 267.329 87.0483C267.329 85.9574 265.823 78.2765 265.823 78.2765Z" fill="#53BDEB"/>
<path d="M259.247 98.3953C259.247 98.3953 258.517 99.34 258.269 99.4524C258.022 99.5649 257.876 99.5424 257.876 99.5424L258.371 98.654L259.247 98.3953Z" fill="#FDAB3D"/>
<path d="M259.415 97.4169L257.28 98.4515C257.28 98.4515 257.37 98.5977 257.628 98.5865C257.887 98.5752 258.55 98.3278 258.55 98.3278L259.415 97.4169Z" fill="#FDAB3D"/>
<path d="M258.28 100.903H241.42L236.351 88.2853H253.177L258.28 100.903Z" fill="#003E5A"/>
<path d="M241.229 100.408H263.485V100.903H241.42L241.229 100.408Z" fill="#013750"/>
<path d="M245.68 94.5942C245.556 94.1556 245.804 93.7958 246.253 93.7958C246.692 93.7958 247.164 94.1556 247.287 94.5942C247.411 95.0328 247.164 95.3927 246.714 95.3927C246.265 95.4039 245.804 95.044 245.68 94.5942Z" fill="white"/>
<path d="M325.464 211H2.48369C2.24764 211 2.05655 210.809 2.05655 210.573C2.05655 210.337 2.24764 210.145 2.48369 210.145H325.464C325.7 210.145 325.891 210.337 325.891 210.573C325.891 210.809 325.7 211 325.464 211Z" fill="#003E5A"/>
<path d="M235.915 21.6409C240.884 16.6902 240.884 8.66364 235.915 3.71299C230.947 -1.23766 222.89 -1.23766 217.922 3.71299C212.953 8.66364 212.953 16.6902 217.922 21.6409C222.89 26.5915 230.947 26.5915 235.915 21.6409Z" fill="white"/>
<path d="M233.492 22.8792H239.648L238.417 16.7257L233.492 22.8792Z" fill="white"/>
<path d="M202.97 21.6409C198.002 16.6902 198.002 8.66364 202.97 3.71299C207.939 -1.23766 215.995 -1.23766 220.964 3.71299C225.933 8.66364 225.933 16.6902 220.964 21.6409C215.995 26.5915 207.939 26.5915 202.97 21.6409Z" fill="#FDAB3D"/>
<path d="M216.842 14.2763C215.955 14.2763 215.236 13.5599 215.236 12.6763C215.236 11.7926 215.955 11.0762 216.842 11.0762C217.729 11.0762 218.448 11.7926 218.448 12.6763C218.448 13.5599 217.729 14.2763 216.842 14.2763Z" fill="white"/>
<path d="M211.962 14.2763C211.075 14.2763 210.356 13.5599 210.356 12.6763C210.356 11.7926 211.075 11.0762 211.962 11.0762C212.849 11.0762 213.568 11.7926 213.568 12.6763C213.568 13.5599 212.849 14.2763 211.962 14.2763Z" fill="white"/>
<path d="M207.084 14.2763C206.197 14.2763 205.478 13.5599 205.478 12.6763C205.478 11.7926 206.197 11.0762 207.084 11.0762C207.971 11.0762 208.69 11.7926 208.69 12.6763C208.69 13.5599 207.971 14.2763 207.084 14.2763Z" fill="white"/>
<path d="M205.394 22.8792H199.237L200.469 16.7257L205.394 22.8792Z" fill="#FDAB3D"/>
<path d="M258.305 23.4728L265.126 1.93089C265.586 0.466875 267.176 -0.327874 268.599 0.174073L291.406 8.03792C292.828 8.53986 293.582 10.0875 293.08 11.5097L285.798 32.5915C285.296 34.0137 283.789 34.7666 282.367 34.2647L260.02 26.8609C258.639 26.4008 257.844 24.895 258.305 23.4728Z" fill="white"/>
<path d="M291.154 11.6352L284.333 31.3366C283.999 32.2569 282.994 32.7588 282.074 32.4242L261.317 25.5224C260.397 25.2296 259.895 24.2257 260.188 23.3055L266.548 3.14393C266.841 2.18186 267.887 1.67991 268.808 2.01455L290.025 9.33461C290.987 9.66924 291.489 10.715 291.154 11.6352Z" fill="#53BDEB"/>
<path d="M285.045 29.287L284.333 31.2948C283.999 32.2151 282.994 32.717 282.074 32.3824L261.317 25.4806C260.397 25.1878 259.895 24.1839 260.188 23.2637L261.61 18.7461C261.61 18.7461 264.121 16.822 266.548 15.1488C268.557 13.7267 270.524 12.5136 270.984 12.5973C271.361 12.6809 271.905 13.9776 272.532 15.6508C273.662 18.8298 274.918 23.3473 274.918 23.3473C274.918 23.3473 275.545 22.8454 276.382 22.2179C277.847 21.1304 279.981 19.6245 280.567 19.7919C281.027 19.9173 282.199 22.4271 283.329 25.0205C283.999 26.6518 284.626 28.2413 285.045 29.287Z" fill="#3196C1"/>
<path d="M283.073 15.4565C283.198 14.0992 282.198 12.898 280.84 12.7734C279.483 12.6489 278.281 13.6482 278.156 15.0055C278.032 16.3628 279.031 17.564 280.389 17.6885C281.747 17.8131 282.949 16.8137 283.073 15.4565Z" fill="#FDAB3D"/>
<path d="M262.951 26.0243C262.951 26.0243 274.124 18.1605 275.296 18.4115C276.468 18.6624 279.397 31.5458 279.397 31.5458L262.951 26.0243Z" fill="#E8F9FD"/>
<path d="M284.292 7.36864L289.732 15.7763L291.268 11.2925C291.593 10.3412 291.056 9.31102 290.089 9.03337L284.292 7.36864Z" fill="#E8F9FD"/>
<path d="M314.067 63.4055C322.591 63.4055 329.501 56.498 329.5 47.9772C329.499 39.4564 322.588 32.5489 314.063 32.5489C305.539 32.5489 298.629 39.4564 298.63 47.9772C298.631 56.498 305.542 63.4055 314.067 63.4055Z" fill="#53BDEB"/>
<path d="M313.752 55.8967C313.055 55.8967 312.389 55.6037 311.914 55.0811L306.741 49.3724C306.297 48.8815 306.329 48.1214 306.828 47.678C307.319 47.2346 308.079 47.2663 308.523 47.7651L313.696 53.4738C313.704 53.4817 313.728 53.5055 313.767 53.4976C313.807 53.4896 313.823 53.4659 313.823 53.4501L319.392 40.7816C319.662 40.1719 320.367 39.8948 320.977 40.164C321.587 40.4332 321.864 41.1379 321.595 41.7476L316.025 54.416C315.685 55.192 314.987 55.7304 314.156 55.865C314.021 55.8808 313.886 55.8967 313.752 55.8967Z" fill="white"/>
</svg>
