<svg width="376" height="262" viewBox="0 0 376 262" fill="none" xmlns="http://www.w3.org/2000/svg">
<g clip-path="url(#clip0_205_417)">
<path d="M349 261.893C349 261.893 377.468 194.142 344.822 140.838C284.865 42.9393 238.363 110.117 193.964 80.7834C129.775 38.3639 24.6876 45.5272 33.3783 161.46C37.2113 212.617 -3.16811 212.644 21.5733 262L349 261.893Z" fill="white"/>
<path d="M257.006 230.115C248.831 230.115 241.993 235.804 240.279 243.418C238.668 241.919 236.526 241.016 234.161 241.016C232.208 241.016 230.391 241.646 228.917 242.702C228.969 242.293 228.986 241.868 228.986 241.442C228.986 234.714 223.502 229.263 216.732 229.263C216.372 229.263 216.03 229.28 215.687 229.314V186.936L199.166 168.575L176.904 197.684V221.258C176.544 221.241 176.185 221.224 175.825 221.224C166.416 221.224 158.773 228.803 158.773 238.171C158.773 238.461 158.773 238.751 158.79 239.023C157.573 238.682 156.288 238.512 154.968 238.512C153.614 238.512 152.312 238.699 151.078 239.04C149.45 231.239 142.492 225.363 134.163 225.363C124.617 225.363 116.888 233.044 116.888 242.532C116.888 243.162 116.922 243.775 116.991 244.388C115.723 243.656 114.249 243.23 112.672 243.23C107.942 243.23 104.121 247.028 104.121 251.73C104.121 256.414 107.942 260.229 112.672 260.229H263.432V260.161C265.506 260.161 274.161 256.567 274.161 247.165C274.144 237.746 266.483 230.115 257.006 230.115Z" fill="#FFECDC"/>
<path d="M307.268 255.613L307.971 250.503L304.972 248.016L304.029 254.778L307.268 255.613Z" fill="#FFD398"/>
<path d="M297.312 260.161H309.531C309.531 260.161 309.822 258.304 309.188 256.908C308.571 255.562 307.629 254.727 307.543 253.688C306.772 254.489 305.812 255 304.047 254.762C303.824 255.102 302.642 256.976 301.922 257.487C301.117 258.066 297.552 257.862 297.312 260.161Z" fill="#003E5A"/>
<path d="M299.762 186.647C300.568 193.034 301.219 199.064 301.75 204.668C304.595 234.577 304.03 252.854 304.03 252.854C304.03 252.854 304.235 253.399 306 253.399C306.994 253.399 307.971 253.194 307.971 253.194C307.971 253.194 314.329 233.658 313.849 222.552C313.798 221.224 313.627 219.997 313.352 218.958C311.827 213.269 319.008 191.518 311.193 183.428C303.395 175.32 299.402 183.717 299.762 186.647Z" fill="#FDAB3D"/>
<path d="M299.762 186.647C300.568 193.034 301.219 199.064 301.75 204.668L313.849 222.552C313.798 221.224 313.627 219.997 313.352 218.958C311.827 213.269 319.008 191.518 311.193 183.428C303.395 175.32 299.402 183.717 299.762 186.647Z" fill="#ED7D2B"/>
<path d="M290.147 125.703C290.147 125.703 290.439 124.238 290.781 123.131C290.936 122.637 289.908 119.401 289.205 119.009C288.502 118.618 286.652 120.798 287.183 122.467C287.457 123.319 287.885 126.129 287.885 126.129L290.147 125.703Z" fill="#FFD398"/>
<path d="M290.147 125.703C290.147 125.703 290.524 124.852 290.884 124.715C291.227 124.579 291.604 123.2 291.861 122.637C291.861 122.637 291.621 122.28 291.176 122.74C290.919 123.029 290.319 123.847 290.319 123.847L290.147 125.703Z" fill="#FFD398"/>
<path d="M340.584 130.626C340.653 130.779 340.756 131.051 340.858 131.307C340.858 131.239 340.858 131.171 340.858 131.103C340.858 130.592 342.795 127.798 343.583 127.611C344.372 127.44 345.503 130.064 344.509 131.511C343.995 132.261 342.761 134.799 342.761 134.799L340.704 133.743C340.704 133.743 340.584 132.823 340.293 132.584C340.001 132.346 340.053 130.915 339.967 130.319C339.967 130.319 340.31 130.047 340.584 130.626Z" fill="#FFD398"/>
<path d="M327.748 254.08C327.919 252.445 327.971 248.136 327.971 248.136C327.971 248.136 323.549 246.739 323.721 247.693C324.526 252.428 324.303 254.779 324.303 254.779L326.086 255.835L327.748 254.08Z" fill="#FFD398"/>
<path d="M303.446 186.34C303.446 186.34 320.498 232.806 323.857 252.973C323.857 252.973 324.628 253.501 326.085 253.331C327.73 253.126 328.176 252.002 328.176 252.002C328.176 252.002 331.261 227.85 325.125 219.452C320.91 213.695 326.942 188.384 317.139 186.357C307.354 184.313 303.446 186.34 303.446 186.34Z" fill="#FDAB3D"/>
<path d="M306.359 150.707C306.428 150.912 306.53 151.099 306.616 151.27C306.753 151.542 306.925 151.798 307.113 152.036C307.045 151.798 306.976 151.508 306.907 151.15C306.873 150.997 306.856 150.827 306.839 150.656C306.736 149.839 306.702 148.749 306.805 147.318C306.805 147.676 306.805 149.14 307.096 150.622C307.13 150.759 307.147 150.912 307.182 151.048C307.284 151.508 307.422 151.968 307.61 152.377C307.644 152.462 307.679 152.53 307.713 152.615C308.861 153.62 310.215 155.17 311.603 156.942C312.563 158.168 313.523 159.496 314.431 160.842C314.791 161.353 315.133 161.881 315.459 162.392C315.596 162.613 315.733 162.818 315.87 163.039C316.042 163.312 316.196 163.567 316.367 163.823C316.813 164.538 317.224 165.237 317.601 165.901C317.687 166.054 317.773 166.207 317.841 166.344C318.989 168.439 319.675 170.108 319.521 170.755C319.521 170.755 319.589 170.704 319.726 170.602C319.761 170.585 319.812 170.551 319.863 170.517C320.343 170.193 321.269 169.563 322.434 168.762L322.503 168.524L323.085 166.718C323.222 167.127 323.12 167.843 323.034 168.354C324.885 167.11 327.181 165.594 329.272 164.266C330.831 163.278 332.271 162.392 333.299 161.83C333.162 160.91 332.665 159.258 332.648 159.207C333.265 159.479 333.831 160.74 334.105 161.421C334.173 161.387 334.242 161.353 334.31 161.336C334.31 161.336 334.43 156.158 327.61 151.27C324.045 148.715 321.509 147.488 322.04 144.984C322.571 142.481 323.034 131.443 315.185 133.181C315.185 133.181 314.071 132.482 313.523 132.482C313.523 132.482 313.951 132.636 314.14 132.891C313.283 132.721 312.049 132.602 310.935 133.027C310.318 133.266 309.649 134.015 308.981 135.122C308.947 135.191 308.895 135.259 308.861 135.344C308.587 135.838 308.313 136.383 308.039 136.962C307.576 137.984 307.147 139.159 306.805 140.369C306.685 140.76 306.582 141.169 306.479 141.578C306.479 141.595 306.462 141.612 306.462 141.646C305.691 144.899 305.434 148.374 306.359 150.707Z" fill="#003E5A"/>
<path d="M307.952 152.82C307.918 152.82 310.146 154.421 312.048 154.199C313.831 153.995 315.27 151.951 315.253 151.951C314.55 151.696 314.499 150.691 315.133 146.449L314.79 146.467L309.135 146.739C309.135 146.739 308.998 148.476 308.758 150.094C308.569 151.457 308.295 152.735 307.952 152.82Z" fill="#FFD398"/>
<path d="M309.136 146.739C309.136 146.739 308.999 148.476 308.759 150.094C311.844 150.469 313.883 147.914 314.791 146.466L309.136 146.739Z" fill="#FFD398"/>
<path d="M315.443 145.955C315.443 145.955 317.431 143.656 318.151 141.561C318.665 140.062 318.716 134.22 312.804 134.186C312.804 134.186 311.09 134.101 309.359 134.935C307.971 135.599 305.897 137.149 307.165 142.447L307.44 144.218L315.443 145.955Z" fill="#003E5A"/>
<path d="M299.059 185.438C299.059 185.438 306.411 189.781 315.665 187.55C315.768 187.516 323.274 186.34 323.274 186.34C323.137 185.983 322.177 180.226 322.058 179.902C320.412 175.695 317.43 152.871 314.911 151.747C314.277 152.445 312.443 152.905 310.884 152.769C309.084 152.615 308.484 151.832 308.622 151.014C306.634 151.951 305.091 152.82 305.091 152.82C303.275 155.545 299.059 185.438 299.059 185.438Z" fill="white"/>
<path d="M307.884 148.118C307.884 148.118 315.133 149.311 315.819 144.814C316.504 140.317 317.892 137.439 313.282 136.485C308.672 135.531 307.524 137.115 306.924 138.563C306.324 139.994 306.016 147.693 307.884 148.118Z" fill="#FFD398"/>
<path d="M309.994 135.872C309.994 135.872 311.193 141.442 314.141 142.685C317.089 143.928 318.528 143.298 318.528 143.298C318.528 143.298 317.843 140.471 317.843 137.166C317.826 137.166 311.862 133.589 309.994 135.872Z" fill="#003E5A"/>
<path d="M310.421 136.383C310.421 136.383 308.759 137.337 308.227 138.444C307.696 139.534 307.182 141.868 306.496 141.697C306.496 141.697 305.537 137.882 307.525 136.111C309.633 134.186 310.421 136.383 310.421 136.383Z" fill="#003E5A"/>
<path d="M287.816 125.805C288.107 125.703 288.553 125.465 289.118 125.414C289.615 125.363 290.267 125.533 290.267 125.533C290.267 125.533 292.306 138.188 292.46 138.853C292.614 139.517 301.235 149.175 303.565 149.141C305.673 149.106 308.158 150.725 308.621 151.031C308.621 151.031 303.737 161.319 303.48 163.244C303.223 165.339 300.686 197.701 300.686 197.701C300.686 197.701 300.84 199.2 298.013 198.4C295.185 197.582 294.482 196.918 294.482 196.918C294.482 196.918 297.087 171.437 297.636 163.516C297.704 162.46 297.876 161.472 298.133 160.553C298.373 159.684 298.184 158.747 297.653 158.015C294.071 153.126 288.416 145.223 288.107 143.537C287.61 141.084 287.816 125.805 287.816 125.805Z" fill="#006694"/>
<path d="M317.568 260.161H329.787C329.787 260.161 330.078 258.304 329.444 256.908C328.827 255.562 327.885 254.727 327.799 253.688C327.028 254.489 326.068 255 324.303 254.762C324.08 255.102 322.898 256.976 322.178 257.487C321.372 258.066 317.825 257.862 317.568 260.161Z" fill="#003E5A"/>
<path d="M309.171 164.232C309.582 161.711 314.843 151.593 314.843 151.593C314.843 151.593 318.168 150.605 320.362 151.389C322.555 152.172 333.866 145.819 334.226 145.24C334.586 144.661 340.653 133.436 340.653 133.436C340.653 133.436 341.15 133.147 341.955 133.573C342.743 133.981 342.761 134.799 342.761 134.799C342.761 134.799 338.082 148.936 336.831 151.116C336.077 152.428 329.77 157.027 324.886 160.467C323.943 161.132 323.464 162.239 323.618 163.363C324.269 168.2 324.44 170.926 325.194 179.221C325.829 186.102 326.068 199.422 326.068 199.422C326.068 199.422 320.602 201.312 316.814 201.551C313.044 201.806 312.204 197.838 312.204 197.838C312.204 197.838 308.759 166.821 309.171 164.232Z" fill="#006694"/>
<path d="M310.267 145.887C310.267 145.887 309.393 146.398 308.348 146.245C307.628 146.143 307.474 145.291 307.474 145.291C307.474 145.291 307.971 145.138 308.759 145.291C309.547 145.461 310.267 145.887 310.267 145.887Z" fill="white"/>
<path d="M95.7822 134.867C95.7822 134.867 92.8516 131.954 94.6168 130.694C96.382 129.45 97.4445 129.859 97.7702 130.609C98.0786 131.375 98.1129 134.713 98.1129 134.713L95.7822 134.867Z" fill="#FFD398"/>
<path d="M103.547 156.584C100.154 158.219 96.9488 159.411 94.0011 160.297C91.2077 161.131 88.637 161.694 86.3577 162.051C85.7408 162.153 85.1581 162.222 84.5754 162.29C78.543 163.022 74.9098 162.358 74.9098 162.358C74.9098 162.358 75.561 148.936 79.9997 148.919C85.0896 148.902 96.4004 150.367 96.8803 148.885C97.4287 147.216 94.8409 134.884 94.8409 134.884C96.7432 133.436 98.4055 133.981 98.4055 133.981C98.4055 133.981 108.74 154.08 103.547 156.584Z" fill="#FDAB3D"/>
<path d="M103.547 156.584C100.154 158.219 96.9489 159.411 94.0012 160.297C91.2078 161.131 88.6371 161.694 86.3578 162.051C83.8385 158.202 81.6792 154.165 85.0896 156.022C91.1049 159.292 103.547 156.584 103.547 156.584Z" fill="#ED7D2B"/>
<path d="M72.2347 255.204C72.2347 255.204 71.8406 259.684 72.8003 260.144L85.0023 260.127C85.0023 260.127 85.0023 258.73 83.0486 258.423C81.0949 258.117 77.6502 256.976 77.0675 254.438C76.4677 251.9 72.2347 255.204 72.2347 255.204Z" fill="#003E5A"/>
<path d="M81.1976 200.972C81.129 203.901 80.9919 206.916 80.7177 209.641C79.3981 222.535 78.9354 238.103 78.7469 241.101C78.4213 246.313 77.3759 254.642 77.3759 254.642C77.3759 254.642 75.3194 256.584 71.3092 255.664C71.3092 255.664 67.9845 243.673 67.2476 231.052C67.2304 230.847 67.2304 230.643 67.2133 230.422C67.1276 228.752 67.0419 226.845 66.9391 224.784C66.3221 211.004 65.6709 190.513 65.6709 190.513L80.9748 186.937C80.9919 186.937 81.3518 193.665 81.1976 200.972Z" fill="#006694"/>
<path d="M81.198 200.972C77.3248 207.631 69.9214 219.878 66.9565 224.784C66.3396 211.004 65.6883 190.513 65.6883 190.513L80.9923 186.937C80.9923 186.937 81.3522 193.665 81.198 200.972Z" fill="#003E5A"/>
<path d="M42.4329 188.094C42.4329 188.094 39.948 191.007 39.7252 191.808C39.5024 192.608 39.1082 195.521 39.3139 196.389C39.5195 197.258 41.1819 193.954 41.7817 193.596C42.3815 193.238 41.3361 194.908 41.5418 195.197C41.7474 195.47 42.9299 194.226 43.3926 193.8C43.8553 193.375 43.8039 191.092 44.3695 189.747C44.935 188.401 42.4329 188.094 42.4329 188.094Z" fill="#FFD398"/>
<path d="M41.8511 250.111C41.8511 250.111 39.6747 252.087 40.1031 253.484C40.5315 254.881 42.4852 255.817 42.7423 257.521C42.9994 259.224 44.0619 260.161 45.0216 260.161C45.9813 260.161 49.5631 260.161 49.5631 260.161C49.5631 260.161 50.2657 258.951 48.5691 258.594C46.8725 258.236 46.2384 256.226 46.3412 254.353C46.444 252.479 46.187 249.992 46.187 249.992L42.5881 249.157L41.8511 250.111Z" fill="#003E5A"/>
<path d="M78.5758 190.82C78.5758 190.82 64.2487 221.292 56.6224 234.663C48.9962 248.033 46.6141 251.764 46.6141 251.764C46.6141 251.764 42.2439 250.06 41.8498 248.885C41.8498 248.885 44.7632 223.08 49.8702 216.778C52.7493 213.218 56.1426 202.556 56.2968 198.825C56.4511 195.095 59.8101 186.187 59.8101 186.187L78.5758 190.82Z" fill="#006694"/>
<path d="M82.7742 192.251C82.7742 192.251 77.0845 196.032 69.0127 195.691C65.4652 195.538 58.4559 194.533 57.3248 191.74C57.0506 191.075 57.2562 190.258 57.6504 188.963C58.6786 185.642 61.0951 179.306 60.3753 165.271C60.3067 163.959 60.341 162.733 60.4781 161.591C61.2322 154.676 65.2252 150.588 69.0812 149.243C78.4726 145.972 81.6088 150.503 81.6088 150.503C81.6088 150.503 85.7561 153.773 86.3902 160.604C87.6241 174.264 82.7742 192.251 82.7742 192.251Z" fill="#FDAB3D"/>
<path d="M71.9968 151.133C71.9968 151.133 76.881 152.377 81.1483 150.299C81.1483 150.299 81.9709 149.805 81.2168 148.902C81.234 147.982 81.2168 148.067 81.1825 147.403C81.1311 145.853 80.994 145.001 80.994 145.001L77.635 143.128L74.0361 141.442C74.2247 142.225 74.3103 143.077 74.3789 143.758C74.9102 149.055 71.9968 151.133 71.9968 151.133Z" fill="#FFD398"/>
<path d="M74.7889 143.741C74.7889 143.741 77.3082 146.994 81.1813 147.403C81.1299 145.853 80.9242 144.286 80.9242 144.286L77.6338 143.111L74.7889 143.741Z" fill="#FFD398"/>
<path d="M83.8041 144.014C83.8041 144.014 76.2293 147.386 74.207 142.753C72.1677 138.12 69.8198 135.429 74.5669 133.078C79.3141 130.728 81.0278 132.091 82.1075 133.47C83.17 134.85 85.7235 143.026 83.8041 144.014Z" fill="#FFD398"/>
<path d="M68.7743 133.981C68.6886 133.913 68.5001 133.896 68.1231 133.981C68.1231 133.981 68.363 133.726 68.7572 133.606C68.7058 133.078 68.7229 132.108 69.5455 131.648C69.5455 131.648 69.1342 132.022 69.2199 132.585C69.9568 131.273 71.9448 129.927 78.1487 128.803C86.3062 127.321 85.038 133.095 84.164 133.981C83.29 134.867 80.2395 133.879 78.3543 134.543C76.4692 135.208 76.8462 138.069 76.2807 138.614C75.7322 139.159 75.8008 138.427 74.8068 138.256C73.8128 138.086 74.1213 139.568 74.6354 140.454C75.1496 141.339 74.2584 142.906 74.2584 142.906C74.2584 142.906 74.2584 142.906 72.6817 141.919C71.1051 140.931 68.4487 135.667 68.6886 134.322C68.7401 134.22 68.7572 134.1 68.7743 133.981Z" fill="#003E5A"/>
<path d="M94.1551 133.93L81.4047 137.933L80.7192 136.042L93.1612 131.188L94.1551 133.93Z" fill="#006694"/>
<path d="M103.905 131.307L90.0404 135.753L88.8065 132.312L102.362 127.015L103.905 131.307Z" fill="#006694"/>
<path d="M113.383 128.718L101.644 132.312L99.9814 127.679L111.344 123.063L113.383 128.718Z" fill="#003E5A"/>
<path d="M113.795 129.45C114.154 129.331 114.343 128.939 114.206 128.582L112.064 122.637C111.944 122.28 111.55 122.092 111.19 122.228C110.83 122.348 110.641 122.739 110.778 123.097L112.921 129.042C113.041 129.399 113.435 129.587 113.795 129.45Z" fill="#003E5A"/>
<path d="M81.4899 138.359C81.1643 138.478 80.8215 138.308 80.7016 137.984L80.1532 136.434C80.0332 136.11 80.2046 135.77 80.5302 135.65C80.8558 135.531 81.1986 135.702 81.3185 136.025L81.867 137.575C81.9698 137.899 81.7984 138.239 81.4899 138.359Z" fill="#006694"/>
<path d="M57.6514 188.98C58.6797 185.659 61.0961 179.323 60.3763 165.287C60.3077 163.976 60.342 162.75 60.4791 161.608C63.5639 161.336 68.2939 164.674 68.2939 164.674C68.2939 164.674 65.3634 182.303 57.6514 188.98Z" fill="#ED7D2B"/>
<path d="M71.8066 148.459C71.8066 148.459 63.8719 149.822 59.7417 154.829C55.6115 159.854 48.945 166.923 47.3854 169.409C45.8088 171.879 41.4387 188.759 41.4387 188.759C41.4387 188.759 41.73 189.304 42.9296 189.61C44.0779 189.917 44.9176 189.44 44.9176 189.44C44.9176 189.44 50.7101 179.595 52.8866 174.673C53.7949 172.629 69.4416 164.538 75.3198 165.373C77.6334 165.713 71.8066 148.459 71.8066 148.459Z" fill="#FDAB3D"/>
<path d="M93.948 130.302C93.948 130.302 95.6617 130.506 96.5701 129.944C97.4441 129.399 97.2213 129.025 97.2213 129.025C97.2213 129.025 94.0337 129.348 93.948 130.302Z" fill="#FFD398"/>
<path d="M79.5188 153.961C79.5188 153.961 76.0398 175.797 51.3445 182.167L48.6539 187.447L53.3839 188.248C53.3839 188.248 81.5068 180.157 81.1126 153.586L79.5188 153.961Z" fill="#FF642E"/>
<path d="M78.9697 150.469L77.8386 150.588V152.223L79.5181 153.961L81.1119 153.569V151.304L79.9637 150.469H78.9697Z" fill="#FF642E"/>
<path d="M74.3781 146.262C74.3781 146.262 73.1099 146.705 70.8649 148.459C70.8649 148.459 73.367 153.756 78.6625 154.387C78.6625 154.387 78.5768 151.934 78.9538 150.469C78.971 150.469 74.6694 149.123 74.3781 146.262Z" fill="#ED7D2B"/>
<path d="M78.97 150.469C78.97 150.469 81.5578 151.832 81.7463 153.961C81.7463 153.961 82.706 152.411 82.4489 151.338C82.0891 149.788 81.215 148.919 81.215 148.919C81.215 148.919 81.3693 150.316 78.97 150.469Z" fill="#ED7D2B"/>
<path d="M187.185 168.37C174.52 175.064 172.207 193.954 179.987 206.984C182.147 196.832 187.219 191.331 187.219 191.331C184.015 213.235 194.4 226.401 194.4 226.401C214.297 206.882 206.019 183.581 206.019 183.581C212.155 192.693 210.835 201.21 210.835 201.21C224.922 182.593 208.659 168.762 208.659 168.762C194.4 165.594 187.185 168.37 187.185 168.37Z" fill="#FDAB3D"/>
<path d="M191.522 166.923C184.89 171.981 187.889 180.379 187.889 180.379C190.374 174.451 192.105 172.884 192.105 172.884C189.294 183.751 196.047 193.783 196.047 193.783C207.512 182.934 202.199 172.339 202.199 172.339C206.792 174.434 206.689 180.481 206.689 180.481C209.843 172.935 204.616 167.263 204.616 167.263C198.652 166.514 191.522 166.923 191.522 166.923Z" fill="#ED7D2B"/>
<path d="M197.143 128.684H173.047C164.29 128.684 156.783 134.884 155.19 143.434L149.517 173.838C149.346 174.741 150.357 175.405 151.128 174.894L197.143 144.729V128.684Z" fill="#006694"/>
<path d="M181.462 146.16C179.371 136.519 167.238 130.506 167.238 130.506C173.733 151.269 160.314 163.295 150.46 168.83L149.534 173.838C149.363 174.741 150.374 175.405 151.145 174.894L182.73 154.199C182.456 151.133 181.959 148.391 181.462 146.16Z" fill="#003E5A"/>
<path d="M197.143 128.684H221.239C229.996 128.684 237.502 134.884 239.096 143.434L244.769 173.838C244.94 174.741 243.929 175.405 243.158 174.894L197.143 144.729V128.684Z" fill="#006694"/>
<path d="M243.174 174.894C243.945 175.405 244.956 174.741 244.785 173.838L239.112 143.434C238.649 140.964 237.69 138.682 236.353 136.689C240.826 159.019 237.621 168.37 227.664 161.966C217.707 155.562 215.222 149.174 216.216 141.816C212.052 144.797 209.241 148.101 207.544 151.525L243.174 174.894Z" fill="#003E5A"/>
<path d="M187.391 166.599H206.894C217.742 155.817 235.274 121.445 235.274 83.9214C235.274 39.2442 197.143 18.5151 197.143 18.5151C197.143 18.5151 159.011 39.2442 159.011 83.9214C159.011 121.445 175.995 155.255 187.391 166.599Z" fill="#53BDEB"/>
<path d="M209.087 145.7C198.462 158.457 191.076 161.949 178.102 154.097C181.307 159.479 184.529 163.755 187.391 166.599H206.894C217.742 155.817 235.274 121.445 235.274 83.9214C235.274 39.2442 197.142 18.5151 197.142 18.5151C239.918 48.3908 227.647 122.62 209.087 145.7Z" fill="#3196C1"/>
<path d="M197.468 93.9026C209.536 93.9026 219.318 84.1796 219.318 72.1857C219.318 60.1918 209.536 50.4688 197.468 50.4688C185.4 50.4688 175.617 60.1918 175.617 72.1857C175.617 84.1796 185.4 93.9026 197.468 93.9026Z" fill="#003E5A"/>
<path d="M196.08 93.068C208.148 93.068 217.93 83.3449 217.93 71.351C217.93 59.357 208.148 49.634 196.08 49.634C184.012 49.634 174.229 59.357 174.229 71.351C174.229 83.3449 184.012 93.068 196.08 93.068Z" fill="#006694"/>
<path d="M196.081 54.6592C196.952 54.6592 197.658 53.9576 197.658 53.0922C197.658 52.2267 196.952 51.5251 196.081 51.5251C195.21 51.5251 194.504 52.2267 194.504 53.0922C194.504 53.9576 195.21 54.6592 196.081 54.6592Z" fill="#FDAB3D"/>
<path d="M197.53 90.2219C197.865 89.4231 197.485 88.5056 196.681 88.1725C195.878 87.8395 194.955 88.2171 194.62 89.0159C194.284 89.8147 194.664 90.7323 195.468 91.0653C196.272 91.3983 197.195 91.0207 197.53 90.2219Z" fill="#FDAB3D"/>
<path d="M177.691 72.9183C178.561 72.9183 179.267 72.2167 179.267 71.3512C179.267 70.4858 178.561 69.7842 177.691 69.7842C176.82 69.7842 176.114 70.4858 176.114 71.3512C176.114 72.2167 176.82 72.9183 177.691 72.9183Z" fill="#FDAB3D"/>
<path d="M215.907 71.9302C216.239 71.1299 215.854 70.2141 215.049 69.8848C214.244 69.5555 213.322 69.9374 212.991 70.7377C212.66 71.5381 213.044 72.4538 213.849 72.7831C214.655 73.1124 215.576 72.7306 215.907 71.9302Z" fill="#FDAB3D"/>
<path d="M184.204 57.3329C184.821 57.9461 184.821 58.934 184.204 59.5472C183.587 60.1604 182.593 60.1604 181.976 59.5472C181.359 58.934 181.359 57.9461 181.976 57.3329C182.575 56.7198 183.587 56.7198 184.204 57.3329Z" fill="#FDAB3D"/>
<path d="M210.185 83.172C209.568 82.5589 208.574 82.5589 207.957 83.172C207.34 83.7852 207.34 84.7731 207.957 85.3863C208.574 85.9995 209.568 85.9995 210.185 85.3863C210.802 84.7731 210.802 83.7852 210.185 83.172Z" fill="#FDAB3D"/>
<path d="M181.976 83.172C182.593 82.5589 183.587 82.5589 184.204 83.172C184.821 83.7852 184.821 84.7731 184.204 85.3863C183.587 85.9995 182.593 85.9995 181.976 85.3863C181.359 84.7731 181.359 83.7852 181.976 83.172Z" fill="#FDAB3D"/>
<path d="M207.957 57.3329C207.34 57.9461 207.34 58.934 207.957 59.5472C208.574 60.1604 209.568 60.1604 210.185 59.5472C210.802 58.934 210.802 57.9461 210.185 57.3329C209.568 56.7198 208.574 56.7198 207.957 57.3329Z" fill="#FDAB3D"/>
<path d="M207.132 82.0679C212.841 76.394 212.841 67.1948 207.132 61.5209C201.424 55.847 192.168 55.847 186.459 61.5209C180.75 67.1948 180.75 76.394 186.459 82.0679C192.168 87.7418 201.424 87.7418 207.132 82.0679Z" fill="#FDAB3D"/>
<path d="M182.182 71.7942C182.182 63.7717 188.729 57.2651 196.801 57.2651C199.44 57.2651 201.925 57.9635 204.067 59.1898C201.77 57.6909 199.028 56.8223 196.081 56.8223C188.009 56.8223 181.462 63.3288 181.462 71.3513C181.462 76.7337 184.41 81.4518 188.797 83.9557C184.821 81.3667 182.182 76.887 182.182 71.7942Z" fill="#5D8DD4"/>
<path d="M184.701 75.8819C184.701 67.127 191.83 60.0413 200.639 60.0413C200.81 60.0413 200.982 60.0413 201.153 60.0583C199.697 59.4622 198.086 59.1385 196.406 59.1385C189.431 59.1385 183.776 64.7594 183.776 71.6918C183.776 73.361 184.101 74.9451 184.701 76.4099C184.701 76.2225 184.701 76.0522 184.701 75.8819Z" fill="#FFD398"/>
<path d="M208.66 168.762H185.627C184.428 168.762 183.451 167.791 183.451 166.599C183.451 165.407 184.428 164.436 185.627 164.436H208.66C209.86 164.436 210.837 165.407 210.837 166.599C210.837 167.791 209.86 168.762 208.66 168.762Z" fill="#006694"/>
<path d="M208.659 164.436H208.282C208.625 164.828 208.848 165.322 208.848 165.884C208.848 167.076 207.871 168.047 206.671 168.047H184.015C184.41 168.49 184.992 168.762 185.626 168.762H208.659C209.859 168.762 210.836 167.791 210.836 166.599C210.836 165.407 209.859 164.436 208.659 164.436Z" fill="#003E5A"/>
<path d="M0.5 260.852V261.148C0.5 261.623 0.698615 262 0.925604 262H375.074C375.301 262 375.5 261.607 375.5 261.148V260.852C375.5 260.377 375.301 260 375.074 260H0.925604C0.698615 260 0.5 260.377 0.5 260.852Z" fill="#003E5A"/>
</g>
<defs>
<clipPath id="clip0_205_417">
<rect width="375" height="262" fill="white" transform="translate(0.5)"/>
</clipPath>
</defs>
</svg>
