<svg width="29" height="33" viewBox="0 0 29 33" fill="none" xmlns="http://www.w3.org/2000/svg">
<path d="M23.25 1.625H3.75C2.40612 1.625 1.3125 2.71862 1.3125 4.0625V17.0625C1.3125 18.4064 2.40612 19.5 3.75 19.5H6.1875V23.5625C6.1875 23.8753 6.36706 24.1589 6.64737 24.2946C6.76031 24.3482 6.88056 24.375 7 24.375C7.18119 24.375 7.36075 24.3149 7.50781 24.1971L13.3789 19.5H23.25C24.5939 19.5 25.6875 18.4064 25.6875 17.0625V4.0625C25.6875 2.71862 24.5939 1.625 23.25 1.625ZM13.5 13H7C6.55069 13 6.1875 12.636 6.1875 12.1875C6.1875 11.739 6.55069 11.375 7 11.375H13.5C13.9493 11.375 14.3125 11.739 14.3125 12.1875C14.3125 12.636 13.9493 13 13.5 13ZM20 9.75H7C6.55069 9.75 6.1875 9.386 6.1875 8.9375C6.1875 8.489 6.55069 8.125 7 8.125H20C20.4493 8.125 20.8125 8.489 20.8125 8.9375C20.8125 9.386 20.4493 9.75 20 9.75Z" fill="url(#paint0_linear_14_156)" fill-opacity="0.5"/>
<path d="M19.4 25C19.4 24.1163 20.1163 23.4 21 23.4C21.8837 23.4 22.6 24.1163 22.6 25C22.6 25.8837 21.8837 26.6 21 26.6C20.1163 26.6 19.4 25.8837 19.4 25Z" fill="url(#paint1_linear_14_156)"/>
<path fill-rule="evenodd" clip-rule="evenodd" d="M20.3809 17C19.7032 17 19.1538 17.5494 19.1538 18.2271V18.5859C19.1538 18.9084 18.9406 19.1902 18.6427 19.3138C18.3447 19.4375 17.9983 19.3873 17.7702 19.1592L17.5163 18.9053C17.0372 18.4262 16.2603 18.4262 15.7811 18.9053L14.9054 19.781C14.4263 20.2601 14.4263 21.037 14.9054 21.5162L15.1592 21.7699C15.3874 21.9981 15.4375 22.3446 15.3138 22.6426C15.1902 22.9406 14.9084 23.1538 14.5858 23.1538H14.2271C13.5494 23.1538 13 23.7032 13 24.3809V25.6191C13 26.2968 13.5494 26.8462 14.2271 26.8462H14.5859C14.9084 26.8462 15.1902 27.0594 15.3138 27.3573C15.4375 27.6553 15.3873 28.0017 15.1592 28.2299L14.9053 28.4837C14.4261 28.9629 14.4261 29.7399 14.9053 30.2191L15.7808 31.0946C16.26 31.5738 17.0369 31.5738 17.5161 31.0946L17.7699 30.8408C17.9981 30.6126 18.3446 30.5625 18.6427 30.6862C18.9406 30.8098 19.1538 31.0916 19.1538 31.4142V31.7729C19.1538 32.4506 19.7032 33 20.3809 33H21.6191C22.2968 33 22.8462 32.4506 22.8462 31.7729V31.414C22.8462 31.0915 23.0594 30.8098 23.3572 30.6862C23.6552 30.5626 24.0016 30.6127 24.2297 30.8409L24.4835 31.0947C24.9627 31.5738 25.7396 31.5738 26.2187 31.0947L27.0945 30.2189C27.5736 29.7398 27.5736 28.963 27.0945 28.4839L26.8408 28.2302C26.6126 28.002 26.5624 27.6555 26.6862 27.3574C26.8098 27.0594 27.0916 26.8462 27.4142 26.8462H27.7729C28.4506 26.8462 29 26.2968 29 25.6191V24.3809C29 23.7032 28.4506 23.1538 27.7729 23.1538H27.4141C27.0916 23.1538 26.8098 22.9406 26.6862 22.6427C26.5625 22.3447 26.6127 21.9982 26.8408 21.7701L27.0947 21.5162C27.5739 21.037 27.5739 20.2601 27.0947 19.7809L26.2191 18.9054C25.7399 18.4262 24.963 18.4262 24.4838 18.9054L24.23 19.1592C24.0018 19.3874 23.6554 19.4375 23.3573 19.3138C23.0594 19.1902 22.8462 18.9084 22.8462 18.5858V18.2271C22.8462 17.5494 22.2968 17 21.6191 17H20.3809ZM21 21.8C19.2327 21.8 17.8 23.2327 17.8 25C17.8 26.7673 19.2327 28.2 21 28.2C22.7673 28.2 24.2 26.7673 24.2 25C24.2 23.2327 22.7673 21.8 21 21.8Z" fill="url(#paint2_linear_14_156)"/>
<defs>
<linearGradient id="paint0_linear_14_156" x1="4.96875" y1="21.5312" x2="22.4828" y2="1.55556" gradientUnits="userSpaceOnUse">
<stop stop-color="#42D872"/>
<stop offset="1" stop-color="#97E89C"/>
</linearGradient>
<linearGradient id="paint1_linear_14_156" x1="21" y1="17" x2="21" y2="33" gradientUnits="userSpaceOnUse">
<stop stop-color="#42D872"/>
<stop offset="1" stop-color="#97E89C"/>
</linearGradient>
<linearGradient id="paint2_linear_14_156" x1="21" y1="17" x2="21" y2="33" gradientUnits="userSpaceOnUse">
<stop stop-color="#42D872"/>
<stop offset="1" stop-color="#97E89C"/>
</linearGradient>
</defs>
</svg>
