<svg width="29" height="30" viewBox="0 0 29 30" fill="none" xmlns="http://www.w3.org/2000/svg">
<path opacity="0.5" d="M23.25 1.625H3.75C2.40612 1.625 1.3125 2.71862 1.3125 4.0625V17.0625C1.3125 18.4064 2.40612 19.5 3.75 19.5H6.1875V23.5625C6.1875 23.8753 6.36706 24.1589 6.64737 24.2946C6.76031 24.3482 6.88056 24.375 7 24.375C7.18119 24.375 7.36075 24.3149 7.50781 24.1971L13.3789 19.5H23.25C24.5939 19.5 25.6875 18.4064 25.6875 17.0625V4.0625C25.6875 2.71862 24.5939 1.625 23.25 1.625ZM13.5 13H7C6.55069 13 6.1875 12.636 6.1875 12.1875C6.1875 11.739 6.55069 11.375 7 11.375H13.5C13.9493 11.375 14.3125 11.739 14.3125 12.1875C14.3125 12.636 13.9493 13 13.5 13ZM20 9.75H7C6.55069 9.75 6.1875 9.386 6.1875 8.9375C6.1875 8.489 6.55069 8.125 7 8.125H20C20.4493 8.125 20.8125 8.489 20.8125 8.9375C20.8125 9.386 20.4493 9.75 20 9.75Z" fill="url(#paint0_linear_1_4)"/>
<path d="M19.4 22C19.4 21.1163 20.1163 20.4 21 20.4C21.8837 20.4 22.6 21.1163 22.6 22C22.6 22.8837 21.8837 23.6 21 23.6C20.1163 23.6 19.4 22.8837 19.4 22Z" fill="url(#paint1_linear_1_4)"/>
<path fill-rule="evenodd" clip-rule="evenodd" d="M20.3809 14C19.7032 14 19.1538 14.5494 19.1538 15.2271V15.5859C19.1538 15.9084 18.9406 16.1902 18.6427 16.3138C18.3447 16.4375 17.9983 16.3873 17.7702 16.1592L17.5163 15.9053C17.0372 15.4262 16.2603 15.4262 15.7811 15.9053L14.9054 16.781C14.4263 17.2601 14.4263 18.037 14.9054 18.5162L15.1592 18.7699C15.3874 18.9981 15.4375 19.3446 15.3138 19.6426C15.1902 19.9406 14.9084 20.1538 14.5858 20.1538H14.2271C13.5494 20.1538 13 20.7032 13 21.3809V22.6191C13 23.2968 13.5494 23.8462 14.2271 23.8462H14.5859C14.9084 23.8462 15.1902 24.0594 15.3138 24.3573C15.4375 24.6553 15.3873 25.0017 15.1592 25.2299L14.9053 25.4837C14.4261 25.9629 14.4261 26.7399 14.9053 27.2191L15.7808 28.0946C16.26 28.5738 17.0369 28.5738 17.5161 28.0946L17.7699 27.8408C17.9981 27.6126 18.3446 27.5625 18.6427 27.6862C18.9406 27.8098 19.1538 28.0916 19.1538 28.4142V28.7729C19.1538 29.4506 19.7032 30 20.3809 30H21.6191C22.2968 30 22.8462 29.4506 22.8462 28.7729V28.414C22.8462 28.0915 23.0594 27.8098 23.3572 27.6862C23.6552 27.5626 24.0016 27.6127 24.2297 27.8409L24.4835 28.0947C24.9627 28.5738 25.7396 28.5738 26.2187 28.0947L27.0945 27.2189C27.5736 26.7398 27.5736 25.963 27.0945 25.4839L26.8408 25.2302C26.6126 25.002 26.5624 24.6555 26.6862 24.3574C26.8098 24.0594 27.0916 23.8462 27.4142 23.8462H27.7729C28.4506 23.8462 29 23.2968 29 22.6191V21.3809C29 20.7032 28.4506 20.1538 27.7729 20.1538H27.4141C27.0916 20.1538 26.8098 19.9406 26.6862 19.6427C26.5625 19.3447 26.6127 18.9982 26.8408 18.7701L27.0947 18.5162C27.5739 18.037 27.5739 17.2601 27.0947 16.7809L26.2191 15.9054C25.7399 15.4262 24.963 15.4262 24.4838 15.9054L24.23 16.1592C24.0018 16.3874 23.6554 16.4375 23.3573 16.3138C23.0594 16.1902 22.8462 15.9084 22.8462 15.5858V15.2271C22.8462 14.5494 22.2968 14 21.6191 14H20.3809ZM21 18.8C19.2327 18.8 17.8 20.2327 17.8 22C17.8 23.7673 19.2327 25.2 21 25.2C22.7673 25.2 24.2 23.7673 24.2 22C24.2 20.2327 22.7673 18.8 21 18.8Z" fill="url(#paint2_linear_1_4)"/>
<defs>
<linearGradient id="paint0_linear_1_4" x1="1.3125" y1="24.3908" x2="29.2714" y2="7.56396" gradientUnits="userSpaceOnUse">
<stop stop-color="#269BE9"/>
<stop offset="1" stop-color="#6CD1F1"/>
</linearGradient>
<linearGradient id="paint1_linear_1_4" x1="21" y1="14" x2="21" y2="30" gradientUnits="userSpaceOnUse">
<stop stop-color="#269BE9"/>
<stop offset="1" stop-color="#6CD1F1"/>
</linearGradient>
<linearGradient id="paint2_linear_1_4" x1="21" y1="14" x2="21" y2="30" gradientUnits="userSpaceOnUse">
<stop stop-color="#269BE9"/>
<stop offset="1" stop-color="#6CD1F1"/>
</linearGradient>
</defs>
</svg>
