<svg width="28" height="32" viewBox="0 0 28 32" fill="none" xmlns="http://www.w3.org/2000/svg">
<path fill-rule="evenodd" clip-rule="evenodd" d="M9.7578 21.2897L12.3675 24.8842C12.6044 25.2105 12.5629 25.6724 12.2752 25.949L11.3777 26.8122C11.2174 26.9663 11.0245 27.0349 10.8089 27.0143C10.5934 26.9936 10.4159 26.889 10.2836 26.7075L7.39025 22.7383L9.7578 21.2897ZM24.0738 12.0645H26.7317C27.1568 12.0645 27.5009 11.6965 27.5 11.2466C27.4991 10.796 27.1525 10.4319 26.7279 10.4319H24.07C23.6448 10.4319 23.3008 10.7999 23.3017 11.2498C23.3025 11.7005 23.6491 12.0645 24.0738 12.0645ZM20.9189 4.6479L22.2479 2.20845C22.4602 1.81872 22.3361 1.31855 21.9683 1.09243C21.601 0.866652 21.1283 0.998384 20.9158 1.38858L19.5868 3.82802C19.3745 4.21775 19.4986 4.71792 19.8664 4.94405C20.2336 5.16982 20.7063 5.03809 20.9189 4.6479ZM23.9941 7.56995L26.1762 6.23478C26.5466 6.00813 26.6735 5.50628 26.4596 5.11364C26.2458 4.72106 25.7722 4.5866 25.4017 4.81325L23.2197 6.14847C22.8492 6.37512 22.7224 6.87698 22.9362 7.26961C23.1501 7.66213 23.6236 7.7966 23.9941 7.56995ZM20.5621 11.2438L23.1359 15.9683C23.6191 16.8553 23.3296 18.0001 22.4927 18.5122C21.7117 18.9901 20.7189 18.7549 20.197 18.0005C17.3481 17.5412 13.6369 18.0345 9.94674 19.5591L6.39909 13.047C9.49115 10.4252 11.7568 7.28253 12.8061 4.43812C12.4375 3.57805 12.7403 2.53688 13.5274 2.05526C14.3644 1.54311 15.4445 1.8499 15.9278 2.73689L18.5016 7.46143C18.5748 7.4014 18.6527 7.34586 18.7351 7.29544C19.7296 6.68691 21.0014 7.04803 21.5756 8.10205C22.1498 9.15608 21.809 10.5039 20.8145 11.1124C20.7321 11.1628 20.6478 11.2066 20.5621 11.2438ZM9.0547 20.248L5.33731 13.4244L2.38207 15.2326C0.586349 16.3313 -0.0345425 18.7874 1.00216 20.6904C2.03892 22.5934 4.35636 23.2516 6.15209 22.1529L9.10733 20.3446L9.0547 20.248Z" fill="url(#paint0_linear_15_201)" fill-opacity="0.5"/>
<path d="M18.4 24C18.4 23.1163 19.1163 22.4 20 22.4C20.8837 22.4 21.6 23.1163 21.6 24C21.6 24.8837 20.8837 25.6 20 25.6C19.1163 25.6 18.4 24.8837 18.4 24Z" fill="url(#paint1_linear_15_201)"/>
<path fill-rule="evenodd" clip-rule="evenodd" d="M19.3809 16C18.7032 16 18.1538 16.5494 18.1538 17.2271V17.5859C18.1538 17.9084 17.9406 18.1902 17.6427 18.3138C17.3447 18.4375 16.9983 18.3873 16.7702 18.1592L16.5163 17.9053C16.0372 17.4262 15.2603 17.4262 14.7811 17.9053L13.9054 18.781C13.4263 19.2601 13.4263 20.037 13.9054 20.5162L14.1592 20.7699C14.3874 20.9981 14.4375 21.3446 14.3138 21.6426C14.1902 21.9406 13.9084 22.1538 13.5858 22.1538H13.2271C12.5494 22.1538 12 22.7032 12 23.3809V24.6191C12 25.2968 12.5494 25.8462 13.2271 25.8462H13.5859C13.9084 25.8462 14.1902 26.0594 14.3138 26.3573C14.4375 26.6553 14.3873 27.0017 14.1592 27.2299L13.9053 27.4837C13.4261 27.9629 13.4261 28.7399 13.9053 29.2191L14.7808 30.0946C15.26 30.5738 16.0369 30.5738 16.5161 30.0946L16.7699 29.8408C16.9981 29.6126 17.3446 29.5625 17.6427 29.6862C17.9406 29.8098 18.1538 30.0916 18.1538 30.4142V30.7729C18.1538 31.4506 18.7032 32 19.3809 32H20.6191C21.2968 32 21.8462 31.4506 21.8462 30.7729V30.414C21.8462 30.0915 22.0594 29.8098 22.3572 29.6862C22.6552 29.5626 23.0016 29.6127 23.2297 29.8409L23.4835 30.0947C23.9627 30.5738 24.7396 30.5738 25.2187 30.0947L26.0945 29.2189C26.5736 28.7398 26.5736 27.963 26.0945 27.4839L25.8408 27.2302C25.6126 27.002 25.5624 26.6555 25.6862 26.3574C25.8098 26.0594 26.0916 25.8462 26.4142 25.8462H26.7729C27.4506 25.8462 28 25.2968 28 24.6191V23.3809C28 22.7032 27.4506 22.1538 26.7729 22.1538H26.4141C26.0916 22.1538 25.8098 21.9406 25.6862 21.6427C25.5625 21.3447 25.6127 20.9982 25.8408 20.7701L26.0947 20.5162C26.5739 20.037 26.5739 19.2601 26.0947 18.7809L25.2191 17.9054C24.7399 17.4262 23.963 17.4262 23.4838 17.9054L23.23 18.1592C23.0018 18.3874 22.6554 18.4375 22.3573 18.3138C22.0594 18.1902 21.8462 17.9084 21.8462 17.5858V17.2271C21.8462 16.5494 21.2968 16 20.6191 16H19.3809ZM20 20.8C18.2327 20.8 16.8 22.2327 16.8 24C16.8 25.7673 18.2327 27.2 20 27.2C21.7673 27.2 23.2 25.7673 23.2 24C23.2 22.2327 21.7673 20.8 20 20.8Z" fill="url(#paint2_linear_15_201)"/>
<defs>
<linearGradient id="paint0_linear_15_201" x1="0.5" y1="27.0359" x2="31.9989" y2="8.68708" gradientUnits="userSpaceOnUse">
<stop stop-color="#42D872"/>
<stop offset="1" stop-color="#97E89C"/>
</linearGradient>
<linearGradient id="paint1_linear_15_201" x1="20" y1="16" x2="20" y2="32" gradientUnits="userSpaceOnUse">
<stop stop-color="#42D872"/>
<stop offset="1" stop-color="#97E89C"/>
</linearGradient>
<linearGradient id="paint2_linear_15_201" x1="20" y1="16" x2="20" y2="32" gradientUnits="userSpaceOnUse">
<stop stop-color="#42D872"/>
<stop offset="1" stop-color="#97E89C"/>
</linearGradient>
</defs>
</svg>
