<svg width="30" height="32" viewBox="0 0 30 32" fill="none" xmlns="http://www.w3.org/2000/svg">
<path d="M16.7933 3.77602C18.0417 4.53389 18.9171 5.81638 19.0765 7.30506C19.5857 7.53539 20.1507 7.66785 20.7498 7.66785C22.937 7.66785 24.7097 5.95145 24.7097 3.83409C24.7097 1.7164 22.937 0 20.7498 0C18.5836 0.0006525 16.8264 1.68639 16.7933 3.77602ZM14.1991 11.6262C16.3863 11.6262 18.159 9.90951 18.159 7.79215C18.159 5.67479 16.386 3.95839 14.1991 3.95839C12.0123 3.95839 10.2386 5.67512 10.2386 7.79248C10.2386 9.90984 12.0123 11.6262 14.1991 11.6262ZM15.8788 11.8876H12.5188C9.72306 11.8876 7.44863 14.0901 7.44863 16.797V20.7756L7.45908 20.8379L7.74212 20.9237C10.4101 21.7308 12.728 22 14.6358 22C18.3622 22 20.5221 20.9713 20.6551 20.9058L20.9197 20.7762H20.948V16.797C20.949 14.0901 18.6745 11.8876 15.8788 11.8876ZM22.4302 7.9295H19.0961C19.06 9.22112 18.4906 10.3842 17.5899 11.2207C20.0749 11.9362 21.8931 14.1674 21.8931 16.8028V18.0289C25.1851 17.9121 27.0822 17.0087 27.2072 16.948L27.4717 16.8182H27.5V12.8383C27.5 10.1317 25.2256 7.9295 22.4302 7.9295ZM7.25084 7.6685C8.0255 7.6685 8.74624 7.44959 9.3568 7.07668C9.55088 5.85096 10.2295 4.77989 11.1989 4.05039C11.203 3.97862 11.21 3.90749 11.21 3.83507C11.21 1.71738 9.43699 0.000978678 7.25084 0.000978678C5.06335 0.000978678 3.29098 1.71738 3.29098 3.83507C3.29098 5.95177 5.06335 7.6685 7.25084 7.6685ZM10.807 11.2207C9.91075 10.3884 9.34332 9.23156 9.30187 7.94777C9.17821 7.93896 9.0559 7.9295 8.92988 7.9295H5.57012C2.77443 7.9295 0.5 10.1317 0.5 12.8383V16.8175L0.510446 16.8789L0.793486 16.9653C2.93381 17.6123 4.84399 17.9105 6.50315 18.0044V16.8028C6.50382 14.1674 8.32134 11.9368 10.807 11.2207Z" fill="url(#paint0_linear_14_149)" fill-opacity="0.5"/>
<path d="M20.4 24C20.4 23.1163 21.1163 22.4 22 22.4C22.8837 22.4 23.6 23.1163 23.6 24C23.6 24.8837 22.8837 25.6 22 25.6C21.1163 25.6 20.4 24.8837 20.4 24Z" fill="url(#paint1_linear_14_149)"/>
<path fill-rule="evenodd" clip-rule="evenodd" d="M21.3809 16C20.7032 16 20.1538 16.5494 20.1538 17.2271V17.5859C20.1538 17.9084 19.9406 18.1902 19.6427 18.3138C19.3447 18.4375 18.9983 18.3873 18.7702 18.1592L18.5163 17.9053C18.0372 17.4262 17.2603 17.4262 16.7811 17.9053L15.9054 18.781C15.4263 19.2601 15.4263 20.037 15.9054 20.5162L16.1592 20.7699C16.3874 20.9981 16.4375 21.3446 16.3138 21.6426C16.1902 21.9406 15.9084 22.1538 15.5858 22.1538H15.2271C14.5494 22.1538 14 22.7032 14 23.3809V24.6191C14 25.2968 14.5494 25.8462 15.2271 25.8462H15.5859C15.9084 25.8462 16.1902 26.0594 16.3138 26.3573C16.4375 26.6553 16.3873 27.0017 16.1592 27.2299L15.9053 27.4837C15.4261 27.9629 15.4261 28.7399 15.9053 29.2191L16.7808 30.0946C17.26 30.5738 18.0369 30.5738 18.5161 30.0946L18.7699 29.8408C18.9981 29.6126 19.3446 29.5625 19.6427 29.6862C19.9406 29.8098 20.1538 30.0916 20.1538 30.4142V30.7729C20.1538 31.4506 20.7032 32 21.3809 32H22.6191C23.2968 32 23.8462 31.4506 23.8462 30.7729V30.414C23.8462 30.0915 24.0594 29.8098 24.3572 29.6862C24.6552 29.5626 25.0016 29.6127 25.2297 29.8409L25.4835 30.0947C25.9627 30.5738 26.7396 30.5738 27.2187 30.0947L28.0945 29.2189C28.5736 28.7398 28.5736 27.963 28.0945 27.4839L27.8408 27.2302C27.6126 27.002 27.5624 26.6555 27.6862 26.3574C27.8098 26.0594 28.0916 25.8462 28.4142 25.8462H28.7729C29.4506 25.8462 30 25.2968 30 24.6191V23.3809C30 22.7032 29.4506 22.1538 28.7729 22.1538H28.4141C28.0916 22.1538 27.8098 21.9406 27.6862 21.6427C27.5625 21.3447 27.6127 20.9982 27.8408 20.7701L28.0947 20.5162C28.5739 20.037 28.5739 19.2601 28.0947 18.7809L27.2191 17.9054C26.7399 17.4262 25.963 17.4262 25.4838 17.9054L25.23 18.1592C25.0018 18.3874 24.6554 18.4375 24.3573 18.3138C24.0594 18.1902 23.8462 17.9084 23.8462 17.5858V17.2271C23.8462 16.5494 23.2968 16 22.6191 16H21.3809ZM22 20.8C20.2327 20.8 18.8 22.2327 18.8 24C18.8 25.7673 20.2327 27.2 22 27.2C23.7673 27.2 25.2 25.7673 25.2 24C25.2 22.2327 23.7673 20.8 22 20.8Z" fill="url(#paint2_linear_14_149)"/>
<defs>
<linearGradient id="paint0_linear_14_149" x1="4.55" y1="19.25" x2="21.0406" y2="-2.29421" gradientUnits="userSpaceOnUse">
<stop stop-color="#42D872"/>
<stop offset="1" stop-color="#97E89C"/>
</linearGradient>
<linearGradient id="paint1_linear_14_149" x1="22" y1="16" x2="22" y2="32" gradientUnits="userSpaceOnUse">
<stop stop-color="#42D872"/>
<stop offset="1" stop-color="#97E89C"/>
</linearGradient>
<linearGradient id="paint2_linear_14_149" x1="22" y1="16" x2="22" y2="32" gradientUnits="userSpaceOnUse">
<stop stop-color="#42D872"/>
<stop offset="1" stop-color="#97E89C"/>
</linearGradient>
</defs>
</svg>
