<svg width="33" height="30" viewBox="0 0 33 30" fill="none" xmlns="http://www.w3.org/2000/svg">
<path d="M32.9924 18.1802V7.68795C32.9924 3.45136 29.4879 0.00499839 25.1798 0.00499839L7.52243 0.00963992C7.34424 -0.0066056 5.74654 -0.10988 4.49222 1.02034C3.61194 1.81173 3.16237 2.96516 3.14585 4.44118C1.29445 5.29291 0 7.12865 0 9.26842V19.8036C0 22.7476 2.4355 25.1426 5.4303 25.1426H9.75968L9.75375 28.025C9.75375 29.3212 10.6506 30 11.5367 30C11.9486 30 12.3746 29.8596 12.771 29.595C12.8041 29.5718 12.8371 29.5474 12.8678 29.5219L18.1517 25.1426H23.4924C25.6624 25.1426 27.5244 23.8766 28.3929 22.0641C28.623 22.0873 28.8578 22.1151 29.0738 22.1151C30.2195 22.1151 31.1493 21.7902 31.8479 21.145C33.1116 19.973 33.0055 18.2731 32.9924 18.1802ZM6.88405 17.2159C5.4303 17.2159 4.24678 16.0521 4.24678 14.6213C4.24678 13.1906 5.4303 12.0267 6.88405 12.0267C8.33895 12.0267 9.52253 13.1894 9.52253 14.6213C9.52253 16.0532 8.34015 17.2159 6.88405 17.2159ZM14.4702 17.2159C13.0153 17.2159 11.8318 16.0521 11.8318 14.6213C11.8318 13.1906 13.0153 12.0267 14.4702 12.0267C15.9239 12.0267 17.1086 13.1894 17.1086 14.6213C17.1086 16.0532 15.9239 17.2159 14.4702 17.2159ZM22.0375 17.2159C20.5826 17.2159 19.4002 16.0521 19.4002 14.6213C19.4002 13.1906 20.5826 12.0267 22.0375 12.0267C23.4924 12.0267 24.6759 13.1894 24.6759 14.6213C24.6759 16.0532 23.4924 17.2159 22.0375 17.2159ZM30.2289 19.4532C29.9186 19.741 29.4065 19.8048 28.9215 19.7874V9.26842C28.9215 6.3245 26.486 3.92829 23.4912 3.92829H5.53886C5.6132 3.40263 5.7902 3.00461 6.07222 2.74353C6.57371 2.28169 7.32183 2.32346 7.41858 2.32579H25.181C28.1876 2.32579 30.6337 4.73128 30.6337 7.68795L30.6384 18.2765C30.6372 18.2847 30.6656 19.0505 30.2289 19.4532Z" fill="white"/>
</svg>
