<svg width="44" height="40" viewBox="0 0 44 40" fill="none" xmlns="http://www.w3.org/2000/svg">
<path d="M43.9899 24.2403V10.2506C43.9899 4.60182 39.3172 0.00666459 33.573 0.00666459L10.0299 0.0128533C9.79232 -0.0088074 7.66205 -0.146507 5.98962 1.36046C4.81592 2.41564 4.21649 3.95355 4.19446 5.92158C1.72593 7.05721 0 9.50487 0 12.3579V26.4048C0 30.3301 3.24733 33.5235 7.2404 33.5235H13.0129L13.005 37.3667C13.005 39.0949 14.2008 40 15.3823 40C15.9314 40 16.4994 39.8128 17.028 39.46C17.0721 39.4291 17.1161 39.3966 17.157 39.3626L24.2023 33.5235H31.3232C34.2165 33.5235 36.6992 31.8355 37.8572 29.4188C38.164 29.4497 38.477 29.4868 38.765 29.4868C40.2926 29.4868 41.5324 29.0536 42.4638 28.1934C44.1488 26.6307 44.0073 24.3641 43.9899 24.2403ZM9.17873 22.9546C7.2404 22.9546 5.66237 21.4028 5.66237 19.4951C5.66237 17.5874 7.2404 16.0356 9.17873 16.0356C11.1186 16.0356 12.6967 17.5858 12.6967 19.4951C12.6967 21.4043 11.1202 22.9546 9.17873 22.9546ZM19.2936 22.9546C17.3537 22.9546 15.7757 21.4028 15.7757 19.4951C15.7757 17.5874 17.3537 16.0356 19.2936 16.0356C21.2319 16.0356 22.8115 17.5858 22.8115 19.4951C22.8115 21.4043 21.2319 22.9546 19.2936 22.9546ZM29.3833 22.9546C27.4434 22.9546 25.8669 21.4028 25.8669 19.4951C25.8669 17.5874 27.4434 16.0356 29.3833 16.0356C31.3232 16.0356 32.9012 17.5858 32.9012 19.4951C32.9012 21.4043 31.3232 22.9546 29.3833 22.9546ZM40.3052 25.9376C39.8915 26.3213 39.2086 26.4064 38.562 26.3832V12.3579C38.562 8.43267 35.3147 5.23772 31.3216 5.23772H7.38515C7.48427 4.53684 7.72027 4.00615 8.09629 3.65804C8.76495 3.04225 9.76243 3.09795 9.89144 3.10105H33.5746C37.5834 3.10105 40.8449 6.30837 40.8449 10.2506L40.8512 24.3687C40.8496 24.3796 40.8874 25.4007 40.3052 25.9376Z" fill="url(#paint0_linear_15_862)"/>
<defs>
<linearGradient id="paint0_linear_15_862" x1="6.5" y1="34.5455" x2="34.5117" y2="3.23559" gradientUnits="userSpaceOnUse">
<stop stop-color="#42D872"/>
<stop offset="1" stop-color="#97E89C"/>
</linearGradient>
</defs>
</svg>
