<svg width="29" height="25" viewBox="0 0 29 25" fill="none" xmlns="http://www.w3.org/2000/svg">
<path d="M17 0H3C2.20435 0 1.44129 0.316071 0.87868 0.87868C0.316071 1.44129 0 2.20435 0 3V17C0 17.7957 0.316071 18.5587 0.87868 19.1213C1.44129 19.6839 2.20435 20 3 20H17C17.7957 20 18.5587 19.6839 19.1213 19.1213C19.6839 18.5587 20 17.7957 20 17V3C20 2.20435 19.6839 1.44129 19.1213 0.87868C18.5587 0.316071 17.7957 0 17 0ZM15.71 6.69L8.25 14.63C8.15589 14.7287 8.04259 14.8072 7.91705 14.8605C7.79151 14.9138 7.65639 14.9408 7.52 14.94C7.38361 14.9408 7.24849 14.9138 7.12295 14.8605C6.99742 14.8072 6.88411 14.7287 6.79 14.63L4.31 12C4.20874 11.9072 4.12768 11.7945 4.0719 11.669C4.01611 11.5434 3.98678 11.4078 3.98574 11.2704C3.98471 11.133 4.01198 10.9969 4.06587 10.8706C4.11975 10.7442 4.19909 10.6303 4.29894 10.536C4.39879 10.4416 4.51701 10.3689 4.64622 10.3222C4.77543 10.2756 4.91286 10.2561 5.04994 10.2649C5.18703 10.2737 5.32083 10.3107 5.44299 10.3735C5.56516 10.4363 5.67307 10.5236 5.76 10.63L7.52 12.5L14.25 5.34C14.343 5.24627 14.4536 5.17188 14.5754 5.12111C14.6973 5.07034 14.828 5.0442 14.96 5.0442C15.092 5.0442 15.2227 5.07034 15.3446 5.12111C15.4664 5.17188 15.577 5.24627 15.67 5.34C15.8442 5.5193 15.9449 5.75735 15.9523 6.00723C15.9597 6.25711 15.8733 6.5007 15.71 6.69Z" fill="url(#paint0_linear_75_243)" fill-opacity="0.5"/>
<rect x="9" y="12" width="13" height="13" rx="6.5" fill="url(#paint1_linear_75_243)"/>
<path d="M18.3848 17.8848H16.1152V15.6152C16.1152 15.2754 15.8398 15 15.5 15C15.1602 15 14.8848 15.2754 14.8848 15.6152V17.8848H12.6152C12.2754 17.8848 12 18.1602 12 18.5C12 18.8398 12.2754 19.1152 12.6152 19.1152H14.8848V21.3848C14.8848 21.7246 15.1602 22 15.5 22C15.8398 22 16.1152 21.7246 16.1152 21.3848V19.1152H18.3848C18.7246 19.1152 19 18.8398 19 18.5C19 18.1602 18.7246 17.8848 18.3848 17.8848Z" fill="white"/>
<defs>
<linearGradient id="paint0_linear_75_243" x1="3" y1="17.5" x2="18.5" y2="0.999999" gradientUnits="userSpaceOnUse">
<stop stop-color="#F866AA"/>
<stop offset="1" stop-color="#FDA0CB"/>
</linearGradient>
<linearGradient id="paint1_linear_75_243" x1="10.9205" y1="23.2273" x2="20.0795" y2="13.9205" gradientUnits="userSpaceOnUse">
<stop stop-color="#F866AA"/>
<stop offset="1" stop-color="#FDA0CB"/>
</linearGradient>
</defs>
</svg>
