<svg width="31" height="32" viewBox="0 0 31 32" fill="none" xmlns="http://www.w3.org/2000/svg">
<path d="M16.7933 3.77602C18.0417 4.53389 18.9171 5.81638 19.0765 7.30506C19.5857 7.53539 20.1507 7.66785 20.7498 7.66785C22.937 7.66785 24.7097 5.95145 24.7097 3.83409C24.7097 1.7164 22.937 0 20.7498 0C18.5836 0.0006525 16.8264 1.68639 16.7933 3.77602ZM14.1991 11.6262C16.3863 11.6262 18.159 9.90951 18.159 7.79215C18.159 5.67479 16.386 3.95839 14.1991 3.95839C12.0123 3.95839 10.2386 5.67512 10.2386 7.79248C10.2386 9.90984 12.0123 11.6262 14.1991 11.6262ZM15.8788 11.8876H12.5188C9.72306 11.8876 7.44863 14.0901 7.44863 16.797V20.7756L7.45908 20.8379L7.74212 20.9237C10.4101 21.7308 12.728 22 14.6358 22C18.3622 22 20.5221 20.9713 20.6551 20.9058L20.9197 20.7762H20.948V16.797C20.949 14.0901 18.6745 11.8876 15.8788 11.8876ZM22.4302 7.9295H19.0961C19.06 9.22112 18.4906 10.3842 17.5899 11.2207C20.0749 11.9362 21.8931 14.1674 21.8931 16.8028V18.0289C25.1851 17.9121 27.0822 17.0087 27.2072 16.948L27.4717 16.8182H27.5V12.8383C27.5 10.1317 25.2256 7.9295 22.4302 7.9295ZM7.25084 7.6685C8.0255 7.6685 8.74624 7.44959 9.3568 7.07668C9.55088 5.85096 10.2295 4.77989 11.1989 4.05039C11.203 3.97862 11.21 3.90749 11.21 3.83507C11.21 1.71738 9.43699 0.000978678 7.25084 0.000978678C5.06335 0.000978678 3.29098 1.71738 3.29098 3.83507C3.29098 5.95178 5.06335 7.6685 7.25084 7.6685ZM10.807 11.2207C9.91075 10.3884 9.34332 9.23156 9.30187 7.94777C9.17821 7.93896 9.0559 7.9295 8.92988 7.9295H5.57012C2.77443 7.9295 0.5 10.1317 0.5 12.8383V16.8175L0.510446 16.8789L0.793486 16.9653C2.93381 17.6123 4.84399 17.9105 6.50315 18.0044V16.8028C6.50382 14.1674 8.32134 11.9368 10.807 11.2207Z" fill="url(#paint0_linear_14_273)" fill-opacity="0.5"/>
<rect x="13.5" y="15" width="17" height="17" rx="8.5" fill="url(#paint1_linear_14_273)"/>
<path d="M25.2969 24.2031H22.7031V26.7969C22.7031 27.1852 22.3883 27.5 22 27.5C21.6117 27.5 21.2969 27.1852 21.2969 26.7969V24.2031H18.7031C18.3148 24.2031 18 23.8883 18 23.5C18 23.1117 18.3148 22.7969 18.7031 22.7969H21.2969V20.2031C21.2969 19.8148 21.6117 19.5 22 19.5C22.3883 19.5 22.7031 19.8148 22.7031 20.2031V22.7969H25.2969C25.6852 22.7969 26 23.1117 26 23.5C26 23.8883 25.6852 24.2031 25.2969 24.2031Z" fill="white"/>
<defs>
<linearGradient id="paint0_linear_14_273" x1="4.55" y1="19.25" x2="21.0406" y2="-2.29421" gradientUnits="userSpaceOnUse">
<stop stop-color="#42D872"/>
<stop offset="1" stop-color="#97E89C"/>
</linearGradient>
<linearGradient id="paint1_linear_14_273" x1="16.0114" y1="29.6818" x2="27.9886" y2="17.5114" gradientUnits="userSpaceOnUse">
<stop stop-color="#42D872"/>
<stop offset="1" stop-color="#97E89C"/>
</linearGradient>
</defs>
</svg>
