<svg width="34" height="33" viewBox="0 0 34 33" fill="none" xmlns="http://www.w3.org/2000/svg">
<path d="M21.7924 2.4375H20.8125V1.625C20.8125 1.40951 20.7269 1.20285 20.5745 1.05048C20.4222 0.898102 20.2155 0.8125 20 0.8125C19.7845 0.8125 19.5778 0.898102 19.4255 1.05048C19.2731 1.20285 19.1875 1.40951 19.1875 1.625V2.4375H14.3125V1.625C14.3125 1.40951 14.2269 1.20285 14.0745 1.05048C13.9222 0.898102 13.7155 0.8125 13.5 0.8125C13.2845 0.8125 13.0778 0.898102 12.9255 1.05048C12.7731 1.20285 12.6875 1.40951 12.6875 1.625V2.4375H7.8125V1.625C7.8125 1.40951 7.7269 1.20285 7.57452 1.05048C7.42215 0.898102 7.21549 0.8125 7 0.8125C6.78451 0.8125 6.57785 0.898102 6.42548 1.05048C6.2731 1.20285 6.1875 1.40951 6.1875 1.625V2.4375H5.20763C4.39046 2.43879 3.60713 2.76398 3.0293 3.3418C2.45148 3.91963 2.12629 4.70296 2.125 5.52012V22.1049C2.12629 22.922 2.45148 23.7054 3.0293 24.2832C3.60713 24.861 4.39046 25.1862 5.20763 25.1875H21.7924C22.6095 25.1862 23.3929 24.861 23.9707 24.2832C24.5485 23.7054 24.8737 22.922 24.875 22.1049V5.52012C24.8737 4.70296 24.5485 3.91963 23.9707 3.3418C23.3929 2.76398 22.6095 2.43879 21.7924 2.4375ZM11.6361 16.8244L9.19863 19.2619C9.04626 19.4143 8.83963 19.4998 8.62419 19.4998C8.40874 19.4998 8.20212 19.4143 8.04975 19.2619L6.42475 17.6369C6.34715 17.562 6.28525 17.4723 6.24267 17.3732C6.20009 17.2741 6.17767 17.1675 6.17673 17.0596C6.1758 16.9517 6.19635 16.8447 6.23721 16.7449C6.27806 16.645 6.33839 16.5543 6.41468 16.478C6.49097 16.4017 6.58168 16.3414 6.68154 16.3005C6.78139 16.2597 6.88838 16.2391 6.99626 16.24C7.10415 16.241 7.21076 16.2634 7.30989 16.306C7.40902 16.3486 7.49867 16.4105 7.57363 16.4881L8.625 17.5386L10.4881 15.6756C10.6413 15.5276 10.8465 15.4457 11.0596 15.4475C11.2726 15.4494 11.4764 15.5348 11.627 15.6855C11.7777 15.8361 11.8631 16.0399 11.865 16.2529C11.8668 16.466 11.7849 16.6712 11.6369 16.8244H11.6361ZM11.6361 9.51194L9.19863 11.9494C9.04626 12.1018 8.83963 12.1873 8.62419 12.1873C8.40874 12.1873 8.20212 12.1018 8.04975 11.9494L6.42475 10.3244C6.34715 10.2495 6.28525 10.1598 6.24267 10.0607C6.20009 9.96158 6.17767 9.85496 6.17673 9.74708C6.1758 9.63919 6.19635 9.5322 6.23721 9.43235C6.27806 9.3325 6.33839 9.24178 6.41468 9.16549C6.49097 9.0892 6.58168 9.02887 6.68154 8.98802C6.78139 8.94717 6.88838 8.92661 6.99626 8.92755C7.10415 8.92848 7.21076 8.9509 7.30989 8.99348C7.40902 9.03606 7.49867 9.09796 7.57363 9.17556L8.625 10.2261L10.4881 8.36306C10.6413 8.21506 10.8465 8.13316 11.0596 8.13502C11.2726 8.13687 11.4764 8.22232 11.627 8.37296C11.7777 8.5236 11.8631 8.72739 11.865 8.94042C11.8668 9.15346 11.7849 9.3587 11.6369 9.51194H11.6361ZM20 18.6875H14.3125C14.097 18.6875 13.8903 18.6019 13.738 18.4495C13.5856 18.2972 13.5 18.0905 13.5 17.875C13.5 17.6595 13.5856 17.4528 13.738 17.3005C13.8903 17.1481 14.097 17.0625 14.3125 17.0625H20C20.2155 17.0625 20.4222 17.1481 20.5745 17.3005C20.7269 17.4528 20.8125 17.6595 20.8125 17.875C20.8125 18.0905 20.7269 18.2972 20.5745 18.4495C20.4222 18.6019 20.2155 18.6875 20 18.6875ZM20 11.375H14.3125C14.097 11.375 13.8903 11.2894 13.738 11.137C13.5856 10.9847 13.5 10.778 13.5 10.5625C13.5 10.347 13.5856 10.1403 13.738 9.98798C13.8903 9.8356 14.097 9.75 14.3125 9.75H20C20.2155 9.75 20.4222 9.8356 20.5745 9.98798C20.7269 10.1403 20.8125 10.347 20.8125 10.5625C20.8125 10.778 20.7269 10.9847 20.5745 11.137C20.4222 11.2894 20.2155 11.375 20 11.375Z" fill="url(#paint0_linear_14_268)" fill-opacity="0.5"/>
<rect x="16.5" y="16" width="17" height="17" rx="8.5" fill="url(#paint1_linear_14_268)"/>
<path d="M28.2969 25.2031H25.7031V27.7969C25.7031 28.1852 25.3883 28.5 25 28.5C24.6117 28.5 24.2969 28.1852 24.2969 27.7969V25.2031H21.7031C21.3148 25.2031 21 24.8883 21 24.5C21 24.1117 21.3148 23.7969 21.7031 23.7969H24.2969V21.2031C24.2969 20.8148 24.6117 20.5 25 20.5C25.3883 20.5 25.7031 20.8148 25.7031 21.2031V23.7969H28.2969C28.6852 23.7969 29 24.1117 29 24.5C29 24.8883 28.6852 25.2031 28.2969 25.2031Z" fill="white"/>
<defs>
<linearGradient id="paint0_linear_14_268" x1="2.5" y1="24" x2="24.5" y2="3" gradientUnits="userSpaceOnUse">
<stop stop-color="#F866AA"/>
<stop offset="1" stop-color="#FDA0CB"/>
</linearGradient>
<linearGradient id="paint1_linear_14_268" x1="19.0114" y1="30.6818" x2="30.9886" y2="18.5114" gradientUnits="userSpaceOnUse">
<stop stop-color="#F866AA"/>
<stop offset="1" stop-color="#FDA0CB"/>
</linearGradient>
</defs>
</svg>
