<svg width="30" height="33" viewBox="0 0 30 33" fill="none" xmlns="http://www.w3.org/2000/svg">
<path d="M23.25 1.625H3.75C2.40612 1.625 1.3125 2.71862 1.3125 4.0625V17.0625C1.3125 18.4064 2.40612 19.5 3.75 19.5H6.1875V23.5625C6.1875 23.8753 6.36706 24.1589 6.64738 24.2946C6.76031 24.3482 6.88056 24.375 7 24.375C7.18119 24.375 7.36075 24.3149 7.50781 24.1971L13.3789 19.5H23.25C24.5939 19.5 25.6875 18.4064 25.6875 17.0625V4.0625C25.6875 2.71862 24.5939 1.625 23.25 1.625ZM13.5 13H7C6.55069 13 6.1875 12.636 6.1875 12.1875C6.1875 11.739 6.55069 11.375 7 11.375H13.5C13.9493 11.375 14.3125 11.739 14.3125 12.1875C14.3125 12.636 13.9493 13 13.5 13ZM20 9.75H7C6.55069 9.75 6.1875 9.386 6.1875 8.9375C6.1875 8.489 6.55069 8.125 7 8.125H20C20.4493 8.125 20.8125 8.489 20.8125 8.9375C20.8125 9.386 20.4493 9.75 20 9.75Z" fill="url(#paint0_linear_14_280)" fill-opacity="0.5"/>
<rect x="12.5" y="16" width="17" height="17" rx="8.5" fill="url(#paint1_linear_14_280)"/>
<path d="M24.2969 25.2031H21.7031V27.7969C21.7031 28.1852 21.3883 28.5 21 28.5C20.6117 28.5 20.2969 28.1852 20.2969 27.7969V25.2031H17.7031C17.3148 25.2031 17 24.8883 17 24.5C17 24.1117 17.3148 23.7969 17.7031 23.7969H20.2969V21.2031C20.2969 20.8148 20.6117 20.5 21 20.5C21.3883 20.5 21.7031 20.8148 21.7031 21.2031V23.7969H24.2969C24.6852 23.7969 25 24.1117 25 24.5C25 24.8883 24.6852 25.2031 24.2969 25.2031Z" fill="white"/>
<defs>
<linearGradient id="paint0_linear_14_280" x1="4.96875" y1="21.5312" x2="22.4828" y2="1.55556" gradientUnits="userSpaceOnUse">
<stop stop-color="#42D872"/>
<stop offset="1" stop-color="#97E89C"/>
</linearGradient>
<linearGradient id="paint1_linear_14_280" x1="15.0114" y1="30.6818" x2="26.9886" y2="18.5114" gradientUnits="userSpaceOnUse">
<stop stop-color="#42D872"/>
<stop offset="1" stop-color="#97E89C"/>
</linearGradient>
</defs>
</svg>
