<svg width="30" height="32" viewBox="0 0 30 32" fill="none" xmlns="http://www.w3.org/2000/svg">
<path d="M20.05 0H3.95C3.035 0 2.15748 0.363481 1.51048 1.01048C0.863481 1.65748 0.5 2.535 0.5 3.45V19.55C0.5 20.465 0.863481 21.3425 1.51048 21.9895C2.15748 22.6365 3.035 23 3.95 23H20.05C20.965 23 21.8425 22.6365 22.4895 21.9895C23.1365 21.3425 23.5 20.465 23.5 19.55V3.45C23.5 2.535 23.1365 1.65748 22.4895 1.01048C21.8425 0.363481 20.965 0 20.05 0ZM18.5665 7.6935L9.9875 16.8245C9.87928 16.938 9.74897 17.0282 9.6046 17.0895C9.46023 17.1508 9.30485 17.182 9.148 17.181C8.99115 17.182 8.83577 17.1508 8.6914 17.0895C8.54703 17.0282 8.41672 16.938 8.3085 16.8245L5.4565 13.8C5.34005 13.6933 5.24684 13.5637 5.18268 13.4193C5.11852 13.2749 5.0848 13.1189 5.0836 12.9609C5.08241 12.803 5.11378 12.6465 5.17575 12.5011C5.23772 12.3558 5.32896 12.2248 5.44379 12.1164C5.55861 12.0079 5.69456 11.9242 5.84315 11.8706C5.99174 11.8169 6.14979 11.7945 6.30744 11.8046C6.46508 11.8148 6.61895 11.8573 6.75944 11.9295C6.89993 12.0018 7.02403 12.1022 7.124 12.2245L9.148 14.375L16.8875 6.141C16.9944 6.03321 17.1216 5.94766 17.2617 5.88928C17.4019 5.83089 17.5522 5.80083 17.704 5.80083C17.8558 5.80083 18.0061 5.83089 18.1463 5.88928C18.2864 5.94766 18.4136 6.03321 18.5205 6.141C18.7208 6.34719 18.8367 6.62095 18.8452 6.90831C18.8537 7.19567 18.7543 7.47581 18.5665 7.6935Z" fill="url(#paint0_linear_14_292)" fill-opacity="0.5"/>
<rect x="12.5" y="15" width="17" height="17" rx="8.5" fill="url(#paint1_linear_14_292)"/>
<path d="M24.2969 24.2031H21.7031V26.7969C21.7031 27.1852 21.3883 27.5 21 27.5C20.6117 27.5 20.2969 27.1852 20.2969 26.7969V24.2031H17.7031C17.3148 24.2031 17 23.8883 17 23.5C17 23.1117 17.3148 22.7969 17.7031 22.7969H20.2969V20.2031C20.2969 19.8148 20.6117 19.5 21 19.5C21.3883 19.5 21.7031 19.8148 21.7031 20.2031V22.7969H24.2969C24.6852 22.7969 25 23.1117 25 23.5C25 23.8883 24.6852 24.2031 24.2969 24.2031Z" fill="white"/>
<defs>
<linearGradient id="paint0_linear_14_292" x1="3.95" y1="20.125" x2="21.775" y2="1.15" gradientUnits="userSpaceOnUse">
<stop stop-color="#F866AA"/>
<stop offset="1" stop-color="#FDA0CB"/>
</linearGradient>
<linearGradient id="paint1_linear_14_292" x1="15.0114" y1="29.6818" x2="26.9886" y2="17.5114" gradientUnits="userSpaceOnUse">
<stop stop-color="#F866AA"/>
<stop offset="1" stop-color="#FDA0CB"/>
</linearGradient>
</defs>
</svg>
