<svg width="62" height="70" viewBox="0 0 62 70" fill="none" xmlns="http://www.w3.org/2000/svg">
<g clip-path="url(#clip0_789_217)">
<path opacity="0.16" d="M17.825 68.7037C17.825 69.4203 27.7138 70.0002 39.9125 70.0002C52.1112 70.0002 62.0001 69.4195 62.0001 68.7037C62.0001 67.988 52.1112 67.4072 39.9125 67.4072C27.7138 67.4072 17.825 67.988 17.825 68.7037Z" fill="#030451"/>
<path d="M21.4585 49.0967C21.7656 48.2611 22.0132 47.285 22.2047 46.157L20.486 42.9961C20.3175 45.2647 19.9915 47.0661 19.5143 48.3682C19.0514 49.6311 18.4722 50.3708 17.794 50.5681C16.7218 50.8789 14.9928 49.8971 13.0502 47.8721C12.5786 47.38 12.1378 46.8736 11.7485 46.3991C11.5594 46.6986 11.3172 46.9646 11.0284 47.1851C10.7419 47.4032 10.4254 47.5638 10.0923 47.6652C10.5172 48.1852 11.0047 48.7476 11.534 49.302C13.7038 51.5715 15.667 52.7218 17.3683 52.7218C17.7093 52.7218 18.0456 52.6746 18.3661 52.582C19.7129 52.1913 20.7535 51.0195 21.4593 49.0975L21.4585 49.0967Z" fill="white"/>
<path d="M8.90196 47.1637C9.53263 47.2532 10.1593 47.0894 10.6674 46.7028C11.1762 46.3153 11.5053 45.7506 11.594 45.1115C11.6486 44.7201 11.6058 44.3383 11.4856 43.9884C11.4112 44.4309 11.192 44.8263 10.8596 45.1195L11.0432 45.4191C11.1366 45.5716 11.0899 45.7737 10.9388 45.8688L10.2986 46.269C10.1475 46.3633 9.94727 46.3161 9.85311 46.1636L9.50573 45.598C9.44638 45.5948 9.38703 45.5908 9.32768 45.582C8.28 45.4326 7.54726 44.4493 7.69444 43.3909C7.71897 43.2119 7.76803 43.041 7.83767 42.8796L7.81234 42.8389C7.80839 42.8421 7.80364 42.8453 7.79889 42.8485C7.28929 43.2359 6.96011 43.8006 6.87149 44.4397C6.6887 45.757 7.59948 46.9792 8.90196 47.1645V47.1637Z" fill="#FEF4EE"/>
<path d="M26.2054 34.7356L27.1779 34.1964L28.9939 33.1899L40.2882 26.9304L34.6684 16.5968C34.5979 16.5872 34.5307 16.5568 34.4769 16.5049L29.047 11.2559L12.4827 20.4559L13.5169 27.8083L19.3504 38.5348L26.2054 34.7356ZM30.4673 21.3578C30.7506 21.8786 30.7008 22.4561 30.3542 22.6487C30.0084 22.8412 29.4972 22.5744 29.2139 22.0543C28.9299 21.5335 28.9805 20.9552 29.3271 20.7634C29.6729 20.5709 30.1841 20.8377 30.4673 21.3586V21.3578ZM27.826 19.0947L28.7336 18.5906C28.9148 18.49 29.1435 18.5563 29.2432 18.74C29.3429 18.923 29.2764 19.1538 29.0952 19.2545L28.1876 19.7585C28.1306 19.7905 28.0681 19.8057 28.0072 19.8057C27.875 19.8057 27.7469 19.7346 27.678 19.6091C27.5783 19.4262 27.6448 19.1954 27.826 19.0947ZM23.4802 28.1502L25.9846 26.7594C26.15 26.6675 26.3573 26.7282 26.4475 26.8952C26.7997 27.5415 26.9896 28.2332 26.9809 28.8443C26.9722 29.5257 26.7213 30.0378 26.2742 30.2854C26.093 30.3861 25.8928 30.4356 25.6808 30.4356C25.3698 30.4356 25.0319 30.3285 24.6909 30.1161C24.1757 29.7957 23.6978 29.2637 23.3456 28.6175C23.2546 28.4505 23.3148 28.2412 23.4802 28.1502ZM15.2918 26.8672C15.1596 26.8672 15.0314 26.7961 14.9626 26.6707C14.8629 26.4878 14.9294 26.2569 15.1106 26.1563L16.0182 25.6522C16.1994 25.5516 16.4281 25.6179 16.5278 25.8016C16.6275 25.9845 16.561 26.2154 16.3798 26.3161L15.4722 26.8201C15.4152 26.8521 15.3527 26.8672 15.2918 26.8672ZM17.6388 29.7103C17.293 29.9028 16.7818 29.636 16.4985 29.1159C16.2144 28.5951 16.2651 28.0168 16.6117 27.825C16.9575 27.6325 17.4687 27.8993 17.7519 28.4202C18.0352 28.941 17.9854 29.5185 17.6388 29.7111V29.7103Z" fill="#FEF4EE"/>
<path d="M50.5418 35.8836C51.1329 35.6431 51.7825 35.6008 52.41 35.7677C52.4797 35.7861 52.5477 35.8077 52.615 35.8308C52.3602 34.7301 51.9519 33.4791 51.2959 32.2929C50.6446 31.1146 49.8272 30.1432 48.8666 29.4067C46.9746 27.956 44.5611 27.4168 41.6927 27.8051C41.57 27.821 41.4505 27.7603 41.3912 27.6509L41.1229 27.1572L35.4738 30.2878L34.3763 35.457C34.3462 35.5976 34.2236 35.6958 34.0843 35.6958C34.0708 35.6958 34.0574 35.695 34.0432 35.6926L30.5472 35.211L37.297 46.3953C37.3405 46.4672 37.3524 46.555 37.3286 46.6357L36.2264 50.486C36.2042 50.5643 36.1512 50.6298 36.08 50.6682C36.0364 50.6921 35.9874 50.7041 35.9391 50.7041C35.909 50.7041 35.8782 50.6993 35.8489 50.6897L32.0855 49.4851C32.0095 49.4603 31.9462 49.406 31.9098 49.3341L26.1104 37.8439L24.7422 40.8474C24.6924 40.9577 24.5839 41.0232 24.4708 41.0232C24.436 41.0232 24.4012 41.0168 24.3671 41.004L19.4587 39.1635L19.1707 39.3233L28.3759 56.2503L50.3281 44.0843L42.7672 30.1808C42.7174 30.0889 42.7182 29.9779 42.7688 29.8868C42.8195 29.7957 42.9136 29.7382 43.0173 29.7334C44.8626 29.6591 46.4151 30.0929 47.6353 31.0243C48.9734 32.046 49.976 33.7251 50.5426 35.8828L50.5418 35.8836Z" fill="white"/>
<path d="M49.3454 38.0647C49.1831 38.6861 49.2702 39.3348 49.5907 39.89C49.9111 40.4452 50.4271 40.8414 51.0427 41.0051C51.6583 41.1689 52.3009 41.081 52.8508 40.7575C53.4008 40.434 53.7933 39.9131 53.9555 39.2917C54.1177 38.6702 54.0306 38.0223 53.7094 37.4671C53.3889 36.9112 52.873 36.5149 52.2573 36.3512C52.0548 36.2977 51.8498 36.2705 51.6457 36.2705C51.2294 36.2705 50.8188 36.3815 50.4492 36.5988C49.8993 36.9223 49.5068 37.4432 49.3446 38.0647H49.3454Z" fill="#FEF4EE"/>
<path d="M48.7669 37.9108C48.5635 38.6881 48.6727 39.4989 49.0739 40.1939C49.4751 40.8888 50.12 41.3841 50.8899 41.5894C51.1432 41.6565 51.4003 41.6901 51.6551 41.6901C52.1758 41.6901 52.6901 41.5511 53.1515 41.2795C53.8399 40.8745 54.3305 40.2234 54.5331 39.4462C54.7365 38.6689 54.6273 37.8581 54.2261 37.1631C53.9918 36.7581 53.6745 36.421 53.2987 36.1694C53.0447 34.9145 52.5991 33.4127 51.8181 31.9988C51.1265 30.747 50.2553 29.7133 49.2282 28.9257C47.2515 27.4103 44.7589 26.8232 41.8169 27.1803L41.5027 26.6019C41.4648 26.5316 41.4007 26.4797 41.3239 26.4573C41.2479 26.435 41.1664 26.4437 41.0968 26.4829L40.8127 26.6402L35.0275 16.0015C34.9357 15.2642 34.5749 12.7727 33.5889 9.84901C31.6479 4.09269 28.8435 1.34554 26.8328 0.0538475C26.7015 -0.0308276 26.5297 -0.0140523 26.4166 0.0929898C26.3034 0.200032 26.2757 0.372578 26.3509 0.509975C26.3509 0.509975 26.6983 1.14744 27.0401 1.77371C26.5574 1.53966 26.0399 1.35992 25.5303 1.20016C22.6904 0.307873 19.0907 0.546721 16.136 1.82244C15.8725 1.93587 15.6106 2.06049 15.3566 2.1907C13.0436 3.38334 10.881 5.23581 9.10214 7.55C7.44515 9.70522 6.25187 12.1033 5.65049 14.487C5.00716 17.036 5.13218 19.597 5.25246 22.0742C5.26275 22.2931 5.27383 22.5119 5.28411 22.73C5.29044 22.869 5.37986 22.9912 5.50963 23.0384C5.6402 23.0855 5.78501 23.0487 5.87759 22.9449L6.49718 22.2531L6.76147 24.1863C6.78284 24.3396 6.90311 24.4603 7.05504 24.4802C7.20776 24.5002 7.35416 24.4147 7.4135 24.2717L8.10985 22.5966C9.04042 23.667 11.5496 26.5532 12.9312 28.1548C12.9708 28.2012 13.0215 28.2323 13.0761 28.2523L18.8249 38.8239L18.6183 38.9381C18.5487 38.9765 18.4973 39.0412 18.4751 39.1187C18.4529 39.1953 18.4616 39.2784 18.5004 39.3479L19.9469 42.0088C19.8076 44.6689 19.4737 46.7338 18.9507 48.1581C18.5685 49.2006 18.0976 49.8508 17.626 49.9874C16.9764 50.176 15.5465 49.6088 13.4772 47.452C12.9463 46.8984 12.4557 46.3256 12.0347 45.804C12.1043 45.6091 12.1542 45.4054 12.1835 45.1953C12.3394 44.0698 11.8559 42.9993 11.0147 42.3611C10.7235 42.0352 10.3223 41.8059 9.85941 41.7404C9.63785 41.7084 9.41787 41.7164 9.20501 41.7604C9.07286 41.7612 8.9423 41.7715 8.81331 41.7899L7.88749 40.2809C8.79986 39.0172 8.42795 36.3467 6.88491 33.8328C5.11319 30.9459 2.47025 29.361 0.981019 30.2925C-0.508209 31.2239 -0.279523 34.3193 1.4922 37.2055C3.00596 39.6722 5.15671 41.1876 6.67918 40.9951L7.49501 42.3251C7.47602 42.3387 7.45623 42.3523 7.43724 42.3667C6.80024 42.8515 6.38798 43.5577 6.2772 44.3565C6.0493 46.0029 7.18798 47.531 8.81569 47.7627C8.95654 47.7827 9.09739 47.7931 9.23745 47.7931C9.2968 47.7931 9.35536 47.7907 9.41391 47.7875C9.89581 48.389 10.4687 49.0616 11.1002 49.7222C13.387 52.1139 15.4951 53.3265 17.3649 53.3265C17.7621 53.3265 18.153 53.2714 18.5273 53.1627C20.0672 52.7162 21.2407 51.4197 22.0154 49.3084C22.2654 48.6262 22.4783 47.8562 22.654 46.9918L27.8306 56.5114L22.98 58.4909C22.2441 58.7913 21.9022 59.6484 22.2267 60.3793L25.6538 68.1095L22.9088 68.0991C22.54 68.0975 22.2401 68.3987 22.2385 68.7709C22.2369 69.1432 22.5353 69.4459 22.904 69.4475L26.8668 69.4627C27.306 69.4643 27.6605 69.1016 27.6526 68.6583L27.6431 68.1175L26.3667 61.8963L31.0671 62.2517C31.1771 62.2597 31.2878 62.2342 31.3836 62.1783L34.2932 60.4712L44.914 54.5855V58.6419C44.914 58.8631 44.9773 59.0804 45.0968 59.2665L50.2292 67.2827L48.1908 67.2747C47.8221 67.2731 47.5222 67.5735 47.5206 67.9458C47.519 68.318 47.8173 68.6208 48.1853 68.6224L52.0975 68.6375C52.5604 68.6391 52.9307 68.2501 52.9093 67.7828L52.8872 67.2923L48.7368 58.6027L53.6057 49.767L53.7204 49.7038C53.8652 49.624 53.9182 49.4402 53.8383 49.2941L43.5269 30.3316C45.0145 30.3508 46.2719 30.7454 47.2705 31.5075C48.808 32.6817 49.5938 34.5742 49.9958 36.1742C49.3865 36.5824 48.952 37.1927 48.7637 37.9124L48.7669 37.9108ZM2.77252 36.4051C1.39329 34.158 1.06331 31.8438 2.03424 31.2367C3.00517 30.6296 4.91062 31.9588 6.28986 34.2059C7.66909 36.453 7.99907 38.7672 7.02814 39.3743C6.05721 39.9814 4.15176 38.6521 2.77252 36.4051ZM43.0173 29.7333C42.9136 29.7373 42.8203 29.7956 42.7688 29.8867C42.7182 29.9777 42.7174 30.0888 42.7672 30.1806L50.3281 44.0841L28.3759 56.2502L19.1706 39.3232L19.4587 39.1634L24.3671 41.0039C24.4011 41.0167 24.4368 41.023 24.4708 41.023C24.5847 41.023 24.6923 40.9575 24.7422 40.8473L26.1104 37.8437L31.9098 49.334C31.9462 49.4059 32.0095 49.4602 32.0855 49.485L35.8489 50.6896C35.8782 50.6992 35.909 50.704 35.9391 50.704C35.9882 50.704 36.0364 50.692 36.08 50.668C36.1512 50.6297 36.2042 50.5642 36.2263 50.4859L37.3286 46.6356C37.3516 46.5541 37.3405 46.467 37.297 46.3951L30.5472 35.2108L34.0431 35.6925C34.0566 35.6941 34.0708 35.6957 34.0843 35.6957C34.2236 35.6957 34.3462 35.5982 34.3763 35.4569L35.4738 30.2877L41.1229 27.1571L41.3912 27.6508C41.4505 27.7602 41.57 27.8209 41.6927 27.8049C44.5619 27.4175 46.9754 27.9567 48.8666 29.4066C49.8272 30.1431 50.6446 31.1145 51.2959 32.2927C51.9519 33.4798 52.3602 34.7299 52.615 35.8307C52.5477 35.8075 52.4797 35.786 52.41 35.7676C51.7825 35.6006 51.1329 35.643 50.5418 35.8834C49.9752 33.7258 48.9726 32.0467 47.6345 31.025C46.4151 30.0936 44.8618 29.6598 43.0165 29.7341L43.0173 29.7333ZM11.5338 49.3012C11.0036 48.7469 10.517 48.1845 10.0921 47.6645C10.4252 47.563 10.7417 47.4024 11.0282 47.1844C11.317 46.9639 11.5591 46.6979 11.7482 46.3983C12.1376 46.8728 12.5783 47.3801 13.0499 47.8714C14.9926 49.8956 16.7208 50.8781 17.7938 50.5674C18.4719 50.3701 19.0504 49.6304 19.5141 48.3674C19.992 47.0653 20.3172 45.264 20.4858 42.9953L22.2045 46.1563C22.013 47.285 21.7653 48.2604 21.4583 49.0959C20.7532 51.0171 19.7127 52.1898 18.3651 52.5804C18.0446 52.6731 17.7091 52.7202 17.3673 52.7202C15.666 52.7202 13.7028 51.5699 11.533 49.3004L11.5338 49.3012ZM6.87225 44.4388C6.96088 43.8005 7.29006 43.235 7.79966 42.8476C7.80361 42.8444 7.80836 42.8412 7.81311 42.838L7.83843 42.8787C7.7688 43.0401 7.71974 43.211 7.69521 43.39C7.54882 44.4492 8.28156 45.4317 9.32845 45.5811C9.3878 45.5899 9.44715 45.5939 9.50649 45.5971L9.85387 46.1627C9.94725 46.3152 10.1482 46.3632 10.2994 46.2681L10.9395 45.8679C11.0907 45.7736 11.1382 45.5707 11.044 45.4182L10.8604 45.1186C11.1928 44.8246 11.4119 44.43 11.4863 43.9875C11.6066 44.3374 11.6493 44.72 11.5947 45.1106C11.5061 45.7489 11.1777 46.3144 10.6681 46.7019C10.1601 47.0885 9.5334 47.2523 8.90273 47.1628C7.60104 46.9775 6.69025 45.7545 6.87225 44.438V44.4388ZM9.77791 42.3379C10.4996 42.4402 11.0036 43.1176 10.9023 43.8477C10.8533 44.2016 10.6713 44.5147 10.3888 44.7296C10.1071 44.9437 9.75971 45.0347 9.41075 44.9852C8.68908 44.8822 8.18502 44.2048 8.28631 43.4754C8.33537 43.1216 8.51816 42.8084 8.79986 42.5935C9.08156 42.3794 9.42815 42.2884 9.77712 42.3387L9.77791 42.3379ZM7.95317 21.6173C7.83685 21.6364 7.73873 21.7147 7.69362 21.8242L7.2679 22.8474L7.07324 21.4279C7.05504 21.2953 6.96246 21.1851 6.83585 21.146C6.70925 21.1068 6.57156 21.1452 6.48214 21.2442L5.92507 21.8657C5.81033 19.494 5.70825 17.0472 6.31122 14.6579C6.88966 12.3653 8.041 10.0543 9.64101 7.97337C11.3589 5.73907 13.4424 3.9521 15.6668 2.80579C15.9065 2.68197 16.155 2.56455 16.4043 2.4567C19.2165 1.2417 22.6358 1.01243 25.3278 1.85839C26.2172 2.13797 27.128 2.47747 27.7642 3.06621C27.8876 3.18044 28.0752 3.18763 28.2065 3.08218C28.432 2.90165 28.3094 2.67558 28.2358 2.54058L27.7009 1.55883C29.4267 3.04144 31.4382 5.61525 32.9377 10.0567C33.6728 12.2327 34.0574 14.2002 34.2378 15.3201L29.3381 10.5831C29.2305 10.4793 29.0682 10.4577 28.9377 10.5304L11.9477 19.9669C11.8234 20.0356 11.7546 20.1754 11.7744 20.3168L12.6907 26.8288C10.8873 24.7446 8.29501 21.765 8.26494 21.7307C8.19926 21.6556 8.10589 21.6133 8.00856 21.6133C7.99036 21.6133 7.97216 21.6149 7.95396 21.6181L7.95317 21.6173ZM13.5168 27.8073L12.4826 20.455L29.0469 11.2549L34.4768 16.504C34.5306 16.5559 34.5978 16.5871 34.6683 16.5959L40.2881 26.9294L28.9939 33.189L27.1778 34.1955L26.2053 34.7347L19.3503 38.5339L13.5168 27.8073ZM34.7798 30.6711L33.8493 35.0558L28.2587 34.285L34.7798 30.6711ZM20.1503 38.7784L26.6714 35.1645L24.3141 40.3393L20.1503 38.7784ZM26.7489 37.1815L27.5276 34.793L29.7836 35.1038L36.7177 46.594L35.7365 50.0194L32.3846 48.9466L26.5464 37.378C26.6413 37.3509 26.7173 37.2782 26.7481 37.1823L26.7489 37.1815ZM50.45 36.5984C50.8195 36.3811 51.2302 36.2701 51.6464 36.2701C51.8506 36.2701 52.0555 36.2964 52.2581 36.3507C52.8737 36.5145 53.3897 36.9107 53.7101 37.4667C54.0306 38.0219 54.1184 38.6697 53.9562 39.292C53.794 39.9135 53.4015 40.4343 52.8516 40.7578C52.3016 41.0814 51.6591 41.17 51.0435 41.0055C50.4278 40.8417 49.9119 40.4455 49.5914 39.8903C49.2709 39.3351 49.1839 38.6865 49.3461 38.065C49.5083 37.4435 49.9008 36.9227 50.4508 36.5992L50.45 36.5984Z" fill="#053900"/>
<path d="M35.7375 50.0203L36.7187 46.5949L29.7845 35.1047L27.5285 34.7939L26.7499 37.1824C26.719 37.2783 26.6423 37.351 26.5481 37.3781L32.3863 48.9467L35.7383 50.0195L35.7375 50.0203Z" fill="#8BF482"/>
<path d="M28.2598 34.2848L33.8495 35.0556L34.7809 30.6709L28.2598 34.2848Z" fill="white"/>
<path d="M26.6722 35.165L20.1511 38.7789L24.3149 40.3398L26.6722 35.165Z" fill="white"/>
<path d="M7.029 39.3741C8.00011 38.7667 7.66934 36.4526 6.29021 34.2054C4.91107 31.9582 3.00583 30.6288 2.03472 31.2362C1.06361 31.8436 1.39438 34.1577 2.77351 36.4049C4.15264 38.6521 6.05789 39.9814 7.029 39.3741Z" fill="white"/>
<path d="M8.80066 42.5924C8.51816 42.8073 8.33616 43.1204 8.2871 43.4743C8.18581 44.2044 8.69066 44.8818 9.41154 44.9841C9.7605 45.0336 10.1079 44.9433 10.3896 44.7285C10.6713 44.5136 10.8541 44.2004 10.9031 43.8466C11.0044 43.1164 10.5004 42.439 9.7787 42.3368C9.42974 42.2865 9.08236 42.3775 8.80145 42.5916L8.80066 42.5924Z" fill="#FEF4EE"/>
<path d="M16.6117 27.8238C16.2659 28.0163 16.2152 28.5938 16.4985 29.1147C16.7818 29.6355 17.293 29.9015 17.6388 29.709C17.9846 29.5165 18.0352 28.9389 17.7519 28.4181C17.4678 27.8973 16.9575 27.6313 16.6117 27.823V27.8238Z" fill="#053900"/>
<path d="M16.5285 25.8018C16.4288 25.6181 16.2002 25.5518 16.0189 25.6524L15.1113 26.1565C14.9301 26.2571 14.8637 26.488 14.9634 26.6709C15.0314 26.7963 15.1604 26.8674 15.2925 26.8674C15.3535 26.8674 15.416 26.8523 15.473 26.8203L16.3806 26.3163C16.5618 26.2156 16.6283 25.9847 16.5285 25.8018Z" fill="#053900"/>
<path d="M29.2141 22.0531C29.4974 22.574 30.0085 22.84 30.3543 22.6475C30.7001 22.455 30.7508 21.8774 30.4675 21.3566C30.1834 20.8357 29.673 20.5697 29.3272 20.7615C28.9814 20.954 28.9308 21.5315 29.2141 22.0523V22.0531Z" fill="#053900"/>
<path d="M28.0071 19.8049C28.0681 19.8049 28.1306 19.7898 28.1876 19.7578L29.0952 19.2538C29.2764 19.1531 29.3429 18.9222 29.2431 18.7393C29.1434 18.5556 28.9148 18.4893 28.7335 18.5899L27.8259 19.094C27.6447 19.1946 27.5783 19.4255 27.678 19.6084C27.746 19.7338 27.875 19.8049 28.0071 19.8049Z" fill="#053900"/>
<path d="M25.0485 29.5288C25.3998 29.7469 25.7274 29.8028 25.9466 29.6806C26.1658 29.5592 26.2948 29.2501 26.3003 28.8339C26.3059 28.4329 26.2014 27.9815 26.0036 27.5342L24.1211 28.5798C24.3886 28.988 24.7114 29.3187 25.0493 29.5288H25.0485Z" fill="white"/>
<path d="M24.691 30.1153C25.0328 30.3278 25.3699 30.4348 25.6809 30.4348C25.8929 30.4348 26.0931 30.3853 26.2743 30.2847C26.7206 30.0362 26.9723 29.525 26.981 28.8436C26.9889 28.2333 26.7998 27.5407 26.4476 26.8945C26.3566 26.7275 26.1493 26.6668 25.9847 26.7587L23.4803 28.1494C23.3157 28.2413 23.2547 28.4506 23.3457 28.6167C23.6979 29.263 24.1758 29.795 24.691 30.1153ZM26.0029 27.5343C26.2008 27.9809 26.3052 28.433 26.2997 28.834C26.2941 29.2502 26.1652 29.5593 25.946 29.6808C25.7268 29.8022 25.4 29.7471 25.0478 29.529C24.7099 29.3189 24.3871 28.9882 24.1196 28.58L26.0021 27.5343H26.0029Z" fill="#053900"/>
<path d="M12.6899 26.8277L11.7736 20.3157C11.7538 20.1743 11.8227 20.0345 11.9469 19.9658L28.9369 10.5293C29.0675 10.4566 29.2297 10.4782 29.3373 10.582L34.2371 15.3191C34.0566 14.1991 33.6721 12.2316 32.9369 10.0556C31.4374 5.61417 29.4259 3.04036 27.7001 1.55775L28.235 2.5395C28.3086 2.6745 28.4321 2.90057 28.2058 3.0811C28.0744 3.18655 27.8869 3.17936 27.7634 3.06512C27.1272 2.47639 26.2164 2.13689 25.327 1.85731C22.635 1.01135 19.2158 1.24061 16.4035 2.45562C16.1542 2.56346 15.9058 2.68089 15.666 2.80471C13.4417 3.95102 11.3582 5.73878 9.64026 7.97229C8.04025 10.0532 6.88891 12.365 6.31046 14.6568C5.70749 17.0461 5.80957 19.4929 5.92431 21.8646L6.48139 21.2431C6.57001 21.1441 6.70849 21.1057 6.8351 21.1449C6.9617 21.184 7.05429 21.2943 7.07249 21.4269L7.26715 22.8464L7.69287 21.8231C7.73876 21.7136 7.83688 21.6353 7.95241 21.6162C7.97061 21.613 7.98881 21.6114 8.00701 21.6114C8.10434 21.6114 8.19772 21.6537 8.26339 21.7288C8.29346 21.7632 10.8866 24.7436 12.6891 26.8269L12.6899 26.8277Z" fill="#8BF482"/>
</g>
<defs>
<clipPath id="clip0_789_217">
<rect width="62" height="70" fill="white"/>
</clipPath>
</defs>
</svg>
