<?xml version="1.0" standalone="no"?>
<!DOCTYPE svg PUBLIC "-//W3C//DTD SVG 20010904//EN"
 "http://www.w3.org/TR/2001/REC-SVG-20010904/DTD/svg10.dtd">
<svg version="1.0" xmlns="http://www.w3.org/2000/svg"
 width="1024.000000pt" height="1024.000000pt" viewBox="0 0 1024.000000 1024.000000"
 preserveAspectRatio="xMidYMid meet">

<g transform="translate(0.000000,1024.000000) scale(0.100000,-0.100000)"
fill="#000000" stroke="none">
<path d="M3617 9449 c-31 -20 -53 -45 -68 -77 -12 -26 -23 -48 -25 -50 -1 -2
-28 2 -60 9 -70 14 -128 2 -171 -36 -36 -31 -21 -31 41 0 52 26 98 31 140 15
37 -14 32 -30 -8 -30 -53 0 -118 -27 -158 -67 -89 -86 -107 -223 -50 -368 41
-104 45 -128 34 -200 -6 -33 -8 -62 -6 -64 11 -12 57 24 93 73 l41 55 -21 41
c-41 78 -2 170 71 170 53 0 105 -98 85 -160 -12 -38 19 -21 50 28 23 35 44 53
87 74 50 24 59 32 69 67 l12 41 42 -39 c23 -21 67 -48 99 -60 51 -19 72 -21
191 -17 172 6 196 11 243 52 40 34 88 126 76 146 -4 6 -15 -11 -25 -37 -31
-81 -99 -136 -166 -134 -26 0 -25 2 12 15 52 19 91 58 111 111 21 54 9 106
-38 159 -44 50 -93 72 -205 90 -54 9 -104 20 -111 24 -8 4 16 12 54 18 63 10
95 25 82 37 -3 3 -18 1 -33 -5 -47 -18 -136 -14 -187 9 -113 48 -225 57 -303
22 -56 -25 -55 -25 -55 -7 0 17 97 106 116 106 8 0 14 5 14 10 0 18 -26 11
-73 -21z"/>
<path d="M5100 9147 c-105 -29 -254 -135 -345 -244 -140 -169 -219 -362 -246
-598 -26 -236 44 -482 177 -621 55 -57 141 -104 257 -141 63 -20 64 -22 39
-103 -16 -49 -21 -55 -51 -61 -49 -10 -60 -26 -78 -123 l-17 -88 67 -65 c37
-36 67 -71 67 -79 0 -20 -41 -54 -65 -54 -35 0 -90 42 -90 70 0 30 -21 38 -28
10 -3 -11 -21 -27 -41 -35 -47 -20 -46 -29 4 -21 30 5 40 3 40 -8 0 -18 -10
-71 -60 -306 -23 -107 -48 -235 -56 -285 -9 -49 -26 -139 -39 -200 -14 -60
-27 -127 -31 -148 -18 -107 32 -189 138 -225 77 -26 118 -19 165 30 49 51 68
106 117 348 65 321 64 320 126 348 29 13 50 26 47 28 -2 2 -49 -2 -103 -10
-57 -9 -100 -11 -102 -6 -2 5 -9 7 -16 4 -18 -7 -48 24 -44 44 2 13 35 21 147
37 91 12 146 25 149 33 5 15 3 15 -91 -3 -91 -17 -173 -20 -182 -5 -4 6 -11 8
-16 5 -5 -4 -9 5 -9 18 0 29 34 47 93 47 43 1 193 33 204 44 16 15 -10 17 -59
3 -158 -45 -198 -43 -198 10 0 30 33 45 177 80 57 14 103 29 103 34 0 11 -16
11 -60 0 -19 -5 -54 -12 -78 -15 -39 -6 -43 -4 -52 20 -17 43 8 68 102 104
121 47 133 61 72 86 -29 12 -35 19 -31 37 3 12 11 48 18 81 l13 58 -34 28 -34
28 19 68 20 69 55 6 c30 3 73 11 95 17 22 7 43 8 48 3 4 -4 10 -39 12 -76 l4
-68 58 -19 c65 -22 83 -34 83 -54 0 -18 -43 -18 -103 0 -40 12 -47 12 -47 0 0
-13 46 -29 123 -42 34 -6 43 -13 54 -41 l14 -33 -57 7 c-31 4 -74 13 -95 20
-22 8 -39 10 -39 5 0 -18 56 -40 163 -64 21 -5 27 -12 27 -33 0 -25 -1 -26
-52 -19 -29 3 -63 9 -75 12 -38 10 -26 -14 17 -36 22 -11 40 -25 40 -30 0 -16
-22 -23 -31 -9 -21 34 -16 -5 9 -77 35 -100 37 -103 79 -121 47 -19 87 -9 111
29 23 36 20 52 -34 222 -20 61 -45 139 -55 172 -22 68 -80 151 -115 165 -28
10 -46 96 -23 109 7 5 17 6 21 4 4 -3 8 4 8 15 0 12 18 34 48 56 165 125 287
305 346 508 123 424 -20 848 -320 947 -118 40 -274 14 -414 -67 -84 -49 -202
-167 -268 -268 -54 -83 -67 -93 -32 -26 33 65 136 187 207 246 90 74 216 137
288 143 30 2 55 8 55 12 0 7 -170 53 -235 64 -16 3 -50 -1 -75 -7z m377 -166
c73 -58 120 -117 163 -206 48 -99 70 -204 70 -331 0 -347 -177 -642 -467 -776
-56 -26 -81 -32 -141 -32 -81 -1 -80 -8 8 -49 44 -21 152 -28 205 -14 11 3 28
6 38 6 10 1 15 5 12 11 -3 5 0 7 9 4 8 -3 52 14 98 37 97 51 208 155 278 261
52 80 67 83 20 4 -59 -96 -155 -201 -234 -254 -116 -78 -171 -96 -296 -96 -97
-1 -109 1 -163 29 -119 59 -239 222 -282 380 -22 82 -31 265 -16 351 15 86 63
228 106 314 93 185 249 325 425 381 85 28 111 25 167 -20z m-34 -1341 c7 0 -1
-7 -17 -15 -36 -19 -35 -19 -29 6 4 12 11 18 20 15 8 -3 20 -6 26 -6z m-263
-350 c29 -16 22 -20 -57 -35 -60 -11 -71 -11 -95 3 -16 9 -28 20 -28 25 0 4
19 16 41 27 37 16 46 17 80 5 21 -8 48 -19 59 -25z"/>
<path d="M6685 8987 c-99 -33 -248 -137 -308 -216 -66 -86 -85 -189 -49 -261
15 -32 67 -69 78 -57 3 3 0 34 -6 70 -9 49 -9 79 0 121 6 31 13 56 15 56 2 0
17 -24 33 -53 55 -98 148 -140 297 -135 l90 3 27 -50 28 -50 0 41 c0 53 17
102 40 114 76 41 148 -57 108 -145 -7 -15 -32 -37 -60 -51 -41 -21 -48 -29
-48 -53 0 -52 -35 -115 -94 -168 -56 -49 -150 -103 -180 -103 -12 0 -16 -11
-16 -50 0 -59 25 -130 68 -193 l32 -45 -95 -67 c-165 -118 -196 -166 -235
-372 -65 -346 -155 -783 -161 -783 -4 0 -35 21 -69 48 -73 56 -101 73 -112 66
-4 -3 -4 -14 2 -24 10 -19 3 -39 -61 -178 -16 -34 -29 -64 -29 -66 0 -3 -5
-17 -11 -33 l-10 -27 -21 33 c-19 29 -23 31 -33 18 -6 -9 -17 -34 -25 -56 -11
-34 -11 -43 1 -57 29 -35 172 -144 189 -144 10 0 22 -6 28 -13 6 -7 42 -34 80
-60 63 -43 75 -48 145 -53 43 -4 77 -10 77 -14 0 -4 -22 -88 -49 -187 -27
-100 -55 -218 -62 -264 -26 -180 5 -683 107 -1694 35 -352 63 -617 74 -710 10
-80 24 -210 60 -570 10 -104 26 -248 34 -320 16 -145 43 -444 52 -578 l6 -87
53 0 53 0 8 -78 c5 -53 9 -71 15 -57 4 11 8 14 8 7 1 -8 7 -12 13 -10 7 3 17
-5 23 -16 6 -13 22 -22 40 -24 17 -2 36 -9 43 -15 8 -6 16 -7 20 -1 10 13 35
17 27 4 -3 -5 -1 -10 5 -10 7 0 14 9 17 20 6 22 18 26 28 10 10 -16 25 -12 25
7 0 13 4 11 20 -7 l20 -23 0 96 0 97 52 0 51 0 -6 122 c-4 68 -11 213 -17 323
-6 110 -17 299 -25 420 -8 121 -28 441 -45 710 -16 270 -32 528 -36 575 -3 47
-4 83 -1 80 6 -6 99 -354 208 -785 88 -343 229 -888 290 -1119 30 -114 37
-151 27 -157 -11 -7 -5 -43 29 -171 4 -15 16 -18 78 -18 61 0 75 -3 79 -17 5
-15 16 -18 76 -15 39 2 68 8 64 13 -3 5 0 9 5 9 6 0 11 -4 11 -8 0 -5 26 -10
57 -11 31 -1 60 -4 65 -7 4 -3 8 6 8 19 0 27 16 37 61 37 17 0 32 6 35 15 4 9
-2 56 -11 106 l-18 91 -31 -5 c-27 -5 -28 -5 -9 5 17 8 21 17 17 37 -2 14 -18
98 -35 186 -16 88 -46 243 -65 345 -19 102 -55 286 -79 410 -212 1075 -365
1981 -400 2364 -16 168 -46 370 -63 415 -8 22 -13 18 -99 -74 l-91 -98 -15 34
c-8 19 -27 61 -42 94 -15 33 -35 81 -46 107 l-18 47 93 66 c136 96 130 85 101
180 -14 44 -25 81 -25 82 0 1 17 5 38 9 75 14 158 71 197 138 26 44 34 120 51
504 3 83 9 152 13 152 3 0 55 -92 114 -205 l109 -205 -21 -26 c-12 -15 -21
-40 -21 -55 0 -17 -5 -29 -12 -29 -21 0 -178 -150 -178 -169 0 -9 6 -25 13
-35 12 -16 16 -17 34 -5 18 11 25 9 60 -19 22 -17 58 -52 82 -77 35 -38 41
-51 36 -73 -5 -24 0 -31 46 -59 l52 -32 55 47 c84 72 123 122 120 154 -2 22
14 45 87 125 131 142 138 154 132 216 -5 53 -128 308 -432 892 l-110 212 36
54 c50 72 69 135 69 229 0 142 -58 270 -171 376 -30 28 -108 87 -174 131 -172
115 -216 179 -260 374 -44 198 -114 301 -245 363 -57 27 -77 31 -165 33 -63 2
-115 -2 -140 -10z m290 -665 c5 -12 13 -22 17 -22 8 0 37 -60 84 -172 14 -35
40 -91 56 -126 l30 -64 -30 -96 c-88 -280 -190 -735 -237 -1057 -24 -167 -85
-660 -85 -690 0 -13 -24 -15 -182 -13 l-183 3 3 70 c3 67 12 174 47 545 9 91
24 213 35 271 31 164 184 598 274 777 37 73 37 75 4 230 -10 48 -9 56 12 95
34 59 100 161 100 153 0 -11 -41 -89 -54 -101 -6 -6 -20 -28 -31 -48 -16 -30
-17 -41 -8 -56 6 -10 10 -29 7 -42 -3 -13 17 28 44 91 27 63 61 139 76 168 22
44 25 56 15 75 -7 12 -17 26 -23 30 -7 6 -6 7 4 5 8 -3 19 -14 25 -26z m684
-246 c29 -28 67 -70 83 -93 59 -87 103 -254 80 -312 -7 -20 -10 -12 -15 45
-13 158 -88 266 -332 482 l-60 53 95 -62 c52 -35 119 -86 149 -113z m139
-6543 c-10 -2 -26 -2 -35 0 -10 3 -2 5 17 5 19 0 27 -2 18 -5z m-978 -119 c0
-8 -5 -12 -10 -9 -6 4 -8 11 -5 16 9 14 15 11 15 -7z m63 3 c3 -8 -1 -14 -9
-14 -15 0 -18 9 -7 20 9 9 10 9 16 -6z"/>
<path d="M3455 8840 c-15 -28 -14 -33 2 -60 9 -17 20 -30 23 -30 17 0 19 16 5
36 -9 14 -11 25 -5 29 13 8 13 55 0 55 -5 0 -17 -14 -25 -30z"/>
<path d="M3468 8683 c7 -3 16 -2 19 1 4 3 -2 6 -13 5 -11 0 -14 -3 -6 -6z"/>
<path d="M3500 8558 c0 -8 11 -46 25 -84 14 -38 27 -90 29 -115 2 -26 5 -50 8
-55 2 -5 3 -19 2 -32 -1 -13 5 -26 12 -29 8 -3 14 -11 14 -18 0 -14 24 -15 36
-2 4 4 18 40 31 80 l23 72 -62 55 c-34 30 -74 75 -90 99 -15 25 -28 38 -28 29z"/>
<path d="M6947 8513 c-11 -11 -8 -93 4 -93 26 0 49 22 49 48 0 39 -32 67 -53
45z"/>
<path d="M2995 8203 c-27 -15 -120 -59 -206 -99 -239 -111 -339 -162 -394
-203 -83 -63 -109 -115 -353 -721 -66 -162 -130 -324 -143 -360 -15 -45 -38
-81 -71 -117 -51 -56 -57 -77 -32 -124 15 -29 14 -34 -10 -92 -28 -67 -56
-169 -56 -202 0 -33 40 -88 154 -215 60 -66 110 -120 112 -120 1 0 17 26 34
59 41 77 102 138 168 169 44 20 65 23 118 20 35 -2 64 -3 64 -2 0 1 -16 40
-35 85 -29 70 -33 85 -21 98 21 25 27 51 16 72 -9 16 -4 25 30 58 35 33 39 42
31 62 -7 20 3 46 52 144 l61 120 7 -60 c4 -33 13 -155 19 -272 13 -251 23
-320 56 -393 28 -62 62 -101 115 -135 l35 -23 -4 -63 c-4 -60 -12 -105 -27
-154 -5 -16 11 -40 66 -104 l72 -83 -23 -57 c-35 -84 -103 -206 -108 -193 -2
7 -8 10 -13 6 -5 -3 -9 0 -9 5 0 6 -7 11 -16 11 -8 0 -13 4 -10 9 3 5 0 11 -8
14 -10 4 -20 -29 -41 -141 -15 -81 -69 -358 -120 -617 -51 -258 -105 -531
-120 -605 -49 -254 -174 -845 -245 -1160 -39 -173 -82 -369 -95 -435 -13 -66
-44 -210 -69 -320 -24 -110 -47 -214 -51 -231 l-6 -31 118 -11 c121 -12 265
-17 318 -12 17 1 -36 8 -118 15 -81 6 -149 14 -151 16 -10 9 -14 89 -5 89 5 0
9 9 9 20 0 11 -5 20 -11 20 -6 0 -8 8 -4 19 3 11 1 22 -5 26 -5 3 -10 1 -10
-6 0 -15 -13 -3 -16 15 -1 8 6 11 22 8 19 -3 23 -1 18 12 -4 10 -1 16 9 16 9
0 18 4 21 9 4 5 -3 7 -14 4 -11 -3 -20 0 -20 6 0 6 8 11 18 11 11 0 13 3 6 8
-16 10 -11 102 6 112 8 5 18 6 22 4 4 -3 8 6 8 20 0 13 4 26 9 28 10 3 14 21
12 56 -2 32 -17 27 -30 -9 -14 -40 -14 -39 7 -33 14 5 15 4 2 -5 -22 -16 -27
-14 -32 14 -3 13 -2 22 3 20 4 -3 9 7 11 22 3 25 7 28 36 25 18 -2 32 1 32 7
0 6 -4 11 -10 11 -5 0 -10 5 -10 11 0 6 7 9 15 5 9 -3 15 0 15 8 0 8 -6 16
-12 19 -10 3 -9 8 3 18 18 15 36 89 21 89 -4 0 -13 -5 -20 -12 -9 -9 -12 -9
-12 0 0 6 12 15 26 18 18 5 22 10 15 17 -17 17 -13 27 6 20 16 -6 16 -5 4 10
-7 9 -9 17 -4 17 5 0 19 44 32 98 12 53 29 122 37 152 8 30 28 118 45 195 16
77 43 194 59 260 16 66 42 188 59 270 32 158 69 326 101 460 10 44 21 91 24
105 2 14 25 126 50 250 48 230 71 351 107 545 11 61 26 141 34 179 14 72 12
87 -17 125 -22 29 -23 55 -3 74 8 8 12 17 9 20 -3 3 13 41 35 84 22 44 51 118
64 165 28 95 46 135 73 159 30 26 81 49 109 49 23 0 25 -3 25 -47 0 -66 -28
-108 -91 -138 -57 -26 -54 -40 4 -20 66 23 99 64 112 142 4 24 11 46 16 49 6
3 7 39 3 90 l-7 84 32 0 31 0 0 -89 c0 -50 5 -93 10 -96 6 -3 10 1 10 9 0 14
23 16 170 16 l170 0 2 -232 c1 -184 3 -214 9 -143 4 50 7 154 8 233 l1 142
120 0 c72 0 120 4 120 10 0 6 -111 11 -297 12 l-298 3 -3 68 -3 67 321 0 320
0 0 -69 c0 -79 6 -101 27 -101 13 0 15 14 11 85 -3 66 -1 85 10 90 27 10 31 5
35 -42 2 -29 3 -22 2 17 -1 59 2 70 32 114 34 50 34 50 86 47 90 -4 197 17
262 50 79 41 315 198 315 210 0 14 -11 11 -24 -6 -6 -9 -24 -18 -41 -21 -16
-3 -26 -2 -22 2 3 4 -5 13 -19 21 -34 17 -35 17 -32 -4 2 -12 -3 -17 -14 -15
-11 2 -18 -3 -18 -13 0 -10 5 -13 12 -9 7 4 8 3 4 -4 -4 -6 -13 -9 -20 -6 -7
3 -21 -2 -30 -11 -14 -15 -16 -15 -16 -1 0 9 7 16 15 16 8 0 15 4 15 9 0 4
-11 6 -25 3 -14 -2 -25 -11 -25 -21 0 -10 -3 -12 -8 -5 -15 23 -92 5 -92 -22
0 -7 -5 -16 -11 -19 -17 -11 -68 -12 -62 -1 4 5 -4 7 -18 3 -13 -4 -28 -7 -32
-7 -4 0 -3 -10 3 -22 10 -21 9 -20 -9 2 -20 24 -41 99 -41 144 0 12 7 46 16
75 21 72 72 121 164 157 l72 28 -6 44 c-3 25 -11 51 -17 58 -8 10 -7 27 2 65
l13 52 -38 32 -38 32 -14 124 c-7 68 -25 230 -39 360 -14 129 -32 259 -40 287
-27 103 -85 174 -215 262 -36 24 -124 85 -197 137 -73 51 -134 93 -137 93 -2
0 4 -23 15 -50 22 -57 23 -80 9 -131 -31 -113 -176 -137 -338 -58 -114 56
-216 185 -237 302 -4 20 -12 37 -19 37 -6 -1 -33 -13 -61 -27z m-828 -5729
c-3 -3 -12 -4 -19 -1 -8 3 -5 6 6 6 11 1 17 -2 13 -5z m-2 -84 c2 -31 -18 -43
-33 -19 -7 10 -8 19 -3 19 5 0 12 -6 15 -12 4 -7 4 3 1 22 -4 27 -3 32 7 22 6
-6 12 -21 13 -32z m-40 -180 c8 -13 -5 -13 -25 0 -13 8 -13 10 2 10 9 0 20 -4
23 -10z m-34 -14 c17 10 9 -13 -10 -30 -14 -13 -21 -14 -27 -5 -4 8 -3 10 4 5
12 -7 15 3 13 34 0 10 1 11 5 2 3 -6 10 -10 15 -6z m-21 -76 c0 -5 -7 -10 -16
-10 -8 0 -12 5 -9 10 3 6 10 10 16 10 5 0 9 -4 9 -10z m-3 -36 c-3 -3 -12 -4
-19 -1 -8 3 -5 6 6 6 11 1 17 -2 13 -5z m-47 -20 c0 -8 -5 -12 -10 -9 -6 4 -8
11 -5 16 9 14 15 11 15 -7z m-17 -54 c-3 -11 -9 -20 -14 -20 -11 0 -11 3 -3
24 9 23 23 20 17 -4z m-2 -65 c11 6 11 5 2 -5 -12 -14 -33 -6 -33 13 0 8 3 7
9 -2 5 -8 14 -10 22 -6z m79 -25 c0 -5 -4 -10 -9 -10 -6 0 -13 5 -16 10 -3 6
1 10 9 10 9 0 16 -4 16 -10z"/>
<path d="M4508 6323 c7 -3 16 -2 19 1 4 3 -2 6 -13 5 -11 0 -14 -3 -6 -6z"/>
<path d="M4235 6219 c-4 -6 -4 -13 -1 -16 3 -4 6 -1 6 6 0 7 5 9 10 6 6 -3 10
-1 10 4 0 14 -17 14 -25 0z"/>
<path d="M3921 5778 c-1 -21 4 -38 9 -38 12 0 12 27 0 55 -7 16 -9 13 -9 -17z"/>
<path d="M3880 5690 c0 -22 58 -136 78 -154 30 -26 28 -3 -2 37 -13 18 -31 53
-41 80 -16 42 -35 63 -35 37z"/>
<path d="M3579 5168 c-160 -179 -179 -212 -268 -471 -59 -175 -60 -178 -70
-339 -6 -90 -15 -278 -21 -418 -13 -299 -19 -405 -59 -960 -17 -228 -35 -482
-41 -565 -6 -82 -15 -204 -20 -270 -6 -66 -11 -174 -12 -240 l-3 -120 268 -3
c176 -1 267 1 267 8 0 6 -60 10 -162 11 -131 1 -329 5 -359 8 -3 1 -5 19 -5
41 1 22 5 39 11 36 6 -2 10 13 9 34 0 28 3 37 13 33 7 -3 13 0 13 6 0 6 -6 11
-14 11 -14 0 -16 15 -5 35 4 6 5 19 4 30 -1 14 5 20 22 21 13 1 23 -1 23 -5 0
-3 9 -12 20 -19 26 -16 25 -8 -2 19 -19 18 -19 21 -5 16 11 -4 16 -3 12 4 -4
6 -14 8 -22 5 -17 -7 -48 20 -33 29 5 3 10 2 10 -4 0 -7 8 -7 23 -2 12 5 21
16 19 25 -2 9 2 16 8 16 7 0 9 8 5 20 -5 15 -3 18 9 14 18 -7 17 -24 -4 -41
-13 -11 -12 -12 8 -13 13 0 21 4 18 9 -4 5 0 12 6 14 10 4 10 6 1 6 -7 1 -10
7 -7 15 3 8 -4 16 -20 20 -14 3 -26 11 -26 17 0 6 5 7 12 3 7 -5 9 -2 6 7 -3
8 -1 23 4 34 8 19 8 18 4 -2 -3 -16 2 -24 18 -29 11 -4 24 -11 27 -16 4 -6 9
-6 13 1 4 6 3 11 -2 11 -5 0 -9 19 -9 43 0 27 2 35 7 23 4 -14 9 -16 14 -8 9
15 -2 54 -13 47 -5 -2 -16 4 -26 15 -19 21 -8 29 12 9 13 -13 38 25 30 46 -3
7 -2 29 3 50 8 35 7 37 -16 32 -32 -6 -30 2 4 14 19 6 27 17 28 34 1 14 -2 25
-6 25 -4 0 -10 7 -13 14 -4 10 -1 13 9 9 7 -3 14 -1 15 3 0 5 2 28 4 52 3 28
0 42 -8 42 -9 0 -8 3 1 9 7 4 12 22 10 42 -1 19 3 59 9 89 7 30 14 102 18 160
3 58 8 134 10 170 18 258 23 327 23 340 0 8 2 35 5 60 3 25 9 99 12 165 4 66
11 138 15 160 5 27 6 10 4 -50 -8 -175 -45 -745 -74 -1155 -17 -229 -29 -431
-29 -450 4 -115 55 495 99 1200 6 91 13 197 15 235 13 179 25 464 35 845 6
228 13 443 16 477 l6 62 104 120 c57 66 104 122 104 125 0 19 -29 -6 -111 -96z
m-360 -2795 c-1 -17 -3 -21 -6 -10 -2 9 -9 17 -14 17 -5 0 -9 5 -9 10 0 6 7
10 15 10 10 0 15 -9 14 -27z m61 3 c0 -2 -9 -6 -20 -9 -11 -3 -18 -1 -14 4 5
9 34 13 34 5z m-33 -116 c0 -22 -4 -40 -9 -40 -6 0 -8 7 -4 15 3 8 -1 21 -10
29 -13 13 -12 16 3 25 10 6 19 11 19 11 1 0 1 -18 1 -40z m-52 10 c3 -5 -1
-10 -10 -10 -9 0 -13 5 -10 10 3 6 8 10 10 10 2 0 7 -4 10 -10z m-47 -120 c-9
-13 -14 -16 -20 -7 -4 6 -2 15 5 19 21 14 28 9 15 -12z m22 -20 c0 -5 -5 -10
-11 -10 -5 0 -7 5 -4 10 3 6 8 10 11 10 2 0 4 -4 4 -10z"/>
<path d="M2321 2804 c0 -11 3 -14 6 -6 3 7 2 16 -1 19 -3 4 -6 -2 -5 -13z"/>
<path d="M2311 2754 c0 -11 3 -14 6 -6 3 7 2 16 -1 19 -3 4 -6 -2 -5 -13z"/>
<path d="M2301 2714 c0 -11 3 -14 6 -6 3 7 2 16 -1 19 -3 4 -6 -2 -5 -13z"/>
<path d="M2291 2674 c0 -11 3 -14 6 -6 3 7 2 16 -1 19 -3 4 -6 -2 -5 -13z"/>
<path d="M2282 2620 c0 -14 2 -19 5 -12 2 6 2 18 0 25 -3 6 -5 1 -5 -13z"/>
<path d="M2271 2574 c0 -11 3 -14 6 -6 3 7 2 16 -1 19 -3 4 -6 -2 -5 -13z"/>
<path d="M2262 2530 c0 -14 2 -19 5 -12 2 6 2 18 0 25 -3 6 -5 1 -5 -13z"/>
<path d="M2235 2420 c-4 -17 -5 -34 -2 -36 2 -3 7 10 11 27 3 18 4 34 2 36 -2
3 -7 -10 -11 -27z"/>
<path d="M2216 2329 c-4 -23 -5 -44 -2 -46 2 -2 7 14 11 37 4 23 5 43 2 46 -2
3 -7 -14 -11 -37z"/>
<path d="M2201 2254 c0 -11 3 -14 6 -6 3 7 2 16 -1 19 -3 4 -6 -2 -5 -13z"/>
<path d="M2108 2123 c7 -3 16 -2 19 1 4 3 -2 6 -13 5 -11 0 -14 -3 -6 -6z"/>
<path d="M3210 2100 c0 -5 5 -10 10 -10 6 0 10 5 10 10 0 6 -4 10 -10 10 -5 0
-10 -4 -10 -10z"/>
<path d="M3142 2034 c-10 -11 -10 -14 0 -14 7 0 5 -5 -5 -11 -17 -10 -17 -12
9 -25 15 -8 32 -13 38 -10 6 2 3 5 -8 5 -14 1 -17 7 -14 25 6 33 -4 47 -20 30z"/>
<path d="M3170 2000 c0 -5 5 -10 10 -10 6 0 10 5 10 10 0 6 -4 10 -10 10 -5 0
-10 -4 -10 -10z"/>
<path d="M3291 1984 c0 -11 3 -14 6 -6 3 7 2 16 -1 19 -3 4 -6 -2 -5 -13z"/>
<path d="M2101 1974 c0 -11 3 -14 6 -6 3 7 2 16 -1 19 -3 4 -6 -2 -5 -13z"/>
<path d="M2121 1894 c0 -11 3 -14 6 -6 3 7 2 16 -1 19 -3 4 -6 -2 -5 -13z"/>
<path d="M3281 1874 c0 -11 3 -14 6 -6 3 7 2 16 -1 19 -3 4 -6 -2 -5 -13z"/>
<path d="M2107 1840 c-3 -11 -1 -20 4 -20 5 0 9 9 9 20 0 11 -2 20 -4 20 -2 0
-6 -9 -9 -20z"/>
<path d="M1877 1693 c-12 -65 -14 -89 -5 -94 16 -10 128 -22 135 -15 4 3 -3 6
-14 6 -31 0 -71 42 -63 65 4 11 3 26 -2 33 -8 9 -4 12 13 13 17 1 19 3 7 6
-20 5 -24 19 -7 25 18 6 -8 48 -29 48 -15 0 -21 -17 -35 -87z"/>
<path d="M3057 1703 c-13 -130 -15 -123 51 -121 46 1 50 2 17 5 -22 3 -45 9
-52 14 -13 12 -7 39 9 39 7 0 6 -5 -1 -14 -9 -10 -8 -15 2 -19 9 -3 13 2 11
16 -1 12 -3 26 -3 30 -1 5 -5 6 -9 3 -5 -3 -6 8 -4 25 2 16 9 32 15 36 6 4 7
1 2 -7 -6 -10 -4 -12 8 -7 22 8 22 -2 0 -19 -17 -12 -17 -13 -1 -14 9 0 20 9
23 20 3 11 11 20 16 20 6 0 7 5 4 10 -4 6 -11 8 -16 4 -6 -3 -10 0 -8 7 4 35
0 42 -18 28 -11 -10 -14 -10 -9 -1 5 8 1 12 -12 12 -16 0 -20 -10 -25 -67z"/>
<path d="M3144 1682 c3 -5 0 -13 -6 -15 -9 -4 -10 -6 -1 -6 17 -1 25 16 12 25
-7 4 -9 3 -5 -4z"/>
<path d="M3135 1631 c3 -5 -3 -12 -12 -14 -14 -4 -13 -5 4 -6 27 -1 39 15 17
23 -8 3 -12 2 -9 -3z"/>
<path d="M2023 1554 c2 -13 0 -21 -4 -18 -5 3 -9 0 -9 -5 0 -7 31 -10 88 -9
l87 2 -72 3 c-126 6 -81 23 65 24 108 1 125 3 82 9 -30 4 -97 10 -148 13 l-94
5 5 -24z"/>
<path d="M3177 1573 c-4 -3 -7 -42 -7 -85 l0 -79 173 3 172 3 3 76 3 76 -32 7
c-42 8 -304 8 -312 -1z"/>
<path d="M2205 1530 c3 -5 8 -10 11 -10 2 0 4 5 4 10 0 6 -5 10 -11 10 -5 0
-7 -4 -4 -10z"/>
<path d="M2291 1524 c0 -11 3 -14 6 -6 3 7 2 16 -1 19 -3 4 -6 -2 -5 -13z"/>
<path d="M7740 1493 c0 -4 5 -15 10 -23 8 -13 10 -13 10 2 0 9 -4 20 -10 23
-5 3 -10 3 -10 -2z"/>
<path d="M7760 1381 c0 -28 8 -30 58 -15 69 21 70 31 2 32 -51 0 -60 -2 -60
-17z"/>
<path d="M1981 1364 c0 -11 3 -14 6 -6 3 7 2 16 -1 19 -3 4 -6 -2 -5 -13z"/>
<path d="M1907 1133 c-41 -118 -45 -143 -22 -143 8 0 15 -5 15 -11 0 -6 -9 -8
-22 -4 -22 7 -23 7 -4 -11 13 -14 20 -16 23 -6 3 6 12 12 21 13 11 0 12 2 5 6
-7 2 -13 12 -13 20 0 9 6 13 15 10 10 -4 16 3 19 26 9 58 14 207 7 207 -4 0
-24 -48 -44 -107z"/>
<path d="M3489 1194 c-68 -99 -194 -110 -306 -28 l-31 24 -14 -23 c-51 -80
-79 -186 -87 -322 l-6 -110 -329 -3 c-349 -2 -346 -2 -346 -50 0 -38 -51 -52
-192 -52 -141 0 -273 21 -338 54 -43 22 -45 25 -43 62 2 31 1 34 -5 14 l-8
-25 -354 -6 c-195 -3 -382 -9 -415 -13 -151 -17 -305 -41 -305 -47 0 -3 33 -9
73 -13 322 -31 950 -81 1172 -95 164 -9 345 -1 386 19 15 7 31 21 35 31 9 19
57 19 2139 19 1375 0 2183 -4 2280 -10 199 -14 332 -25 685 -56 446 -39 643
-26 711 47 l27 29 471 0 c307 0 471 3 471 10 0 13 -36 14 -535 14 l-410 1 -6
55 c-4 30 -14 75 -23 99 -9 24 -35 120 -57 213 -41 169 -57 210 -46 118 3 -27
4 -50 1 -50 -3 0 -20 11 -37 24 -63 47 -142 51 -203 11 -19 -12 -28 -14 -34
-6 -4 7 -21 -57 -39 -141 -18 -84 -41 -171 -52 -194 -10 -22 -19 -55 -19 -72
0 -20 -5 -32 -13 -32 -31 0 -503 41 -513 44 -6 3 -14 43 -17 93 -6 88 -30 181
-67 269 l-20 45 -37 -30 c-47 -37 -112 -61 -169 -61 -39 0 -47 4 -86 50 -39
45 -46 50 -73 44 -39 -8 -98 -38 -114 -58 -11 -14 -11 -16 5 -16 23 0 51 -17
42 -25 -3 -3 -21 0 -40 8 -29 12 -37 12 -53 1 -17 -12 -16 -14 9 -25 14 -7 26
-16 26 -21 0 -11 -28 -10 -35 2 -8 13 -58 7 -62 -7 -2 -6 6 -14 19 -18 20 -6
21 -8 5 -12 -10 -3 -24 0 -31 6 -8 6 -21 8 -30 5 -13 -5 -14 -9 -5 -20 16 -20
5 -28 -18 -14 -16 10 -32 6 -98 -27 -44 -22 -117 -52 -163 -68 -87 -28 -138
-62 -153 -102 l-9 -23 -791 2 -792 3 -13 44 c-14 48 -62 104 -103 120 -14 6
-83 27 -154 46 -143 39 -264 86 -299 117 -51 44 -189 139 -230 158 -70 32 -92
27 -129 -26z m4549 -149 c16 -17 16 -17 -3 -10 -11 4 -43 10 -70 12 -46 5 -76
-3 -138 -35 -4 -2 -4 3 -1 11 17 45 175 61 212 22z m8 -50 c21 -8 34 -18 31
-21 -4 -4 -21 -1 -39 7 -46 19 -136 17 -177 -5 -24 -13 -32 -14 -29 -4 3 7 25
21 49 30 49 20 107 18 165 -7z m3 -49 c25 -7 47 -18 49 -24 5 -15 -3 -15 -62
3 -62 19 -108 19 -169 0 -36 -11 -47 -11 -44 -2 10 32 149 47 226 23z m25 -60
c58 -24 39 -28 -45 -10 -68 15 -82 15 -149 1 -41 -8 -77 -13 -79 -11 -18 17
100 44 174 40 33 -2 78 -11 99 -20z"/>
<path d="M1989 1163 c-13 -16 -12 -17 4 -4 16 13 21 21 13 21 -2 0 -10 -8 -17
-17z"/>
<path d="M2053 1120 c-13 -5 -23 -11 -23 -12 0 -2 45 -3 99 -3 65 0 97 3 90
10 -13 13 -139 17 -166 5z"/>
<path d="M2033 1060 c-37 -15 -29 -33 10 -23 17 4 69 8 115 8 79 0 100 6 66
19 -24 9 -166 6 -191 -4z"/>
<path d="M2028 1003 c-16 -2 -28 -9 -28 -14 0 -7 17 -7 48 -2 26 4 82 7 125 6
46 -1 75 2 72 8 -6 9 -162 10 -217 2z"/>
<path d="M2028 948 c-47 -13 -52 -33 -5 -21 17 4 80 8 139 8 72 0 104 3 97 10
-14 14 -185 16 -231 3z"/>
<path d="M9215 661 c-3 -6 5 -13 17 -16 36 -9 173 -1 173 10 0 13 -181 19
-190 6z"/>
</g>
</svg>
