<svg width="60" height="25" viewBox="0 0 60 25" fill="none" xmlns="http://www.w3.org/2000/svg">
<rect y="0.5" width="60" height="24" rx="4" fill="black" fill-opacity="0.05"/>
<path d="M8.60742 14.5303V18.5H7.37695V7.99707H10.2627C11.3857 7.99707 12.2549 8.27051 12.8701 8.81738C13.4902 9.36426 13.8003 10.1357 13.8003 11.1318C13.8003 12.1279 13.4561 12.9434 12.7676 13.5781C12.084 14.2129 11.1587 14.5303 9.9917 14.5303H8.60742ZM8.60742 9.11035V13.417H9.89648C10.7461 13.417 11.3931 13.2241 11.8374 12.8384C12.2866 12.4478 12.5112 11.8984 12.5112 11.1904C12.5112 9.80371 11.6909 9.11035 10.0503 9.11035H8.60742ZM20.48 18.5H19.2788V17.3281H19.2495C18.7271 18.2266 17.958 18.6758 16.9424 18.6758C16.1953 18.6758 15.6094 18.478 15.1846 18.0825C14.7646 17.687 14.5547 17.1621 14.5547 16.5078C14.5547 15.1064 15.3799 14.291 17.0303 14.0615L19.2788 13.7466C19.2788 12.4722 18.7637 11.835 17.7334 11.835C16.8301 11.835 16.0146 12.1426 15.2871 12.7578V11.5273C16.0244 11.0586 16.874 10.8242 17.8359 10.8242C19.5986 10.8242 20.48 11.7568 20.48 13.6221V18.5ZM19.2788 14.7061L17.4697 14.9551C16.9131 15.0332 16.4932 15.1724 16.21 15.3726C15.9268 15.5679 15.7852 15.917 15.7852 16.4199C15.7852 16.7861 15.9146 17.0864 16.1733 17.3208C16.437 17.5503 16.7861 17.665 17.2207 17.665C17.8164 17.665 18.3071 17.4575 18.6929 17.0425C19.0835 16.6226 19.2788 16.0928 19.2788 15.4531V14.7061ZM28.8076 18.5H27.6064V17.3135H27.5771C27.0791 18.2217 26.3076 18.6758 25.2627 18.6758C23.4756 18.6758 22.582 17.6113 22.582 15.4824V11H23.7759V15.292C23.7759 16.874 24.3813 17.665 25.5923 17.665C26.1782 17.665 26.6592 17.4502 27.0352 17.0205C27.416 16.5859 27.6064 16.0195 27.6064 15.3213V11H28.8076V18.5ZM30.7852 18.229V16.9399C31.4395 17.4233 32.1597 17.665 32.9458 17.665C34.0005 17.665 34.5278 17.3135 34.5278 16.6104C34.5278 16.4102 34.4814 16.2417 34.3887 16.105C34.3008 15.9634 34.1787 15.8389 34.0225 15.7314C33.8711 15.624 33.6904 15.5288 33.4805 15.4458C33.2754 15.3579 33.0532 15.2676 32.814 15.1748C32.4819 15.043 32.189 14.9111 31.9351 14.7793C31.686 14.6426 31.4761 14.4912 31.3052 14.3252C31.1392 14.1543 31.0122 13.9614 30.9243 13.7466C30.8413 13.5317 30.7998 13.2803 30.7998 12.9922C30.7998 12.6406 30.8804 12.3306 31.0415 12.062C31.2026 11.7886 31.4175 11.5615 31.686 11.3809C31.9546 11.1953 32.2598 11.0562 32.6016 10.9634C32.9482 10.8706 33.3047 10.8242 33.6709 10.8242C34.3203 10.8242 34.9014 10.9365 35.4141 11.1611V12.377C34.8623 12.0156 34.2275 11.835 33.5098 11.835C33.2852 11.835 33.0825 11.8618 32.9019 11.9155C32.7212 11.9644 32.5649 12.0352 32.4331 12.1279C32.3062 12.2207 32.2061 12.333 32.1328 12.4648C32.0645 12.5918 32.0303 12.7334 32.0303 12.8896C32.0303 13.085 32.0645 13.2485 32.1328 13.3804C32.2061 13.5122 32.311 13.6294 32.4478 13.7319C32.5845 13.8345 32.7505 13.9272 32.9458 14.0103C33.1411 14.0933 33.3633 14.1836 33.6123 14.2812C33.9443 14.4082 34.2422 14.54 34.5059 14.6768C34.7695 14.8086 34.9941 14.96 35.1797 15.1309C35.3652 15.2969 35.5068 15.4897 35.6045 15.7095C35.707 15.9292 35.7583 16.1904 35.7583 16.4932C35.7583 16.8643 35.6753 17.1865 35.5093 17.46C35.3481 17.7334 35.1309 17.9604 34.8574 18.1411C34.584 18.3218 34.269 18.4561 33.9126 18.5439C33.5562 18.6318 33.1826 18.6758 32.792 18.6758C32.0205 18.6758 31.3516 18.5269 30.7852 18.229ZM43.6392 15.0503H38.3438C38.3633 15.8853 38.5879 16.5298 39.0176 16.9839C39.4473 17.438 40.0381 17.665 40.79 17.665C41.6348 17.665 42.4111 17.3867 43.1191 16.8301V17.958C42.46 18.4365 41.5884 18.6758 40.5044 18.6758C39.4448 18.6758 38.6123 18.3364 38.0068 17.6577C37.4014 16.9741 37.0986 16.0146 37.0986 14.7793C37.0986 13.6123 37.4282 12.6626 38.0874 11.9302C38.7515 11.1929 39.5742 10.8242 40.5557 10.8242C41.5371 10.8242 42.2964 11.1416 42.8335 11.7764C43.3706 12.4111 43.6392 13.2925 43.6392 14.4204V15.0503ZM42.4087 14.0322C42.4038 13.3389 42.2354 12.7993 41.9033 12.4136C41.5762 12.0278 41.1196 11.835 40.5337 11.835C39.9673 11.835 39.4863 12.0376 39.0908 12.4429C38.6953 12.8481 38.4512 13.3779 38.3584 14.0322H42.4087ZM51.8643 18.5H50.6631V17.2256H50.6338C50.0771 18.1924 49.2178 18.6758 48.0557 18.6758C47.1133 18.6758 46.3589 18.3413 45.7925 17.6724C45.231 16.9985 44.9502 16.083 44.9502 14.9258C44.9502 13.6855 45.2627 12.6919 45.8877 11.9448C46.5127 11.1978 47.3452 10.8242 48.3853 10.8242C49.4155 10.8242 50.165 11.2295 50.6338 12.04H50.6631V7.39648H51.8643V18.5ZM50.6631 15.1089V14.0029C50.6631 13.3975 50.4629 12.8848 50.0625 12.4648C49.6621 12.0449 49.1543 11.835 48.5391 11.835C47.8066 11.835 47.2305 12.1035 46.8105 12.6406C46.3906 13.1777 46.1807 13.9199 46.1807 14.8672C46.1807 15.7314 46.3809 16.415 46.7812 16.918C47.1865 17.416 47.7285 17.665 48.4072 17.665C49.0762 17.665 49.6182 17.4233 50.0332 16.9399C50.4531 16.4565 50.6631 15.8462 50.6631 15.1089Z" fill="black" fill-opacity="0.75"/>
</svg>
