<svg width="66" height="25" viewBox="0 0 66 25" fill="none" xmlns="http://www.w3.org/2000/svg">
<rect y="0.5" width="66" height="24" rx="4" fill="black" fill-opacity="0.05"/>
<path d="M8.60742 14.5303V18.5H7.37695V7.99707H10.2627C11.3857 7.99707 12.2549 8.27051 12.8701 8.81738C13.4902 9.36426 13.8003 10.1357 13.8003 11.1318C13.8003 12.1279 13.4561 12.9434 12.7676 13.5781C12.084 14.2129 11.1587 14.5303 9.9917 14.5303H8.60742ZM8.60742 9.11035V13.417H9.89648C10.7461 13.417 11.3931 13.2241 11.8374 12.8384C12.2866 12.4478 12.5112 11.8984 12.5112 11.1904C12.5112 9.80371 11.6909 9.11035 10.0503 9.11035H8.60742ZM21.0952 15.0503H15.7998C15.8193 15.8853 16.0439 16.5298 16.4736 16.9839C16.9033 17.438 17.4941 17.665 18.2461 17.665C19.0908 17.665 19.8672 17.3867 20.5752 16.8301V17.958C19.916 18.4365 19.0444 18.6758 17.9604 18.6758C16.9009 18.6758 16.0684 18.3364 15.4629 17.6577C14.8574 16.9741 14.5547 16.0146 14.5547 14.7793C14.5547 13.6123 14.8843 12.6626 15.5435 11.9302C16.2075 11.1929 17.0303 10.8242 18.0117 10.8242C18.9932 10.8242 19.7524 11.1416 20.2896 11.7764C20.8267 12.4111 21.0952 13.2925 21.0952 14.4204V15.0503ZM19.8647 14.0322C19.8599 13.3389 19.6914 12.7993 19.3594 12.4136C19.0322 12.0278 18.5757 11.835 17.9897 11.835C17.4233 11.835 16.9424 12.0376 16.5469 12.4429C16.1514 12.8481 15.9072 13.3779 15.8145 14.0322H19.8647ZM29.1445 18.5H27.9434V14.2227C27.9434 12.6309 27.3623 11.835 26.2002 11.835C25.5996 11.835 25.1016 12.062 24.7061 12.5161C24.3154 12.9653 24.1201 13.5342 24.1201 14.2227V18.5H22.9189V11H24.1201V12.2451H24.1494C24.7158 11.2979 25.5361 10.8242 26.6104 10.8242C27.4307 10.8242 28.0581 11.0903 28.4927 11.6226C28.9272 12.1499 29.1445 12.9141 29.1445 13.915V18.5ZM37.8164 18.5H36.6152V17.2256H36.5859C36.0293 18.1924 35.1699 18.6758 34.0078 18.6758C33.0654 18.6758 32.311 18.3413 31.7446 17.6724C31.1831 16.9985 30.9023 16.083 30.9023 14.9258C30.9023 13.6855 31.2148 12.6919 31.8398 11.9448C32.4648 11.1978 33.2974 10.8242 34.3374 10.8242C35.3677 10.8242 36.1172 11.2295 36.5859 12.04H36.6152V7.39648H37.8164V18.5ZM36.6152 15.1089V14.0029C36.6152 13.3975 36.415 12.8848 36.0146 12.4648C35.6143 12.0449 35.1064 11.835 34.4912 11.835C33.7588 11.835 33.1826 12.1035 32.7627 12.6406C32.3428 13.1777 32.1328 13.9199 32.1328 14.8672C32.1328 15.7314 32.333 16.415 32.7334 16.918C33.1387 17.416 33.6807 17.665 34.3594 17.665C35.0283 17.665 35.5703 17.4233 35.9854 16.9399C36.4053 16.4565 36.6152 15.8462 36.6152 15.1089ZM40.8633 9.0957C40.6484 9.0957 40.4653 9.02246 40.314 8.87598C40.1626 8.72949 40.0869 8.54395 40.0869 8.31934C40.0869 8.09473 40.1626 7.90918 40.314 7.7627C40.4653 7.61133 40.6484 7.53564 40.8633 7.53564C41.083 7.53564 41.2686 7.61133 41.4199 7.7627C41.5762 7.90918 41.6543 8.09473 41.6543 8.31934C41.6543 8.53418 41.5762 8.71729 41.4199 8.86865C41.2686 9.02002 41.083 9.0957 40.8633 9.0957ZM41.4492 18.5H40.248V11H41.4492V18.5ZM50.1064 18.5H48.9053V14.2227C48.9053 12.6309 48.3242 11.835 47.1621 11.835C46.5615 11.835 46.0635 12.062 45.668 12.5161C45.2773 12.9653 45.082 13.5342 45.082 14.2227V18.5H43.8809V11H45.082V12.2451H45.1113C45.6777 11.2979 46.498 10.8242 47.5723 10.8242C48.3926 10.8242 49.02 11.0903 49.4546 11.6226C49.8892 12.1499 50.1064 12.9141 50.1064 13.915V18.5ZM58.7783 17.8994C58.7783 20.6533 57.46 22.0303 54.8232 22.0303C53.8955 22.0303 53.085 21.8545 52.3916 21.5029V20.3018C53.2363 20.7705 54.042 21.0049 54.8086 21.0049C56.6543 21.0049 57.5771 20.0234 57.5771 18.0605V17.2402H57.5479C56.9766 18.1973 56.1172 18.6758 54.9697 18.6758C54.0371 18.6758 53.2852 18.3438 52.7139 17.6797C52.1475 17.0107 51.8643 16.1147 51.8643 14.9917C51.8643 13.7173 52.1694 12.7041 52.7798 11.9521C53.395 11.2002 54.2349 10.8242 55.2993 10.8242C56.3101 10.8242 57.0596 11.2295 57.5479 12.04H57.5771V11H58.7783V17.8994ZM57.5771 15.1089V14.0029C57.5771 13.4072 57.3745 12.897 56.9692 12.4722C56.5688 12.0474 56.0684 11.835 55.4678 11.835C54.7256 11.835 54.1445 12.106 53.7246 12.6479C53.3047 13.1851 53.0947 13.9395 53.0947 14.9111C53.0947 15.7461 53.2949 16.415 53.6953 16.918C54.1006 17.416 54.6353 17.665 55.2993 17.665C55.9731 17.665 56.52 17.4258 56.9399 16.9473C57.3647 16.4688 57.5771 15.856 57.5771 15.1089Z" fill="black" fill-opacity="0.75"/>
</svg>
