<svg width="28" height="28" viewBox="0 0 28 28" fill="none" xmlns="http://www.w3.org/2000/svg">
<g clip-path="url(#clip0_804_2510)">
<path fill-rule="evenodd" clip-rule="evenodd" d="M20.6475 13.344L8.10504 6.10241C7.99033 6.03564 7.86006 6.00023 7.72733 5.99976H7.72514C7.59233 6.00028 7.462 6.03571 7.3472 6.10247C7.23159 6.16841 7.13561 6.26392 7.0691 6.3792C7.0026 6.49448 6.96796 6.62539 6.96876 6.75847V21.2415C6.96824 21.3746 7.00291 21.5056 7.06927 21.6211C7.13563 21.7365 7.23131 21.8324 7.34664 21.899C7.46197 21.9656 7.59285 22.0005 7.72602 22.0003C7.8592 22 7.98994 21.9646 8.10501 21.8975L20.6475 14.6559C20.7627 14.5895 20.8583 14.4938 20.9248 14.3787C20.9913 14.2635 21.0263 14.1329 21.0263 14C21.0263 13.867 20.9913 13.7364 20.9248 13.6212C20.8583 13.5061 20.7627 13.4104 20.6475 13.344Z" fill="#809BA8"/>
</g>
<defs>
<clipPath id="clip0_804_2510">
<rect width="16" height="16" fill="white" transform="translate(6 6)"/>
</clipPath>
</defs>
</svg>
