<svg width="29" height="30" viewBox="0 0 29 30" fill="none" xmlns="http://www.w3.org/2000/svg">
<path opacity="0.5" d="M23.25 1.625H3.75C2.40612 1.625 1.3125 2.71862 1.3125 4.0625V17.0625C1.3125 18.4064 2.40612 19.5 3.75 19.5H6.1875V23.5625C6.1875 23.8753 6.36706 24.1589 6.64737 24.2946C6.76031 24.3482 6.88056 24.375 7 24.375C7.18119 24.375 7.36075 24.3149 7.50781 24.1971L13.3789 19.5H23.25C24.5939 19.5 25.6875 18.4064 25.6875 17.0625V4.0625C25.6875 2.71862 24.5939 1.625 23.25 1.625ZM13.5 13H7C6.55069 13 6.1875 12.636 6.1875 12.1875C6.1875 11.739 6.55069 11.375 7 11.375H13.5C13.9493 11.375 14.3125 11.739 14.3125 12.1875C14.3125 12.636 13.9493 13 13.5 13ZM20 9.75H7C6.55069 9.75 6.1875 9.386 6.1875 8.9375C6.1875 8.489 6.55069 8.125 7 8.125H20C20.4493 8.125 20.8125 8.489 20.8125 8.9375C20.8125 9.386 20.4493 9.75 20 9.75Z" fill="url(#paint0_linear_1_4)"/>
<g clip-path="url(#clip0_1_4)">
<path d="M21 30C25.4172 30 29 26.4172 29 22C29 17.5828 25.4172 14 21 14C16.5828 14 13 17.5828 13 22C13 26.4172 16.5828 30 21 30ZM20.4286 17.4286C20.4286 17.1143 20.6857 16.8571 21 16.8571C21.3143 16.8571 21.5714 17.1143 21.5714 17.4286V21.7257L24.2143 23.84C24.46 24.0372 24.5 24.3971 24.3029 24.6429C24.1914 24.7829 24.0257 24.8571 23.8571 24.8571C23.7314 24.8571 23.6057 24.8171 23.5 24.7314L20.6429 22.4457C20.5086 22.3371 20.4286 22.1743 20.4286 22L20.4286 17.4286Z" fill="url(#paint1_linear_1_4)"/>
</g>
<defs>
<linearGradient id="paint0_linear_1_4" x1="1.3125" y1="24.3908" x2="29.2714" y2="7.56396" gradientUnits="userSpaceOnUse">
<stop stop-color="#269BE9"/>
<stop offset="1" stop-color="#6CD1F1"/>
</linearGradient>
<linearGradient id="paint1_linear_1_4" x1="14.2308" y1="27.5385" x2="27.1538" y2="16.4615" gradientUnits="userSpaceOnUse">
<stop stop-color="#269BE9"/>
<stop offset="1" stop-color="#6CD1F1"/>
</linearGradient>
<clipPath id="clip0_1_4">
<rect width="16" height="16" fill="white" transform="translate(13 14)"/>
</clipPath>
</defs>
</svg>
