<svg width="28" height="32" viewBox="0 0 28 32" fill="none" xmlns="http://www.w3.org/2000/svg">
<path d="M0.0128371 0L0 9.33331L19.2857 12L0 14.6667L0.0128371 24L27 12L0.0128371 0Z" fill="url(#paint0_linear_14_225)" fill-opacity="0.5"/>
<g clip-path="url(#clip0_14_225)">
<path d="M19 32C23.6932 32 27.5 28.1932 27.5 23.5C27.5 18.8068 23.6932 15 19 15C14.3068 15 10.5 18.8068 10.5 23.5C10.5 28.1932 14.3068 32 19 32ZM18.3928 18.6429C18.3928 18.3089 18.6661 18.0357 19 18.0357C19.3339 18.0357 19.6072 18.3089 19.6072 18.6429V23.2086L22.4152 25.455C22.6763 25.6645 22.7188 26.047 22.5093 26.308C22.3909 26.4568 22.2148 26.5357 22.0357 26.5357C21.9021 26.5357 21.7686 26.4932 21.6563 26.4021L18.6206 23.9736C18.4779 23.8582 18.3929 23.6852 18.3929 23.5L18.3928 18.6429Z" fill="url(#paint1_linear_14_225)"/>
</g>
<defs>
<linearGradient id="paint0_linear_14_225" x1="1.11418e-07" y1="24.0167" x2="30.1482" y2="4.96501" gradientUnits="userSpaceOnUse">
<stop stop-color="#269BE9"/>
<stop offset="1" stop-color="#6CD1F1"/>
</linearGradient>
<linearGradient id="paint1_linear_14_225" x1="11.8077" y1="29.3846" x2="25.5385" y2="17.6154" gradientUnits="userSpaceOnUse">
<stop stop-color="#269BE9"/>
<stop offset="1" stop-color="#6CD1F1"/>
</linearGradient>
<clipPath id="clip0_14_225">
<rect width="17" height="17" fill="white" transform="translate(10.5 15)"/>
</clipPath>
</defs>
</svg>
