<svg width="36" height="33" viewBox="0 0 36 33" fill="none" xmlns="http://www.w3.org/2000/svg">
<path fill-rule="evenodd" clip-rule="evenodd" d="M11.8151 24.3996L15.0048 28.5415C15.2943 28.9175 15.2435 29.4497 14.8919 29.7684L13.795 30.7631C13.599 30.9406 13.3633 31.0197 13.0998 30.9959C12.8364 30.9721 12.6194 30.8515 12.4577 30.6424L8.92141 26.0688L11.8151 24.3996ZM29.3124 13.7698H32.561C33.0806 13.7698 33.5011 13.3458 33.5 12.8273C33.4989 12.3081 33.0752 11.8886 32.5563 11.8886H29.3077C28.7881 11.8886 28.3676 12.3126 28.3687 12.8311C28.3697 13.3504 28.7934 13.7698 29.3124 13.7698ZM25.4564 5.22391L27.0808 2.41303C27.3403 1.96396 27.1885 1.38763 26.739 1.12707C26.2902 0.866919 25.7124 1.01871 25.4526 1.46831L23.8283 4.2792C23.5688 4.72827 23.7205 5.3046 24.17 5.56515C24.6189 5.8253 25.1966 5.67351 25.4564 5.22391ZM29.215 8.59089L31.882 7.05242C32.3347 6.79126 32.4898 6.21299 32.2284 5.76057C31.967 5.30822 31.3883 5.15328 30.9355 5.41443L28.2685 6.95297C27.8157 7.21413 27.6607 7.7924 27.9221 8.24482C28.1834 8.6971 28.7622 8.85204 29.215 8.59089ZM25.0203 12.8241L28.1661 18.268C28.7567 19.2901 28.4029 20.6091 27.38 21.1993C26.4254 21.7499 25.212 21.4788 24.5742 20.6096C21.0921 20.0804 16.5562 20.6489 12.046 22.4055L7.71 14.9019C11.4892 11.8809 14.2584 8.2597 15.5407 4.98219C15.0903 3.99117 15.4604 2.79146 16.4224 2.23651C17.4454 1.64637 18.7655 1.99988 19.3562 3.02193L22.5019 8.46584C22.5915 8.39668 22.6867 8.33268 22.7874 8.27457C24.0029 7.57339 25.5573 7.98949 26.259 9.20401C26.9608 10.4185 26.5444 11.9715 25.3288 12.6727C25.2281 12.7308 25.125 12.7812 25.0203 12.8241ZM10.9557 23.1993L6.41227 15.3367L2.80031 17.4203C0.605537 18.6863 -0.15333 21.5163 1.11375 23.7091C2.3809 25.9019 5.21333 26.6603 7.40811 25.3943L11.0201 23.3107L10.9557 23.1993Z" fill="url(#paint0_linear_1_27)" fill-opacity="0.5"/>
<path d="M28.2812 30.625C28.2812 30.7825 28.2187 30.9335 28.1073 31.0448C27.996 31.1562 27.845 31.2188 27.6875 31.2188H25.3125C25.155 31.2188 25.004 31.1562 24.8926 31.0448C24.7813 30.9335 24.7187 30.7825 24.7187 30.625C24.7187 30.4675 24.7813 30.3165 24.8926 30.2052C25.004 30.0938 25.155 30.0313 25.3125 30.0313H27.6875C27.845 30.0313 27.996 30.0938 28.1073 30.2052C28.2187 30.3165 28.2812 30.4675 28.2812 30.625ZM33.5968 25.5655L32.6794 29.6943C32.6359 29.8904 32.5434 30.0722 32.4105 30.2228C32.2776 30.3733 32.1087 30.4878 31.9195 30.5553C31.7304 30.6228 31.5272 30.6413 31.329 30.609C31.1308 30.5767 30.944 30.4946 30.7861 30.3704L28.7644 28.8438H24.2371L22.2139 30.3704C22.056 30.4946 21.8692 30.5767 21.671 30.609C21.4728 30.6413 21.2696 30.6228 21.0804 30.5553C20.8913 30.4878 20.7224 30.3733 20.5895 30.2228C20.4566 30.0722 20.3641 29.8904 20.3205 29.6943L19.4032 25.5655C19.3643 25.3883 19.3662 25.2046 19.4089 25.0283C19.4516 24.852 19.5339 24.6877 19.6496 24.548L21.7693 22.0052C21.8404 21.0708 22.055 20.1528 22.4053 19.2836C23.3628 16.8834 25.0772 15.3775 25.7726 14.8416C25.9808 14.6804 26.2367 14.5928 26.5 14.5928C26.7633 14.5928 27.0192 14.6804 27.2273 14.8416C27.9205 15.3775 29.6372 16.8834 30.5946 19.2836C30.945 20.1528 31.1595 21.0708 31.2307 22.0052L33.3504 24.548C33.466 24.6877 33.5483 24.852 33.591 25.0283C33.6337 25.2046 33.6357 25.3883 33.5968 25.5655ZM23.2633 28.0889C22.4662 26.6377 21.9823 25.211 21.8116 23.8088L20.5625 25.308L21.4798 29.4375L21.4932 29.4279L23.2633 28.0889ZM27.3906 21.4219C27.3906 21.2457 27.3384 21.0735 27.2405 20.9271C27.1427 20.7806 27.0036 20.6665 26.8408 20.599C26.6781 20.5316 26.499 20.514 26.3262 20.5484C26.1535 20.5827 25.9948 20.6676 25.8702 20.7921C25.7457 20.9167 25.6608 21.0754 25.6265 21.2481C25.5921 21.4209 25.6098 21.6 25.6772 21.7627C25.7446 21.9254 25.8587 22.0645 26.0052 22.1624C26.1516 22.2603 26.3238 22.3125 26.5 22.3125C26.7362 22.3125 26.9627 22.2187 27.1298 22.0516C27.2968 21.8846 27.3906 21.6581 27.3906 21.4219ZM32.4375 25.308L31.1884 23.8088C31.0192 25.208 30.5353 26.6352 29.7367 28.0904L31.5068 29.4264L31.5201 29.436L32.4375 25.308Z" fill="url(#paint1_linear_1_27)"/>
<defs>
<linearGradient id="paint0_linear_1_27" x1="0.5" y1="31.0208" x2="37.8158" y2="7.96374" gradientUnits="userSpaceOnUse">
<stop stop-color="#269BE9"/>
<stop offset="1" stop-color="#6CD1F1"/>
</linearGradient>
<linearGradient id="paint1_linear_1_27" x1="26.5" y1="14.5928" x2="26.5" y2="31.2188" gradientUnits="userSpaceOnUse">
<stop stop-color="#269BE9"/>
<stop offset="1" stop-color="#6CD1F1"/>
</linearGradient>
</defs>
</svg>
