<svg width="34" height="32" viewBox="0 0 34 32" fill="none" xmlns="http://www.w3.org/2000/svg">
<path fill-rule="evenodd" clip-rule="evenodd" d="M11.8151 24.3996L15.0048 28.5415C15.2943 28.9175 15.2435 29.4497 14.8919 29.7684L13.795 30.7631C13.599 30.9406 13.3633 31.0197 13.0998 30.9959C12.8364 30.9721 12.6194 30.8515 12.4577 30.6424L8.92141 26.0688L11.8151 24.3996ZM29.3124 13.7698H32.561C33.0806 13.7698 33.5011 13.3458 33.5 12.8273C33.4989 12.3082 33.0752 11.8886 32.5563 11.8886H29.3077C28.7881 11.8886 28.3676 12.3126 28.3687 12.8311C28.3697 13.3504 28.7934 13.7698 29.3124 13.7698ZM25.4564 5.22391L27.0808 2.41303C27.3403 1.96396 27.1885 1.38763 26.739 1.12707C26.2902 0.866919 25.7124 1.01871 25.4526 1.46831L23.8283 4.2792C23.5688 4.72827 23.7205 5.3046 24.17 5.56515C24.6189 5.8253 25.1966 5.67351 25.4564 5.22391ZM29.215 8.59089L31.882 7.05242C32.3347 6.79126 32.4898 6.21299 32.2284 5.76057C31.967 5.30822 31.3883 5.15328 30.9355 5.41443L28.2685 6.95297C27.8157 7.21413 27.6607 7.7924 27.9221 8.24482C28.1834 8.6971 28.7622 8.85204 29.215 8.59089ZM25.0203 12.8241L28.1661 18.268C28.7567 19.2901 28.4029 20.6091 27.38 21.1993C26.4254 21.7499 25.212 21.4788 24.5742 20.6096C21.0921 20.0804 16.5562 20.6489 12.046 22.4055L7.71 14.9019C11.4892 11.8809 14.2584 8.2597 15.5407 4.98219C15.0903 3.99117 15.4604 2.79146 16.4224 2.23651C17.4454 1.64637 18.7656 1.99988 19.3562 3.02193L22.5019 8.46584C22.5915 8.39668 22.6867 8.33268 22.7874 8.27457C24.0029 7.57339 25.5573 7.98949 26.259 9.20401C26.9608 10.4185 26.5444 11.9715 25.3288 12.6727C25.2281 12.7308 25.125 12.7812 25.0203 12.8241ZM10.9557 23.1993L6.41227 15.3367L2.80031 17.4203C0.605537 18.6863 -0.15333 21.5163 1.11375 23.7091C2.3809 25.9019 5.21333 26.6603 7.4081 25.3943L11.0201 23.3107L10.9557 23.1993Z" fill="url(#paint0_linear_14_231)" fill-opacity="0.5"/>
<rect x="17" y="16" width="16" height="16" rx="8" fill="white"/>
<path d="M25 32C29.4172 32 33 28.4172 33 24C33 19.5828 29.4172 16 25 16C20.5828 16 17 19.5828 17 24C17 28.4172 20.5828 32 25 32ZM24.4286 19.4286C24.4286 19.1143 24.6857 18.8571 25 18.8571C25.3143 18.8571 25.5714 19.1143 25.5714 19.4286V23.7257L28.2143 25.84C28.46 26.0372 28.5 26.3971 28.3029 26.6429C28.1914 26.7829 28.0257 26.8571 27.8571 26.8571C27.7314 26.8571 27.6057 26.8171 27.5 26.7314L24.6429 24.4457C24.5086 24.3371 24.4286 24.1743 24.4286 24L24.4286 19.4286Z" fill="url(#paint1_linear_14_231)"/>
<defs>
<linearGradient id="paint0_linear_14_231" x1="0.5" y1="31.0208" x2="37.8158" y2="7.96374" gradientUnits="userSpaceOnUse">
<stop stop-color="#269BE9"/>
<stop offset="1" stop-color="#6CD1F1"/>
</linearGradient>
<linearGradient id="paint1_linear_14_231" x1="18.2308" y1="29.5385" x2="31.1538" y2="18.4615" gradientUnits="userSpaceOnUse">
<stop stop-color="#269BE9"/>
<stop offset="1" stop-color="#6CD1F1"/>
</linearGradient>
</defs>
</svg>
