<svg width="28" height="28" viewBox="0 0 28 28" fill="none" xmlns="http://www.w3.org/2000/svg">
<path fill-rule="evenodd" clip-rule="evenodd" d="M9.7578 21.2896L12.3675 24.8842C12.6044 25.2105 12.5629 25.6724 12.2752 25.949L11.3777 26.8122C11.2174 26.9663 11.0245 27.0349 10.8089 27.0142C10.5934 26.9936 10.4159 26.889 10.2836 26.7074L7.39025 22.7382L9.7578 21.2896ZM24.0738 12.0645H26.7317C27.1568 12.0645 27.5009 11.6965 27.5 11.2465C27.4991 10.796 27.1525 10.4319 26.7279 10.4319H24.07C23.6448 10.4319 23.3008 10.7999 23.3017 11.2498C23.3025 11.7005 23.6491 12.0645 24.0738 12.0645ZM20.9189 4.64787L22.2479 2.20842C22.4602 1.81869 22.3361 1.31852 21.9683 1.0924C21.601 0.866622 21.1283 0.998353 20.9158 1.38855L19.5868 3.82799C19.3745 4.21772 19.4986 4.71789 19.8664 4.94402C20.2336 5.16979 20.7063 5.03806 20.9189 4.64787ZM23.9941 7.56992L26.1762 6.23475C26.5466 6.0081 26.6735 5.50624 26.4596 5.11361C26.2458 4.72103 25.7722 4.58657 25.4017 4.81321L23.2197 6.14844C22.8492 6.37509 22.7224 6.87695 22.9362 7.26958C23.1501 7.6621 23.6236 7.79657 23.9941 7.56992ZM20.5621 11.2437L23.1359 15.9683C23.6191 16.8553 23.3296 18 22.4927 18.5122C21.7117 18.9901 20.7189 18.7548 20.197 18.0004C17.3481 17.5411 13.6369 18.0345 9.94674 19.5591L6.39909 13.047C9.49115 10.4252 11.7568 7.2825 12.8061 4.43809C12.4375 3.57802 12.7403 2.53685 13.5274 2.05523C14.3644 1.54308 15.4445 1.84987 15.9278 2.73686L18.5016 7.4614C18.5748 7.40137 18.6527 7.34583 18.7351 7.29541C19.7296 6.68688 21.0014 7.048 21.5756 8.10202C22.1498 9.15605 21.809 10.5038 20.8145 11.1124C20.7321 11.1628 20.6478 11.2065 20.5621 11.2437ZM9.0547 20.248L5.33731 13.4243L2.38207 15.2326C0.586349 16.3313 -0.0345425 18.7873 1.00216 20.6904C2.03892 22.5934 4.35636 23.2515 6.15209 22.1529L9.10733 20.3446L9.0547 20.248Z" fill="url(#paint0_linear_14_428)" fill-opacity="0.5"/>
<defs>
<linearGradient id="paint0_linear_14_428" x1="0.5" y1="27.0359" x2="31.9989" y2="8.68705" gradientUnits="userSpaceOnUse">
<stop stop-color="#42D872"/>
<stop offset="1" stop-color="#97E89C"/>
</linearGradient>
</defs>
</svg>
