<svg width="28" height="28" viewBox="0 0 28 28" fill="none" xmlns="http://www.w3.org/2000/svg">
<path d="M21.7 3H6.3C5.42479 3 4.58542 3.34768 3.96655 3.96655C3.34768 4.58542 3 5.42479 3 6.3V21.7C3 22.5752 3.34768 23.4146 3.96655 24.0335C4.58542 24.6523 5.42479 25 6.3 25H21.7C22.5752 25 23.4146 24.6523 24.0335 24.0335C24.6523 23.4146 25 22.5752 25 21.7V6.3C25 5.42479 24.6523 4.58542 24.0335 3.96655C23.4146 3.34768 22.5752 3 21.7 3ZM20.281 10.359L12.075 19.093C11.9715 19.2016 11.8468 19.2879 11.7088 19.3465C11.5707 19.4052 11.422 19.4349 11.272 19.434C11.122 19.4349 10.9733 19.4052 10.8352 19.3465C10.6972 19.2879 10.5725 19.2016 10.469 19.093L7.741 16.2C7.62961 16.0979 7.54045 15.9739 7.47909 15.8359C7.41772 15.6978 7.38546 15.5485 7.38432 15.3974C7.38318 15.2463 7.41318 15.0966 7.47245 14.9576C7.53173 14.8186 7.619 14.6933 7.72884 14.5896C7.83867 14.4858 7.96871 14.4058 8.11084 14.3545C8.25297 14.3032 8.40415 14.2817 8.55494 14.2914C8.70573 14.3011 8.85291 14.3418 8.98729 14.4109C9.12167 14.48 9.24038 14.576 9.336 14.693L11.272 16.75L18.675 8.874C18.7773 8.7709 18.8989 8.68907 19.033 8.63322C19.167 8.57737 19.3108 8.54862 19.456 8.54862C19.6012 8.54862 19.745 8.57737 19.879 8.63322C20.0131 8.68907 20.1347 8.7709 20.237 8.874C20.4286 9.07123 20.5394 9.33308 20.5476 9.60795C20.5557 9.88282 20.4606 10.1508 20.281 10.359Z" fill="url(#paint0_linear_14_429)" fill-opacity="0.5"/>
<defs>
<linearGradient id="paint0_linear_14_429" x1="6.3" y1="22.25" x2="23.35" y2="4.1" gradientUnits="userSpaceOnUse">
<stop stop-color="#F866AA"/>
<stop offset="1" stop-color="#FDA0CB"/>
</linearGradient>
</defs>
</svg>
