<svg width="24" height="24" viewBox="0 0 24 24" fill="none" xmlns="http://www.w3.org/2000/svg">
<g opacity="0.75">
<rect width="24" height="24" rx="12" fill="url(#paint0_linear_75_260)"/>
</g>
<path d="M15.3633 13.7767C15.0039 13.4219 14.5553 13.4219 14.1982 13.7767C13.9258 14.0468 13.6534 14.3169 13.3856 14.5916C13.3124 14.6671 13.2506 14.6832 13.1613 14.6328C12.985 14.5367 12.7973 14.4588 12.6279 14.3535C11.8382 13.8568 11.1767 13.2182 10.5907 12.4995C10.3 12.1424 10.0414 11.7601 9.86055 11.3298C9.82393 11.2428 9.83079 11.1856 9.90175 11.1146C10.1741 10.8514 10.4397 10.5813 10.7075 10.3112C11.0806 9.93578 11.0806 9.4963 10.7052 9.11861C10.4923 8.90345 10.2794 8.69286 10.0666 8.47769C9.84682 8.25795 9.62936 8.03592 9.40733 7.81846C9.04796 7.46825 8.59931 7.46825 8.24223 7.82075C7.96755 8.09085 7.70431 8.36782 7.42506 8.63334C7.1664 8.87827 7.03593 9.17813 7.00846 9.52834C6.96497 10.0983 7.1046 10.6362 7.30145 11.1604C7.70431 12.2454 8.31777 13.209 9.06169 14.0926C10.0666 15.2875 11.266 16.2328 12.6691 16.9149C13.3009 17.2217 13.9556 17.4574 14.6674 17.4963C15.1573 17.5238 15.583 17.4002 15.9241 17.0179C16.1576 16.757 16.4208 16.5189 16.668 16.2694C17.0343 15.8986 17.0366 15.45 16.6726 15.0837C16.2377 14.6465 15.8005 14.2116 15.3633 13.7767Z" fill="white"/>
<path d="M14.9261 11.9524L15.7707 11.8082C15.638 11.0322 15.2717 10.3295 14.7155 9.77098C14.1272 9.1827 13.3833 8.81189 12.5639 8.69744L12.4448 9.54665C13.0789 9.63593 13.6557 9.92205 14.1112 10.3776C14.5415 10.8079 14.8231 11.3527 14.9261 11.9524Z" fill="white"/>
<path d="M16.2469 8.28084C15.2717 7.30573 14.038 6.68999 12.676 6.5L12.557 7.34922C13.7335 7.51403 14.8002 8.04736 15.6426 8.88742C16.4414 9.68628 16.9656 10.6957 17.1556 11.8059L18.0002 11.6617C17.7782 10.3753 17.1716 9.20788 16.2469 8.28084Z" fill="white"/>
<defs>
<linearGradient id="paint0_linear_75_260" x1="9.90387e-08" y1="24.0167" x2="28.5057" y2="8.00447" gradientUnits="userSpaceOnUse">
<stop stop-color="#269BE9"/>
<stop offset="1" stop-color="#6CD1F1"/>
</linearGradient>
</defs>
</svg>
