<svg width="33" height="33" viewBox="0 0 33 33" fill="none" xmlns="http://www.w3.org/2000/svg">
<g clip-path="url(#clip0_34_13)">
<path d="M26.1679 19.3359C22.4367 19.3359 19.4004 22.3723 19.4004 26.1035C19.4004 29.8348 22.4367 33 26.1679 33C29.8992 33 33 29.8348 33 26.1035C33 22.3723 29.8992 19.3359 26.1679 19.3359ZM27.1348 26.1035C27.1348 26.3603 27.0328 26.6702 26.8515 26.8515L24.9179 28.7851C24.7291 28.9739 24.4816 29.0683 24.2344 29.0683C23.9871 29.0683 23.7396 28.9739 23.5508 28.7851C23.1732 28.4074 23.1732 27.7956 23.5508 27.418L25.2012 25.7032V24.1699C25.2012 23.6356 25.6336 23.2031 26.1679 23.2031C26.7023 23.2031 27.1348 23.6356 27.1348 24.1699V26.1035Z" fill="white"/>
<path d="M15.5332 13.5352H13.5996V15.4687H15.5332V13.5352Z" fill="white"/>
<path d="M15.5332 21.2695H13.5996V23.2031H15.5332V21.2695Z" fill="white"/>
<path d="M7.7988 21.2695H5.86523V23.2031H7.7988V21.2695Z" fill="white"/>
<path d="M26.1679 1.93359H25.2012V2.9004C25.2012 4.49973 23.9001 5.80079 22.3008 5.80079H20.3672C18.7679 5.80079 17.4668 4.49973 17.4668 2.9004V1.93359H11.666V2.9004C11.666 4.49973 10.365 5.80079 8.76562 5.80079H6.83203C5.23269 5.80079 3.93164 4.49973 3.93164 2.9004V1.93359H2.96484C1.36299 1.93359 0 3.23214 0 4.83399V7.73438H29.0684V4.83399C29.0684 3.23214 27.7698 1.93359 26.1679 1.93359Z" fill="white"/>
<path d="M7.7988 13.5352H5.86523V15.4687H7.7988V13.5352Z" fill="white"/>
<path d="M0 9.66797V26.1035C0 27.7054 1.36299 29.0684 2.96484 29.0684H18.0013C17.6763 28.1567 17.4668 27.1254 17.4668 26.1035C17.4668 21.3054 21.3699 17.4023 26.1679 17.4023C27.1899 17.4023 28.1567 17.6118 29.0684 17.9369V9.66797H0ZM9.73245 24.17C9.73245 24.7043 9.3 25.1367 8.76562 25.1367H4.89844C4.36406 25.1367 3.93164 24.7043 3.93164 24.17V20.3027C3.93164 19.7684 4.36406 19.3359 4.89844 19.3359H8.76562C9.3 19.3359 9.73245 19.7684 9.73245 20.3027V24.17ZM9.73245 16.4356C9.73245 16.97 9.3 17.4023 8.76562 17.4023H4.89844C4.36406 17.4023 3.93164 16.97 3.93164 16.4356V12.5684C3.93164 12.034 4.36406 11.6016 4.89844 11.6016H8.76562C9.3 11.6016 9.73245 12.034 9.73245 12.5684V16.4356ZM17.4668 24.17C17.4668 24.7043 17.0344 25.1367 16.5 25.1367H12.6328C12.0984 25.1367 11.666 24.7043 11.666 24.17V20.3027C11.666 19.7684 12.0984 19.3359 12.6328 19.3359H16.5C17.0344 19.3359 17.4668 19.7684 17.4668 20.3027V24.17ZM17.4668 16.4356C17.4668 16.97 17.0344 17.4023 16.5 17.4023H12.6328C12.0984 17.4023 11.666 16.97 11.666 16.4356V12.5684C11.666 12.034 12.0984 11.6016 12.6328 11.6016H16.5C17.0344 11.6016 17.4668 12.034 17.4668 12.5684V16.4356ZM25.2012 16.4356C25.2012 16.97 24.7687 17.4023 24.2344 17.4023H20.3672C19.8328 17.4023 19.4004 16.97 19.4004 16.4356V12.5684C19.4004 12.034 19.8328 11.6016 20.3672 11.6016H24.2344C24.7687 11.6016 25.2012 12.034 25.2012 12.5684V16.4356Z" fill="white"/>
<path d="M23.2676 13.5352H21.334V15.4687H23.2676V13.5352Z" fill="white"/>
<path d="M21.334 0C20.266 0 19.4004 0.865672 19.4004 1.93359V2.90039C19.4004 3.43432 19.8332 3.86719 20.3671 3.86719H22.3008C22.8347 3.86719 23.2675 3.43432 23.2675 2.90039V1.93359C23.2675 0.865672 22.4019 0 21.334 0Z" fill="white"/>
<path d="M7.7988 0C6.73091 0 5.86523 0.865672 5.86523 1.93359V2.90039C5.86523 3.43432 6.2981 3.86719 6.83204 3.86719H8.76563C9.29955 3.86719 9.73245 3.43432 9.73245 2.90039V1.93359C9.73245 0.865672 8.86673 0 7.7988 0Z" fill="white"/>
</g>
<defs>
<clipPath id="clip0_34_13">
<rect width="33" height="33" fill="white"/>
</clipPath>
</defs>
</svg>
