<svg width="44" height="44" viewBox="0 0 44 44" fill="none" xmlns="http://www.w3.org/2000/svg">
<path d="M34.8906 25.7812C29.9156 25.7812 25.8672 29.8297 25.8672 34.8047C25.8672 39.7797 29.9156 44 34.8906 44C39.8656 44 44 39.7797 44 34.8047C44 29.8297 39.8656 25.7812 34.8906 25.7812ZM36.1797 34.8047C36.1797 35.1471 36.0437 35.5603 35.802 35.802L33.2239 38.3801C32.9721 38.6319 32.6422 38.7578 32.3125 38.7578C31.9828 38.7578 31.6528 38.6319 31.4011 38.3801C30.8976 37.8766 30.8976 37.0608 31.4011 36.5573L33.6016 34.2709V32.2266C33.6016 31.5141 34.1781 30.9375 34.8906 30.9375C35.6031 30.9375 36.1797 31.5141 36.1797 32.2266V34.8047Z" fill="url(#paint0_linear_15_858)"/>
<path d="M20.7109 18.0469H18.1328V20.625H20.7109V18.0469Z" fill="url(#paint1_linear_15_858)"/>
<path d="M20.7109 28.3594H18.1328V30.9375H20.7109V28.3594Z" fill="url(#paint2_linear_15_858)"/>
<path d="M10.3984 28.3594H7.82031V30.9375H10.3984V28.3594Z" fill="url(#paint3_linear_15_858)"/>
<path d="M34.8906 2.57812H33.6016V3.86719C33.6016 5.99964 31.8668 7.73438 29.7344 7.73438H27.1562C25.0238 7.73438 23.2891 5.99964 23.2891 3.86719V2.57812H15.5547V3.86719C15.5547 5.99964 13.82 7.73438 11.6875 7.73438H9.10938C6.97692 7.73438 5.24219 5.99964 5.24219 3.86719V2.57812H3.95312C1.81732 2.57812 0 4.30951 0 6.44531V10.3125H38.7578V6.44531C38.7578 4.30951 37.0264 2.57812 34.8906 2.57812Z" fill="url(#paint4_linear_15_858)"/>
<path d="M10.3984 18.0469H7.82031V20.625H10.3984V18.0469Z" fill="url(#paint5_linear_15_858)"/>
<path d="M0 12.8906V34.8047C0 36.9405 1.81732 38.7578 3.95312 38.7578H24.0017C23.5684 37.5422 23.2891 36.1672 23.2891 34.8047C23.2891 28.4072 28.4932 23.2031 34.8906 23.2031C36.2532 23.2031 37.5422 23.4824 38.7578 23.9158V12.8906H0ZM12.9766 32.2266C12.9766 32.9391 12.4 33.5156 11.6875 33.5156H6.53125C5.81874 33.5156 5.24219 32.9391 5.24219 32.2266V27.0703C5.24219 26.3578 5.81874 25.7812 6.53125 25.7812H11.6875C12.4 25.7812 12.9766 26.3578 12.9766 27.0703V32.2266ZM12.9766 21.9141C12.9766 22.6266 12.4 23.2031 11.6875 23.2031H6.53125C5.81874 23.2031 5.24219 22.6266 5.24219 21.9141V16.7578C5.24219 16.0453 5.81874 15.4688 6.53125 15.4688H11.6875C12.4 15.4688 12.9766 16.0453 12.9766 16.7578V21.9141ZM23.2891 32.2266C23.2891 32.9391 22.7125 33.5156 22 33.5156H16.8438C16.1312 33.5156 15.5547 32.9391 15.5547 32.2266V27.0703C15.5547 26.3578 16.1312 25.7812 16.8438 25.7812H22C22.7125 25.7812 23.2891 26.3578 23.2891 27.0703V32.2266ZM23.2891 21.9141C23.2891 22.6266 22.7125 23.2031 22 23.2031H16.8438C16.1312 23.2031 15.5547 22.6266 15.5547 21.9141V16.7578C15.5547 16.0453 16.1312 15.4688 16.8438 15.4688H22C22.7125 15.4688 23.2891 16.0453 23.2891 16.7578V21.9141ZM33.6016 21.9141C33.6016 22.6266 33.025 23.2031 32.3125 23.2031H27.1562C26.4437 23.2031 25.8672 22.6266 25.8672 21.9141V16.7578C25.8672 16.0453 26.4437 15.4688 27.1562 15.4688H32.3125C33.025 15.4688 33.6016 16.0453 33.6016 16.7578V21.9141Z" fill="url(#paint6_linear_15_858)"/>
<path d="M31.0234 18.0469H28.4453V20.625H31.0234V18.0469Z" fill="url(#paint7_linear_15_858)"/>
<path d="M28.4453 0C27.0214 0 25.8672 1.15423 25.8672 2.57812V3.86719C25.8672 4.57909 26.4443 5.15625 27.1562 5.15625H29.7344C30.4463 5.15625 31.0234 4.57909 31.0234 3.86719V2.57812C31.0234 1.15423 29.8692 0 28.4453 0Z" fill="url(#paint8_linear_15_858)"/>
<path d="M10.3984 0C8.97454 0 7.82031 1.15423 7.82031 2.57812V3.86719C7.82031 4.57909 8.39747 5.15625 9.10938 5.15625H11.6875C12.3994 5.15625 12.9766 4.57909 12.9766 3.86719V2.57812C12.9766 1.15423 11.8223 0 10.3984 0Z" fill="url(#paint9_linear_15_858)"/>
<defs>
<linearGradient id="paint0_linear_15_858" x1="6.5" y1="38" x2="37.5" y2="6.5" gradientUnits="userSpaceOnUse">
<stop stop-color="#42D872"/>
<stop offset="1" stop-color="#97E89C"/>
</linearGradient>
<linearGradient id="paint1_linear_15_858" x1="6.5" y1="38" x2="37.5" y2="6.5" gradientUnits="userSpaceOnUse">
<stop stop-color="#42D872"/>
<stop offset="1" stop-color="#97E89C"/>
</linearGradient>
<linearGradient id="paint2_linear_15_858" x1="6.5" y1="38" x2="37.5" y2="6.5" gradientUnits="userSpaceOnUse">
<stop stop-color="#42D872"/>
<stop offset="1" stop-color="#97E89C"/>
</linearGradient>
<linearGradient id="paint3_linear_15_858" x1="6.5" y1="38" x2="37.5" y2="6.5" gradientUnits="userSpaceOnUse">
<stop stop-color="#42D872"/>
<stop offset="1" stop-color="#97E89C"/>
</linearGradient>
<linearGradient id="paint4_linear_15_858" x1="6.5" y1="38" x2="37.5" y2="6.5" gradientUnits="userSpaceOnUse">
<stop stop-color="#42D872"/>
<stop offset="1" stop-color="#97E89C"/>
</linearGradient>
<linearGradient id="paint5_linear_15_858" x1="6.5" y1="38" x2="37.5" y2="6.5" gradientUnits="userSpaceOnUse">
<stop stop-color="#42D872"/>
<stop offset="1" stop-color="#97E89C"/>
</linearGradient>
<linearGradient id="paint6_linear_15_858" x1="6.5" y1="38" x2="37.5" y2="6.5" gradientUnits="userSpaceOnUse">
<stop stop-color="#42D872"/>
<stop offset="1" stop-color="#97E89C"/>
</linearGradient>
<linearGradient id="paint7_linear_15_858" x1="6.5" y1="38" x2="37.5" y2="6.5" gradientUnits="userSpaceOnUse">
<stop stop-color="#42D872"/>
<stop offset="1" stop-color="#97E89C"/>
</linearGradient>
<linearGradient id="paint8_linear_15_858" x1="6.5" y1="38" x2="37.5" y2="6.5" gradientUnits="userSpaceOnUse">
<stop stop-color="#42D872"/>
<stop offset="1" stop-color="#97E89C"/>
</linearGradient>
<linearGradient id="paint9_linear_15_858" x1="6.5" y1="38" x2="37.5" y2="6.5" gradientUnits="userSpaceOnUse">
<stop stop-color="#42D872"/>
<stop offset="1" stop-color="#97E89C"/>
</linearGradient>
</defs>
</svg>
