<svg width="28" height="28" viewBox="0 0 28 28" fill="none" xmlns="http://www.w3.org/2000/svg">
<g clip-path="url(#clip0_804_1412)">
<path d="M19.625 7.875H16.838L16.5333 6.96131C16.3415 6.38634 15.8054 6 15.1993 6H12.8007C12.1946 6 11.6585 6.38634 11.4663 6.96131L11.1619 7.875H8.375C7.59956 7.875 6.96875 8.50581 6.96875 9.28125V10.2188C6.96875 10.7409 7.43878 10.6875 7.94322 10.6875C12.273 10.6875 16.1987 10.6875 20.5625 10.6875C20.8216 10.6875 21.0312 10.4778 21.0312 10.2188V9.28125C21.0312 8.50581 20.4004 7.875 19.625 7.875ZM12.1504 7.875L12.3557 7.25794C12.4198 7.06613 12.5988 6.9375 12.8007 6.9375H15.1993C15.4012 6.9375 15.5802 7.06613 15.6438 7.25794L15.8494 7.875H12.1504Z" fill="#E2435C"/>
<path d="M8.01953 11.6875L8.76694 20.721C8.83331 21.4502 9.43528 22 10.1673 22H17.8302C18.5622 22 19.1642 21.4502 19.231 20.7169L19.978 11.6875H8.01953ZM11.655 19.6562C11.655 20.2742 10.7175 20.2767 10.7175 19.6562V13.0938C10.7175 12.4758 11.655 12.4733 11.655 13.0938V19.6562ZM14.4675 19.6562C14.4675 20.2742 13.53 20.2767 13.53 19.6562V13.0938C13.53 12.4758 14.4675 12.4733 14.4675 13.0938V19.6562ZM17.28 19.6562C17.28 20.2742 16.3425 20.2767 16.3425 19.6562V13.0938C16.3425 12.8347 16.5521 12.625 16.8112 12.625C17.0703 12.625 17.28 12.8347 17.28 13.0938V19.6562Z" fill="#E2435C"/>
</g>
<defs>
<clipPath id="clip0_804_1412">
<rect width="16" height="16" fill="white" transform="translate(6 6)"/>
</clipPath>
</defs>
</svg>
