<svg width="238" height="238" viewBox="0 0 238 238" fill="none" xmlns="http://www.w3.org/2000/svg">
<path d="M203.407 0H34.593C15.4878 0 0 15.4878 0 34.593V203.407C0 222.512 15.4878 238 34.593 238H203.407C222.512 238 238 222.512 238 203.407V34.593C238 15.4878 222.512 0 203.407 0Z" fill="#E8F9FD"/>
<path d="M148.957 80.3754C145.853 77.243 140.795 77.2034 137.643 80.2874L78.5096 138.618L52.8038 112.057C49.7378 108.868 44.6621 108.764 41.467 111.824C38.2715 114.883 38.1666 119.949 41.2325 123.138C41.2464 123.153 41.26 123.167 41.2739 123.181L72.6167 155.599C74.1166 157.127 76.1667 157.991 78.3096 158H78.3978C80.5 157.993 82.5157 157.163 84.0104 155.687L148.884 91.667C152.019 88.5647 152.051 83.5175 148.957 80.3754Z" fill="#53BDEB"/>
<path d="M120.725 155.599C122.221 157.123 124.265 157.987 126.402 158H126.49C128.592 157.993 130.608 157.163 132.103 155.687L196.977 91.667C199.918 88.3623 199.617 83.3044 196.306 80.3695C193.305 77.7088 188.794 77.6738 185.752 80.2874L126.642 138.618L124.533 136.433C121.468 133.244 116.392 133.139 113.197 136.199C110.001 139.258 109.896 144.324 112.962 147.514C112.976 147.528 112.99 147.542 113.003 147.557L120.725 155.599Z" fill="#53BDEB"/>
</svg>
