<svg width="680" height="238" viewBox="0 0 680 238" fill="none" xmlns="http://www.w3.org/2000/svg">
<path d="M203.407 0H34.593C15.4878 0 0 15.4878 0 34.593V203.407C0 222.512 15.4878 238 34.593 238H203.407C222.512 238 238 222.512 238 203.407V34.593C238 15.4878 222.512 0 203.407 0Z" fill="url(#paint0_linear_10_21)"/>
<path d="M148.957 80.3754C145.853 77.243 140.795 77.2034 137.643 80.2874L78.5096 138.618L52.8038 112.057C49.7378 108.868 44.6621 108.764 41.467 111.824C38.2715 114.883 38.1666 119.949 41.2325 123.138C41.2464 123.153 41.26 123.167 41.2739 123.181L72.6167 155.599C74.1167 157.127 76.1667 157.991 78.3096 158H78.3978C80.5 157.993 82.5157 157.163 84.0104 155.687L148.884 91.667C152.019 88.5647 152.051 83.5175 148.957 80.3754Z" fill="white"/>
<path d="M120.725 155.599C122.221 157.123 124.265 157.987 126.402 158H126.49C128.592 157.993 130.608 157.163 132.103 155.687L196.977 91.667C199.917 88.3623 199.617 83.3044 196.306 80.3695C193.305 77.7088 188.794 77.6738 185.752 80.2874L126.642 138.618L124.533 136.433C121.468 133.244 116.392 133.139 113.197 136.199C110.001 139.258 109.896 144.324 112.962 147.514C112.976 147.528 112.99 147.542 113.003 147.557L120.725 155.599Z" fill="white"/>
<path d="M397.112 71.528V90.16H371.816V167H348.56V90.16H323.264V71.528H397.112Z" fill="url(#paint1_linear_10_21)"/>
<path d="M487.8 91.112V167H464.544V156.664C462.186 160.019 458.968 162.739 454.888 164.824C450.898 166.819 446.456 167.816 441.56 167.816C435.757 167.816 430.634 166.547 426.192 164.008C421.749 161.379 418.304 157.616 415.856 152.72C413.408 147.824 412.184 142.067 412.184 135.448V91.112H435.304V132.32C435.304 137.397 436.618 141.341 439.248 144.152C441.877 146.963 445.413 148.368 449.856 148.368C454.389 148.368 457.97 146.963 460.6 144.152C463.229 141.341 464.544 137.397 464.544 132.32V91.112H487.8Z" fill="url(#paint2_linear_10_21)"/>
<path d="M503.96 128.92C503.96 121.123 505.411 114.277 508.312 108.384C511.304 102.491 515.339 97.9573 520.416 94.784C525.494 91.6107 531.16 90.024 537.416 90.024C542.403 90.024 546.936 91.0667 551.016 93.152C555.187 95.2373 558.451 98.048 560.808 101.584V66.36H584.064V167H560.808V156.12C558.632 159.747 555.504 162.648 551.424 164.824C547.435 167 542.766 168.088 537.416 168.088C531.16 168.088 525.494 166.501 520.416 163.328C515.339 160.064 511.304 155.485 508.312 149.592C505.411 143.608 503.96 136.717 503.96 128.92ZM560.808 129.056C560.808 123.253 559.176 118.675 555.912 115.32C552.739 111.965 548.84 110.288 544.216 110.288C539.592 110.288 535.648 111.965 532.384 115.32C529.211 118.584 527.624 123.117 527.624 128.92C527.624 134.723 529.211 139.347 532.384 142.792C535.648 146.147 539.592 147.824 544.216 147.824C548.84 147.824 552.739 146.147 555.912 142.792C559.176 139.437 560.808 134.859 560.808 129.056Z" fill="url(#paint3_linear_10_21)"/>
<path d="M639.513 168.088C632.078 168.088 625.369 166.501 619.385 163.328C613.492 160.155 608.822 155.621 605.377 149.728C602.022 143.835 600.345 136.944 600.345 129.056C600.345 121.259 602.068 114.413 605.513 108.52C608.958 102.536 613.673 97.9573 619.657 94.784C625.641 91.6107 632.35 90.024 639.785 90.024C647.22 90.024 653.929 91.6107 659.913 94.784C665.897 97.9573 670.612 102.536 674.057 108.52C677.502 114.413 679.225 121.259 679.225 129.056C679.225 136.853 677.457 143.744 673.921 149.728C670.476 155.621 665.716 160.155 659.641 163.328C653.657 166.501 646.948 168.088 639.513 168.088ZM639.513 147.96C643.956 147.96 647.718 146.328 650.801 143.064C653.974 139.8 655.561 135.131 655.561 129.056C655.561 122.981 654.02 118.312 650.937 115.048C647.945 111.784 644.228 110.152 639.785 110.152C635.252 110.152 631.489 111.784 628.497 115.048C625.505 118.221 624.009 122.891 624.009 129.056C624.009 135.131 625.46 139.8 628.361 143.064C631.353 146.328 635.07 147.96 639.513 147.96Z" fill="url(#paint4_linear_10_21)"/>
<defs>
<linearGradient id="paint0_linear_10_21" x1="339.612" y1="238" x2="339.612" y2="0" gradientUnits="userSpaceOnUse">
<stop stop-color="#1F94DF"/>
<stop offset="1" stop-color="#9AEFFF"/>
</linearGradient>
<linearGradient id="paint1_linear_10_21" x1="339.932" y1="363.383" x2="339.932" y2="-113.889" gradientUnits="userSpaceOnUse">
<stop stop-color="#1F94DF"/>
<stop offset="1" stop-color="#9AEFFF"/>
</linearGradient>
<linearGradient id="paint2_linear_10_21" x1="339.932" y1="363.383" x2="339.932" y2="-113.889" gradientUnits="userSpaceOnUse">
<stop stop-color="#1F94DF"/>
<stop offset="1" stop-color="#9AEFFF"/>
</linearGradient>
<linearGradient id="paint3_linear_10_21" x1="339.932" y1="363.383" x2="339.932" y2="-113.889" gradientUnits="userSpaceOnUse">
<stop stop-color="#1F94DF"/>
<stop offset="1" stop-color="#9AEFFF"/>
</linearGradient>
<linearGradient id="paint4_linear_10_21" x1="339.932" y1="363.383" x2="339.932" y2="-113.889" gradientUnits="userSpaceOnUse">
<stop stop-color="#1F94DF"/>
<stop offset="1" stop-color="#9AEFFF"/>
</linearGradient>
</defs>
</svg>
