<svg width="370" height="208" viewBox="0 0 370 208" fill="none" xmlns="http://www.w3.org/2000/svg">
<g clip-path="url(#clip0_2904_440)">
<g clip-path="url(#clip1_2904_440)">
<path d="M293.126 207.354C293.126 207.354 314.523 212.449 325.06 189.38C338.732 159.447 319.541 131.021 286.451 128.976C238.723 126.022 265.174 49.5697 189.863 70.3182C168.682 76.1541 122.623 46.0418 95.5047 97.0582C90.8917 105.728 77.1121 105.31 58.7434 120.103C26.3449 146.209 38.0145 207.641 65.2994 207.916C92.6081 208.191 293.126 207.354 293.126 207.354Z" fill="#1E2C76"/>
<path d="M70.0796 207.797C70.0796 207.797 71.069 201.255 83.7637 199.497C96.4585 197.739 108.259 183.628 129.203 185.673C150.146 187.718 167.514 200.573 191.342 196.627C215.17 192.693 230.094 197.703 235.434 201.662C240.774 205.62 262.897 200.729 264.53 207.988L70.0796 207.797Z" fill="#3A4ACE"/>
<path d="M122.265 51.9499C122.265 51.9499 107.937 51.2443 115.542 95.0614C115.542 95.0614 120.656 109.938 114.195 119.517H209.209V51.9499H122.265Z" fill="#AFCDFB"/>
<path d="M132.027 165.858C132.027 165.858 125.387 158.085 131.622 153.158C131.622 153.158 136.175 150.395 139.882 150.623C139.882 150.623 134.625 159.472 136.33 160.345C138.035 161.23 141.479 150.073 141.479 150.073C141.479 150.073 151.838 149.068 155.164 150.671C155.164 150.671 146.307 157.941 148.178 158.372C150.038 158.802 159.598 151.675 159.598 151.675C159.598 151.675 169.229 153.325 168.717 159.221C168.204 165.117 164.878 166.934 163.424 166.779C161.97 166.624 153.423 163.359 153.244 164.555C153.054 165.751 158.203 169.673 161.791 169.852C161.791 169.852 154.997 177.375 150.479 175.198C145.961 173.033 145.58 169.589 142.767 168.298C139.954 167.006 137.546 167.006 138.714 168.322C139.87 169.637 144.972 170.917 146.581 173.775C148.19 176.633 149.633 178.558 144.96 177.853C140.287 177.147 132.694 173.715 132.361 169.793C132.027 165.858 132.027 165.858 132.027 165.858Z" fill="#3566C9"/>
<path d="M163.973 159.353C163.973 159.353 137.796 158.336 132.015 165.846C132.015 165.846 130.74 169.685 126.806 173.189L126.198 174.863C126.198 174.863 130.728 170.068 132.361 169.781C132.361 169.781 129.822 160.477 163.973 159.353Z" fill="#3566C9"/>
<path d="M126.807 173.19C126.807 173.19 121.193 177.363 120.799 184.802L121.824 184.897C121.824 184.897 123.624 177.196 126.867 174.182C130.109 171.18 126.807 173.19 126.807 173.19Z" fill="#3566C9"/>
<path d="M108.82 156.087C108.82 156.087 119.381 150.156 114.446 142.108C114.446 142.108 110.5 137.169 106.281 135.889C106.281 135.889 108.534 147.896 106.281 148.183C104.028 148.47 104.731 134.621 104.731 134.621C104.731 134.621 93.6098 129.252 89.2471 129.682C89.2471 129.682 96.1488 141.402 93.8959 141.127C91.643 140.84 83.895 128.977 83.895 128.977C83.895 128.977 72.4876 126.86 70.6638 133.641C68.8282 140.421 71.7843 143.806 73.477 144.236C75.1696 144.655 86.0049 144.523 85.7307 145.934C85.4446 147.346 78.1258 149.606 74.0491 148.338C74.0491 148.338 78.5549 159.496 84.4672 158.934C90.3795 158.372 92.2152 154.7 95.8746 154.413C99.5341 154.126 102.216 155.119 100.38 156.111C98.5447 157.104 92.3582 156.434 89.4021 158.958C86.4459 161.481 84.05 163.036 89.5451 164.16C95.0402 165.296 104.886 164.578 106.865 160.345C108.82 156.087 108.82 156.087 108.82 156.087Z" fill="#6D89D0"/>
<path d="M75.873 135.746C75.873 135.746 105.435 145.349 108.82 156.088C108.82 156.088 108.677 160.895 111.633 166.397V168.513C111.633 168.513 108.534 161.314 106.841 160.321C106.841 160.321 113.457 150.994 75.873 135.746Z" fill="#6D89D0"/>
<path d="M111.633 166.396C111.633 166.396 116.198 173.345 113.588 181.799L112.42 181.488C112.42 181.488 113.564 172.173 111.168 167.485C108.784 162.797 111.633 166.396 111.633 166.396Z" fill="#6D89D0"/>
<path d="M125.614 147.896C125.614 147.896 111.692 140.075 118.188 129.467C118.188 129.467 123.385 122.95 128.952 121.275C128.952 121.275 125.984 137.097 128.952 137.48C131.92 137.85 130.99 119.601 130.99 119.601C130.99 119.601 145.652 112.522 151.409 113.084C151.409 113.084 142.314 128.534 145.282 128.164C148.25 127.793 158.454 112.151 158.454 112.151C158.454 112.151 173.485 109.352 175.905 118.298C178.313 127.231 174.415 131.703 172.198 132.266C169.969 132.828 155.677 132.636 156.046 134.502C156.416 136.367 166.071 139.345 171.447 137.671C171.447 137.671 165.511 152.38 157.715 151.639C149.919 150.897 147.511 146.054 142.684 145.683C137.856 145.313 134.328 146.616 136.748 147.92C139.155 149.223 147.321 148.35 151.218 151.675C155.116 154.999 158.275 157.044 151.028 158.539C143.792 160.034 130.799 159.101 128.201 153.516C125.614 147.896 125.614 147.896 125.614 147.896Z" fill="#3A4ACE"/>
<path d="M169.039 121.084C169.039 121.084 130.06 133.748 125.614 147.896C125.614 147.896 125.805 154.222 121.907 161.493V164.291C121.907 164.291 125.996 154.796 128.213 153.492C128.213 153.48 119.487 141.199 169.039 121.084Z" fill="#6D89D0"/>
<path d="M121.896 161.492C121.896 161.492 115.888 170.653 119.309 181.798L120.859 181.38C120.859 181.38 119.357 169.098 122.504 162.927C125.651 156.756 121.896 161.492 121.896 161.492Z" fill="#6D89D0"/>
<path d="M125.151 205.967C140.206 205.967 152.412 193.721 152.412 178.617H97.8779C97.8779 193.721 110.084 205.967 125.151 205.967Z" fill="#FB7369"/>
<path d="M131.849 205.763C130.741 205.907 129.608 205.979 128.464 205.979C113.409 205.979 101.203 193.733 101.203 178.629H107.974C107.974 192.573 118.392 204.089 131.849 205.763Z" fill="#F2564B"/>
<path d="M152.792 207.355H97.4956C97.4956 205.489 98.9975 203.982 100.857 203.982H149.419C151.279 203.982 152.792 205.501 152.792 207.355Z" fill="#FB7369"/>
<path d="M153.032 178.617H96.9839V179.454H153.032V178.617Z" fill="#F2564B"/>
<path d="M223.813 74.5992C223.813 74.5992 219.033 65.5584 226.197 62.1142C226.197 62.1142 231.239 60.4161 234.815 61.4565C234.815 61.4565 227.746 68.9308 229.213 70.1625C230.679 71.3943 236.484 61.2652 236.484 61.2652C236.484 61.2652 246.807 62.5567 249.703 64.8648C249.703 64.8648 239.476 70.0071 241.204 70.8322C242.933 71.6693 253.816 66.8141 253.816 66.8141C253.816 66.8141 262.863 70.5452 261.063 76.1778C259.275 81.8224 255.639 82.8628 254.245 82.3844C252.85 81.9061 245.245 76.8355 244.792 77.9716C244.351 79.0957 248.499 84.0587 251.98 85.0273C251.98 85.0273 243.707 90.8632 239.774 87.7539C235.84 84.6446 236.222 81.2005 233.754 79.323C231.287 77.4454 228.95 76.9192 229.797 78.4619C230.643 80.0046 235.328 82.3725 236.281 85.5057C237.223 88.6508 238.212 90.8393 233.814 89.1292C229.415 87.4071 222.752 82.3964 223.288 78.4859C223.813 74.5992 223.813 74.5992 223.813 74.5992Z" fill="#3566C9"/>
<path d="M256.401 75.3055C256.401 75.3055 231.083 68.5488 223.8 74.6119C223.8 74.6119 221.714 78.08 217.113 80.6272L216.147 82.122C216.147 82.122 221.619 78.4387 223.264 78.5105C223.276 78.5105 222.835 68.8716 256.401 75.3055Z" fill="#3566C9"/>
<path d="M217.113 80.6162C217.113 80.6162 210.724 83.4504 208.709 90.6257L209.687 90.9366C209.687 90.9366 213.12 83.8211 216.946 81.5968C220.773 79.3724 217.113 80.6162 217.113 80.6162Z" fill="#3566C9"/>
<path d="M192.355 58.288C192.355 58.288 178.206 50.8855 184.392 40.0867C184.392 40.0867 189.399 33.4137 194.906 31.572C194.906 31.572 192.403 47.4773 195.383 47.7643C198.363 48.0513 196.896 29.838 196.896 29.838C196.896 29.838 211.344 22.3279 217.113 22.7105C217.113 22.7105 208.483 38.4244 211.439 37.97C214.395 37.5036 224.134 21.5745 224.134 21.5745C224.134 21.5745 239.081 18.3336 241.751 27.1951C244.433 36.0566 240.667 40.6368 238.45 41.2587C236.244 41.8805 221.952 42.1197 222.381 43.9733C222.811 45.8269 232.537 48.5177 237.877 46.676C237.877 46.676 232.382 61.5528 224.563 61.0505C216.755 60.5363 214.192 55.7767 209.365 55.5495C204.525 55.3222 201.045 56.7334 203.5 57.9651C205.956 59.1969 214.085 58.0728 218.078 61.2777C222.072 64.4827 225.29 66.432 218.102 68.1421C210.914 69.8522 197.898 69.3021 195.132 63.801C192.355 58.288 192.355 58.288 192.355 58.288Z" fill="#3A4ACE"/>
<path d="M234.97 30.1973C234.97 30.1973 196.385 44.0217 192.356 58.3005C192.356 58.3005 192.725 64.6267 189.054 71.9934L189.137 74.7798C189.137 74.7798 192.94 65.1649 195.121 63.8016C195.121 63.8016 186.038 51.7829 234.97 30.1973Z" fill="#6D89D0"/>
<path d="M189.054 71.9928C189.054 71.9928 183.32 81.3206 187.075 92.3586L188.613 91.8922C188.613 91.8922 186.753 79.6703 189.709 73.4039C192.665 67.1375 189.054 71.9928 189.054 71.9928Z" fill="#6D89D0"/>
<path d="M227.484 77.8887H128.286V207.678H227.484V77.8887Z" fill="#9ABCEF"/>
<path d="M229.057 77.8887H131.527V207.678H229.057V77.8887Z" fill="#F8FBFF"/>
<path d="M297.835 207.366H278.179C277.13 206.469 278.906 204.436 280.765 204.293C281.576 204.233 282.601 204.4 283.769 204.651C284.043 201.052 285.581 184.848 291.41 185.493C297.954 186.223 291.41 192.633 289.562 196.424C288.192 199.234 286.749 203.264 286.082 205.166C286.618 205.285 287.166 205.393 287.727 205.501C288.597 202.834 291.827 193.841 295.928 194.367C300.743 194.977 298.812 198.588 295.391 200.729C292.888 202.308 289.813 204.544 288.347 205.62C289.586 205.823 290.874 205.955 292.185 205.931C295.558 205.835 297.203 206.828 297.835 207.366Z" fill="#3A4ACE"/>
<path d="M229.069 77.8877H131.528C132.064 70.4851 131.254 65.1156 129.954 61.2529C127.451 53.8265 123.148 51.9609 123.148 51.9609H215.135C222.99 51.9609 229.069 56.7086 230.726 62.9989C230.786 63.2381 230.845 63.4773 230.893 63.7045C232.466 70.9157 229.129 77.7561 229.069 77.8877Z" fill="#F8FBFF"/>
<path d="M229.07 77.8886H131.529C132.065 70.4861 131.254 65.1166 129.955 61.2539C139.92 63.0836 164.607 66.9822 191.033 66.3245C208.126 65.8939 221.632 64.7459 230.894 63.7055C232.467 70.9166 229.129 77.7571 229.07 77.8886Z" fill="#F8FBFF"/>
<path d="M204.228 107.81H150.659C150.635 107.81 150.624 107.787 150.624 107.775V105.419C150.624 105.395 150.647 105.383 150.659 105.383H204.228C204.252 105.383 204.264 105.407 204.264 105.419V107.775C204.264 107.798 204.252 107.81 204.228 107.81Z" fill="#BBD5FC"/>
<path d="M183.999 111.912H150.659C150.635 111.912 150.624 111.888 150.624 111.876V109.52C150.624 109.496 150.647 109.484 150.659 109.484H184.011C184.035 109.484 184.047 109.508 184.047 109.52V111.876C184.047 111.888 184.023 111.912 183.999 111.912Z" fill="#BBD5FC"/>
<path d="M145.63 111.518V106.543H144.974C144.581 106.543 144.378 106.375 144.378 106.041C144.378 105.801 144.533 105.634 144.843 105.538C144.998 105.49 145.26 105.443 145.606 105.419C145.951 105.395 146.238 105.383 146.44 105.383C146.643 105.383 146.774 105.419 146.822 105.502C146.869 105.586 146.905 105.801 146.905 106.136V111.518H147.584C148.026 111.518 148.24 111.709 148.24 112.08C148.24 112.474 148.026 112.678 147.584 112.678H144.867C144.676 112.678 144.509 112.63 144.39 112.522C144.259 112.415 144.199 112.271 144.199 112.092C144.199 111.709 144.426 111.518 144.867 111.518H145.63Z" fill="#BBD5FC"/>
<path d="M204.226 133.449H150.658C150.634 133.449 150.622 133.425 150.622 133.413V131.057C150.622 131.033 150.646 131.021 150.658 131.021H204.226C204.25 131.021 204.262 131.045 204.262 131.057V133.413C204.262 133.425 204.25 133.449 204.226 133.449Z" fill="#D2E4FD"/>
<path d="M183.998 137.539H150.658C150.634 137.539 150.622 137.515 150.622 137.503V135.147C150.622 135.123 150.646 135.111 150.658 135.111H184.01C184.034 135.111 184.046 135.135 184.046 135.147V137.503C184.046 137.527 184.022 137.539 183.998 137.539Z" fill="#D2E4FD"/>
<path d="M148.334 137.049C148.334 137.384 148.108 137.551 147.643 137.551H144.77C144.353 137.551 144.15 137.384 144.15 137.049C144.15 136.941 144.21 136.822 144.317 136.678C144.484 136.487 144.723 136.212 145.032 135.829C145.509 135.231 145.915 134.705 146.236 134.263C146.344 134.119 146.511 133.892 146.713 133.593C146.88 133.294 146.964 133.043 146.964 132.839C146.964 132.612 146.892 132.421 146.749 132.277C146.606 132.134 146.415 132.05 146.189 132.05C145.962 132.05 145.772 132.122 145.605 132.265C145.497 132.361 145.402 132.54 145.342 132.792C145.259 133.126 145.211 133.318 145.187 133.366C145.104 133.557 144.961 133.653 144.758 133.653C144.58 133.653 144.448 133.593 144.341 133.461C144.246 133.354 144.198 133.198 144.198 133.019C144.198 132.816 144.234 132.6 144.293 132.397C144.436 131.943 144.687 131.596 145.032 131.357C145.366 131.129 145.783 131.01 146.272 131.01C146.809 131.01 147.25 131.165 147.607 131.488C147.977 131.823 148.156 132.265 148.156 132.792C148.156 133.186 148.024 133.593 147.762 134.011C147.619 134.239 147.321 134.645 146.856 135.231C146.618 135.53 146.26 135.961 145.748 136.535H147.643C148.108 136.535 148.334 136.702 148.334 137.049Z" fill="#D2E4FD"/>
<path d="M204.228 154.832H150.66C150.636 154.832 150.624 154.808 150.624 154.796V152.44C150.624 152.416 150.648 152.404 150.66 152.404H204.228C204.252 152.404 204.264 152.428 204.264 152.44V154.796C204.264 154.808 204.252 154.832 204.228 154.832Z" fill="#D2E4FD"/>
<path d="M184 158.922H150.66C150.636 158.922 150.624 158.898 150.624 158.886V156.53C150.624 156.506 150.648 156.494 150.66 156.494H184.012C184.036 156.494 184.048 156.518 184.048 156.53V158.886C184.048 158.91 184.024 158.922 184 158.922Z" fill="#D2E4FD"/>
<path d="M148.335 156.889C148.335 157.511 148.12 158.013 147.679 158.384C147.262 158.742 146.749 158.922 146.118 158.922C145.629 158.922 145.212 158.802 144.866 158.575C144.318 158.204 144.043 157.762 144.043 157.236C144.043 157.08 144.091 156.961 144.186 156.853C144.282 156.745 144.401 156.685 144.556 156.685C144.711 156.685 144.854 156.793 144.997 156.996C145.224 157.343 145.343 157.535 145.378 157.57C145.581 157.786 145.831 157.881 146.141 157.881C146.559 157.881 146.857 157.726 147.035 157.415C147.119 157.259 147.166 157.056 147.166 156.817C147.166 156.231 146.821 155.908 146.141 155.836C145.748 155.801 145.557 155.633 145.557 155.346C145.557 155.131 145.665 154.975 145.891 154.892C146.308 154.736 146.523 154.652 146.535 154.652C146.761 154.497 146.868 154.246 146.868 153.875C146.868 153.648 146.809 153.48 146.678 153.349C146.547 153.217 146.368 153.158 146.153 153.158C145.879 153.158 145.665 153.229 145.51 153.361C145.378 153.48 145.271 153.672 145.176 153.947C145.104 154.162 144.973 154.258 144.771 154.258C144.628 154.258 144.508 154.198 144.413 154.066C144.318 153.935 144.27 153.803 144.27 153.648C144.27 153.457 144.318 153.277 144.425 153.086C144.592 152.775 144.854 152.536 145.2 152.356C145.522 152.189 145.867 152.117 146.237 152.117C146.749 152.117 147.166 152.273 147.5 152.584C147.834 152.895 148.001 153.301 148.001 153.803C148.001 154.413 147.751 154.892 147.25 155.238C147.977 155.537 148.335 156.088 148.335 156.889Z" fill="#D2E4FD"/>
<path d="M198.231 86.5117H164.104C164.08 86.5117 164.057 86.4878 164.057 86.4639V83.7373C164.057 83.7134 164.08 83.6895 164.104 83.6895H198.231C198.255 83.6895 198.279 83.7134 198.279 83.7373V86.4639C198.279 86.4878 198.255 86.5117 198.231 86.5117Z" fill="#BBD5FC"/>
<path d="M206.862 90.8653H155.474C155.451 90.8653 155.427 90.8413 155.427 90.8174V88.0908C155.427 88.0669 155.451 88.043 155.474 88.043H206.862C206.885 88.043 206.909 88.0669 206.909 88.0908V90.8174C206.909 90.8413 206.885 90.8653 206.862 90.8653Z" fill="#BBD5FC"/>
<path d="M177.383 120.94C166.763 120.94 156.678 119.601 149.157 117.687C141.564 115.75 137.475 112.593 137.475 109.794C137.475 107.259 140.813 104.927 147.118 103.05C141.075 104.855 137.845 107.498 137.845 109.794C137.845 112.354 142.029 114.889 149.335 116.742C156.821 118.644 166.786 119.696 177.383 119.696C187.98 119.696 197.945 118.644 205.431 116.742C212.738 114.889 216.922 112.354 216.922 109.794C216.922 107.08 212.511 103.707 205.407 101.005C197.337 97.9192 187.372 96.7712 177.371 96.7712C158.597 96.7712 150.873 98.9716 144.162 101.722C150.897 98.9596 158.526 95.8145 177.371 95.8145C187.408 95.8145 197.409 97.5246 205.526 100.622C212.774 103.396 217.279 106.9 217.279 109.794C217.279 112.593 213.096 115.2 205.503 117.137C198.005 119.05 188.016 120.94 177.383 120.94Z" fill="#FFA121"/>
<path d="M241.907 145.923C241.907 145.923 241.561 149.331 241.168 149.977C240.786 150.623 239.153 152.68 238.45 153.086C237.759 153.493 238.879 150.372 238.736 149.762C238.593 149.152 238.164 150.874 237.854 150.91C237.544 150.946 237.628 149.403 237.616 148.841C237.604 148.279 239.106 146.892 239.642 145.696C240.178 144.512 241.907 145.923 241.907 145.923Z" fill="#FC9490"/>
<path d="M200.116 114.459L199.329 112.977C199.329 112.977 199.723 110.334 196.421 108.671C196.421 108.671 195.217 108.181 194.538 109.162C193.906 110.071 195.73 109.903 195.634 111.458C195.539 113.012 196.266 113.921 197.291 114.424L198.137 115.404L200.116 114.459Z" fill="#FC9490"/>
<path d="M231.239 110.92C231.239 110.92 228.414 124.852 212.847 129.396C207.983 130.819 196.945 114.77 196.945 114.77C196.945 114.77 197.339 113.288 199.77 113.634C199.77 113.634 210.522 120.774 211.869 121.551C213.073 122.245 220.964 112.702 224.564 111.171C228.164 109.616 231.239 110.92 231.239 110.92Z" fill="#4660F2"/>
<path d="M189.828 108.176L189.387 111.061L203.843 113.288L204.284 110.404L189.828 108.176Z" fill="#FB7369"/>
<path d="M186.252 109.101L189.387 111.062L189.828 108.18L186.252 109.101Z" fill="#FC9490"/>
<path d="M205.813 111.624L205.67 112.533C205.587 113.095 205.062 113.478 204.502 113.394L203.834 113.286L204.276 110.404L205.003 110.512C205.539 110.596 205.897 111.086 205.813 111.624Z" fill="#FC9490"/>
<path d="M249.821 198.458C249.821 198.458 251.752 200.228 251.371 201.484C250.99 202.74 249.249 203.577 249.011 205.108C248.772 206.638 247.831 207.475 246.984 207.475C246.138 207.475 242.944 207.475 242.944 207.475C242.944 207.475 242.324 206.399 243.826 206.064C245.328 205.741 245.9 203.936 245.804 202.261C245.709 200.587 245.947 198.351 245.947 198.351L249.154 197.609L249.821 198.458Z" fill="#293EB7"/>
<path d="M226.136 203.039C226.136 203.039 226.482 207.057 225.636 207.475L214.789 207.451C214.789 207.451 214.789 206.196 216.529 205.921C218.269 205.646 221.333 204.617 221.845 202.333C222.37 200.061 226.136 203.039 226.136 203.039Z" fill="#293EB7"/>
<path d="M216.981 146.211C216.981 146.211 217.554 153.266 218.221 161.745C219.139 173.261 220.236 187.409 220.343 190.088C220.534 194.74 221.285 202.178 221.285 202.178C221.285 202.178 223.073 203.948 226.649 203.206C226.649 203.206 229.843 192.587 230.749 181.346C230.761 181.166 230.773 180.975 230.797 180.796C231.643 169.351 232.966 145.254 232.966 145.254L216.981 146.211Z" fill="#3A4ACE"/>
<path d="M216.981 146.211C216.981 146.211 217.554 153.267 218.221 161.745L230.761 181.334C230.773 181.154 230.785 180.963 230.809 180.784C231.655 169.339 232.978 145.242 232.978 145.242L216.981 146.211Z" fill="#293EB7"/>
<path d="M219.592 147.048C219.592 147.048 229.903 172.592 236.685 184.586C243.468 196.593 245.589 199.941 245.589 199.941C245.589 199.941 249.475 198.411 249.833 197.358C249.833 197.358 247.234 174.182 242.693 168.537C240.13 165.344 237.114 155.765 236.971 152.417C236.828 149.069 236.053 142.443 236.053 142.443L219.592 147.048Z" fill="#3A4ACE"/>
<path d="M233.158 107.69C233.158 107.69 226.185 111.062 222.156 109.818C222.156 109.818 223.146 108.563 224.874 107.63C224.731 106.817 224.624 106.111 224.564 105.525C224.397 104.15 224.397 103.373 224.397 103.373L227.091 101.244L229.642 99.2109C229.451 104.915 233.158 107.69 233.158 107.69Z" fill="#FC9490"/>
<path d="M236.841 143.747C236.853 144.178 235.947 144.668 235.542 144.847C232.55 146.163 229.773 147.084 226.614 147.383C222.883 147.765 218.473 146.928 216.959 146.952C216.804 146.952 216.661 146.892 216.542 146.785C216.434 146.713 216.351 142.204 216.434 136.524C216.434 136.297 216.434 136.07 216.446 135.83V135.759C216.482 133.546 216.554 131.214 216.661 128.894C216.875 123.788 217.281 118.873 217.96 116.146C218.783 112.941 220.642 110.813 222.323 109.27L223.717 108.05C225.112 108.325 226.578 108.253 228.044 107.536C229.654 106.758 231.382 105.921 231.668 106.125C233.778 107.667 235.196 111.135 235.959 115.572C236.388 118.119 236.615 120.978 236.591 123.979C236.591 125.079 236.555 126.215 236.496 127.328C236.126 133.379 236.496 138.641 236.71 141.678C236.782 142.575 236.818 143.257 236.841 143.747Z" fill="#546EFF"/>
<path d="M236.711 143.472C212.275 143.424 232.205 116.876 232.205 116.876L236.162 115.584C236.472 118.311 236.627 121.36 236.615 124.565C236.615 125.737 236.591 126.945 236.544 128.141C236.293 134.598 236.556 140.219 236.711 143.472Z" fill="#4660F2"/>
<path d="M229.689 101.388C229.689 101.388 227.925 104.617 224.563 105.514C224.396 104.138 224.396 103.361 224.396 103.361L227.09 101.232L229.689 101.388Z" fill="#F48484"/>
<path d="M223.181 103.266C223.181 103.266 229.832 104.354 230.464 100.252C231.084 96.1506 232.371 93.5196 228.14 92.6466C223.92 91.7736 222.847 93.2207 222.299 94.5361C221.762 95.8636 221.464 102.871 223.181 103.266Z" fill="#FC9490"/>
<path d="M232.872 92.156C232.931 92.0842 233.074 92.0364 233.384 92.0125C233.384 92.0125 233.134 91.857 232.8 91.845C232.741 91.4145 232.502 90.6491 231.763 90.4578C231.763 90.4578 232.156 90.6731 232.216 91.1275C231.358 90.2425 229.51 89.5968 224.408 90.0034C217.686 90.5415 219.903 94.8587 220.773 95.3729C221.643 95.8871 223.836 94.476 225.457 94.6075C227.079 94.7391 227.388 97.083 227.937 97.4059C228.485 97.7288 228.271 97.1548 229.01 96.8199C229.749 96.4851 229.82 97.7168 229.606 98.53C229.391 99.3313 230.416 100.396 230.416 100.396C230.416 100.396 230.416 100.396 231.453 99.2834C232.49 98.1713 233.456 93.4356 232.991 92.431C232.955 92.3353 232.919 92.2516 232.872 92.156Z" fill="#2C3A64"/>
<path d="M231.668 106.1C231.668 106.1 235.876 108.097 237.902 111.182C241.037 115.954 244.661 133.342 244.733 134.956C244.804 136.571 242.086 147.932 242.086 147.932C242.086 147.932 239.333 147.752 238.618 146.353C238.618 146.353 239.166 134.669 238.82 133.916C238.475 133.162 227.329 118.25 228.581 115.069C229.833 111.876 231.668 106.1 231.668 106.1Z" fill="#546EFF"/>
<path d="M199.329 112.905C199.329 112.905 199.555 111.996 198.936 111.589C198.304 111.182 197.732 110.07 197.469 110.226C196.921 110.537 197.767 111.505 197.612 112.713C197.541 113.132 198.53 114.244 199.329 112.905Z" fill="#FC9490"/>
<path d="M96.9838 198.865C96.9838 198.865 87.0902 173.452 80.1528 177.494C73.2153 181.536 96.9838 198.865 96.9838 198.865Z" fill="#3A4ACE"/>
<path d="M92.0956 198.864C92.0956 198.864 79.0312 187.527 73.0593 189.632C67.0755 191.736 92.0956 198.864 92.0956 198.864Z" fill="#3A4ACE"/>
<path d="M230.476 202.523C230.476 202.523 233.491 192.011 237.02 193.255C240.56 194.498 230.476 202.523 230.476 202.523Z" fill="#3A4ACE"/>
<path d="M233.229 201.949C233.229 201.949 240.918 196.891 242.611 198.445C244.291 200.012 233.229 201.949 233.229 201.949Z" fill="#3A4ACE"/>
<path d="M206.957 179.455H146.976C146.57 179.455 146.249 179.12 146.249 178.726C146.249 178.319 146.582 177.996 146.976 177.996H206.957C207.362 177.996 207.684 178.331 207.684 178.726C207.684 179.12 207.351 179.455 206.957 179.455Z" fill="#D2E4FD"/>
<path d="M206.957 182.385H146.976C146.57 182.385 146.249 182.05 146.249 181.655C146.249 181.249 146.582 180.926 146.976 180.926H206.957C207.362 180.926 207.684 181.261 207.684 181.655C207.684 182.05 207.351 182.385 206.957 182.385Z" fill="#D2E4FD"/>
<path d="M206.957 185.625H146.976C146.57 185.625 146.249 185.29 146.249 184.896C146.249 184.489 146.582 184.166 146.976 184.166H206.957C207.362 184.166 207.684 184.501 207.684 184.896C207.684 185.302 207.351 185.625 206.957 185.625Z" fill="#D2E4FD"/>
<path d="M199.733 188.879H146.272C146.26 188.879 146.249 188.867 146.249 188.855V187.444C146.249 187.432 146.26 187.42 146.272 187.42H199.733C199.745 187.42 199.757 187.432 199.757 187.444V188.855C199.757 188.867 199.745 188.879 199.733 188.879Z" fill="#D2E4FD"/>
</g>
<path d="M369.514 208H2.26205C1.99365 208 1.77637 207.782 1.77637 207.513C1.77637 207.245 1.99365 207.027 2.26205 207.027H369.514C369.783 207.027 370 207.245 370 207.513C370 207.782 369.783 208 369.514 208Z" fill="#2E3552"/>
</g>
<path d="M207.139 72.2782C227.098 72.2782 243.278 56.0982 243.278 36.1391C243.278 16.18 227.098 0 207.139 0C187.18 0 171 16.18 171 36.1391C171 56.0982 187.18 72.2782 207.139 72.2782Z" fill="#32338C"/>
<path d="M208.86 72.2782C228.819 72.2782 244.999 56.0982 244.999 36.1391C244.999 16.18 228.819 0 208.86 0C188.901 0 172.721 16.18 172.721 36.1391C172.721 56.0982 188.901 72.2782 208.86 72.2782Z" fill="#7371FC"/>
<path d="M214.5 53.9955C221.034 51.3535 226.955 46.9894 230.777 41.092C235.235 34.2511 236.58 25.9476 236.202 17.6913C230.281 8.91599 220.232 3.16016 208.862 3.16016C190.627 3.16016 175.86 17.9272 175.86 36.1383C175.86 42.1772 177.488 47.8386 180.319 52.6981C190.91 57.7226 203.602 58.3831 214.5 53.9955Z" fill="white"/>
<path d="M236.178 17.6914C236.579 25.9477 235.211 34.2512 230.752 41.0922C226.907 46.9895 220.986 51.3536 214.475 53.9956C203.577 58.3833 190.91 57.7228 180.318 52.7218C186.027 62.535 196.665 69.1401 208.838 69.1401C227.049 69.1401 241.816 54.3731 241.816 36.162C241.839 29.321 239.763 22.9519 236.178 17.6914Z" fill="#EEEEFF"/>
<path d="M208.483 36.5637L192.985 22.7402L209.214 35.7144L208.483 36.5637Z" fill="#32338C"/>
<path d="M209.474 35.7617L216.621 62.0404L208.224 36.5402L209.474 35.7617Z" fill="#32338C"/>
<path d="M208.862 38.5922C210.216 38.5922 211.315 37.4938 211.315 36.1389C211.315 34.7839 210.216 33.6855 208.862 33.6855C207.507 33.6855 206.408 34.7839 206.408 36.1389C206.408 37.4938 207.507 38.5922 208.862 38.5922Z" fill="#FE814B"/>
<path d="M208.861 3.16016V10.1662" stroke="#32338C" stroke-width="3.8829" stroke-miterlimit="10" stroke-linecap="round" stroke-linejoin="round"/>
<path d="M208.861 62.1113V69.141" stroke="#32338C" stroke-width="3.8829" stroke-miterlimit="10" stroke-linecap="round" stroke-linejoin="round"/>
<path d="M241.841 36.1387H234.835" stroke="#32338C" stroke-width="3.8829" stroke-miterlimit="10" stroke-linecap="round" stroke-linejoin="round"/>
<path d="M182.89 36.1387H175.86" stroke="#32338C" stroke-width="3.8829" stroke-miterlimit="10" stroke-linecap="round" stroke-linejoin="round"/>
<path d="M181.003 18.4707L186.924 22.2214" stroke="#32338C" stroke-width="3.8829" stroke-miterlimit="10" stroke-linecap="round" stroke-linejoin="round"/>
<path d="M230.776 50.0801L236.697 53.8308" stroke="#32338C" stroke-width="3.8829" stroke-miterlimit="10" stroke-linecap="round" stroke-linejoin="round"/>
<path d="M226.53 8.30273L222.779 14.2237" stroke="#32338C" stroke-width="3.8829" stroke-miterlimit="10" stroke-linecap="round" stroke-linejoin="round"/>
<path d="M194.92 58.0762L191.169 63.9971" stroke="#32338C" stroke-width="3.8829" stroke-miterlimit="10" stroke-linecap="round" stroke-linejoin="round"/>
<path d="M236.697 18.4707L230.776 22.2214" stroke="#32338C" stroke-width="3.8829" stroke-miterlimit="10" stroke-linecap="round" stroke-linejoin="round"/>
<path d="M186.924 50.0801L181.003 53.8308" stroke="#32338C" stroke-width="3.8829" stroke-miterlimit="10" stroke-linecap="round" stroke-linejoin="round"/>
<path d="M191.169 8.30273L194.92 14.2237" stroke="#32338C" stroke-width="3.8829" stroke-miterlimit="10" stroke-linecap="round" stroke-linejoin="round"/>
<path d="M222.779 58.0762L226.53 63.9971" stroke="#32338C" stroke-width="3.8829" stroke-miterlimit="10" stroke-linecap="round" stroke-linejoin="round"/>
<defs>
<clipPath id="clip0_2904_440">
<rect width="370" height="190" fill="white" transform="translate(0 18)"/>
</clipPath>
<clipPath id="clip1_2904_440">
<rect width="298" height="187" fill="white" transform="translate(36.0005 21)"/>
</clipPath>
</defs>
</svg>
